<svg width="20" height="19" viewBox="0 0 20 19" fill="none" xmlns="http://www.w3.org/2000/svg">
<path d="M7.099 8.85583C7.099 9.40812 6.65128 9.85583 6.099 9.85583C5.54671 9.85583 5.099 9.40812 5.099 8.85583C5.099 8.30355 5.54671 7.85583 6.099 7.85583C6.65128 7.85583 7.099 8.30355 7.099 8.85583Z" fill="white"/>
<path d="M14.099 9.85583C14.6513 9.85583 15.099 9.40812 15.099 8.85583C15.099 8.30355 14.6513 7.85583 14.099 7.85583C13.5467 7.85583 13.099 8.30355 13.099 8.85583C13.099 9.40812 13.5467 9.85583 14.099 9.85583Z" fill="white"/>
<path fill-rule="evenodd" clip-rule="evenodd" d="M5.3495 4.88346C5.34917 4.87429 5.349 4.86508 5.349 4.85583C5.349 2.23248 7.47565 0.105835 10.099 0.105835C12.7224 0.105835 14.849 2.23248 14.849 4.85583C14.849 4.86509 14.8488 4.8743 14.8485 4.88347C16.5953 5.08946 18.0274 6.42653 18.3227 8.19824L19.3227 14.1982C19.7291 16.6364 17.8489 18.8558 15.3771 18.8558H4.82081C2.34906 18.8558 0.468884 16.6364 0.875238 14.1982L1.87524 8.19824C2.17053 6.42651 3.60266 5.08943 5.3495 4.88346ZM6.849 4.85583C6.849 3.06091 8.30407 1.60583 10.099 1.60583C11.8939 1.60583 13.349 3.06091 13.349 4.85583H6.849ZM2.35483 14.4448L3.35483 8.44484C3.55574 7.23937 4.59871 6.35583 5.82081 6.35583H14.3771C15.5992 6.35583 16.6422 7.23937 16.8431 8.44484L17.8431 14.4448C18.0971 15.9687 16.922 17.3558 15.3771 17.3558H4.82081C3.27596 17.3558 2.10086 15.9687 2.35483 14.4448Z" fill="white"/>
</svg>
