<svg width="20" height="20" viewBox="0 0 20 20" fill="none" xmlns="http://www.w3.org/2000/svg">
<path fill-rule="evenodd" clip-rule="evenodd" d="M6 0H4C1.79086 0 0 1.79086 0 4V7C0 9.20914 1.79086 11 4 11H6C8.20914 11 10 9.20914 10 7V4C10 1.79086 8.20914 0 6 0ZM4 1.5H6C7.38071 1.5 8.5 2.61929 8.5 4V7C8.5 8.38071 7.38071 9.5 6 9.5H4C2.61929 9.5 1.5 8.38071 1.5 7V4C1.5 2.61929 2.61929 1.5 4 1.5Z" fill="white"/>
<path d="M15.75 1C15.75 0.585786 15.4142 0.25 15 0.25C14.5858 0.25 14.25 0.585786 14.25 1V3.25H12C11.5858 3.25 11.25 3.58579 11.25 4C11.25 4.41421 11.5858 4.75 12 4.75H14.25V7C14.25 7.41421 14.5858 7.75 15 7.75C15.4142 7.75 15.75 7.41421 15.75 7V4.75H18C18.4142 4.75 18.75 4.41421 18.75 4C18.75 3.58579 18.4142 3.25 18 3.25H15.75V1Z" fill="white"/>
<path fill-rule="evenodd" clip-rule="evenodd" d="M14 9H16C18.2091 9 20 10.7909 20 13V16C20 18.2091 18.2091 20 16 20H14C11.7909 20 10 18.2091 10 16V13C10 10.7909 11.7909 9 14 9ZM14 10.5C12.6193 10.5 11.5 11.6193 11.5 13V16C11.5 17.3807 12.6193 18.5 14 18.5H16C17.3807 18.5 18.5 17.3807 18.5 16V13C18.5 11.6193 17.3807 10.5 16 10.5H14Z" fill="white"/>
<path fill-rule="evenodd" clip-rule="evenodd" d="M5.85789 12.9779C5.30001 12.0171 3.87034 12.0066 3.2939 12.9517L0.45448 17.6071C-0.178545 18.645 0.695047 19.75 1.7287 19.75H7.27135C8.29321 19.75 9.16336 18.6704 8.56113 17.6333L5.85789 12.9779ZM1.81938 18.25L4.5639 13.7501L4.56848 13.75L4.57179 13.7501L7.18469 18.25H1.81938Z" fill="white"/>
</svg>
