<svg width="41" height="42" viewBox="0 0 41 42" fill="none" xmlns="http://www.w3.org/2000/svg">
<path d="M0.0834961 1.96875C0.0834961 0.877734 0.848519 0 1.79944 0H5.05257C6.62552 0 8.01972 1.05 8.67035 2.625H38.0558C39.9362 2.625 41.309 4.67578 40.8156 6.75938L37.8842 19.2527C37.2765 21.8285 35.2388 23.625 32.9152 23.625H12.2881L12.6742 25.9629C12.8315 26.8898 13.5393 27.5625 14.3615 27.5625H34.9743C35.9252 27.5625 36.6902 28.4402 36.6902 29.5312C36.6902 30.6223 35.9252 31.5 34.9743 31.5H14.3615C11.8877 31.5 9.76426 29.482 9.30668 26.7012L5.6174 4.4707C5.56736 4.15898 5.33141 3.9375 5.05257 3.9375H1.79944C0.848519 3.9375 0.0834961 3.05977 0.0834961 1.96875ZM9.23518 38.0625C9.23518 37.5454 9.32395 37.0334 9.49641 36.5557C9.66888 36.078 9.92167 35.6439 10.2404 35.2783C10.559 34.9126 10.9374 34.6226 11.3537 34.4247C11.7701 34.2268 12.2164 34.125 12.6671 34.125C13.1177 34.125 13.564 34.2268 13.9804 34.4247C14.3968 34.6226 14.7751 34.9126 15.0938 35.2783C15.4124 35.6439 15.6652 36.078 15.8377 36.5557C16.0102 37.0334 16.0989 37.5454 16.0989 38.0625C16.0989 38.5796 16.0102 39.0916 15.8377 39.5693C15.6652 40.047 15.4124 40.4811 15.0938 40.8467C14.7751 41.2124 14.3968 41.5024 13.9804 41.7003C13.564 41.8982 13.1177 42 12.6671 42C12.2164 42 11.7701 41.8982 11.3537 41.7003C10.9374 41.5024 10.559 41.2124 10.2404 40.8467C9.92167 40.4811 9.66888 40.047 9.49641 39.5693C9.32395 39.0916 9.23518 38.5796 9.23518 38.0625V38.0625ZM33.2583 34.125C34.1685 34.125 35.0414 34.5398 35.6851 35.2783C36.3287 36.0167 36.6902 37.0182 36.6902 38.0625C36.6902 39.1068 36.3287 40.1083 35.6851 40.8467C35.0414 41.5852 34.1685 42 33.2583 42C32.3482 42 31.4752 41.5852 30.8316 40.8467C30.188 40.1083 29.8265 39.1068 29.8265 38.0625C29.8265 37.0182 30.188 36.0167 30.8316 35.2783C31.4752 34.5398 32.3482 34.125 33.2583 34.125ZM18.1009 13.125C18.1009 14.0273 18.7443 14.7656 19.5308 14.7656H22.6767V18.375C22.6767 19.2773 23.3202 20.0156 24.1067 20.0156C24.8931 20.0156 25.5366 19.2773 25.5366 18.375V14.7656H28.6825C29.469 14.7656 30.1125 14.0273 30.1125 13.125C30.1125 12.2227 29.469 11.4844 28.6825 11.4844H25.5366V7.875C25.5366 6.97266 24.8931 6.23438 24.1067 6.23438C23.3202 6.23438 22.6767 6.97266 22.6767 7.875V11.4844H19.5308C18.7443 11.4844 18.1009 12.2227 18.1009 13.125Z" fill="white"/>
</svg>
