<svg width="25" height="24" viewBox="0 0 25 24" fill="none" xmlns="http://www.w3.org/2000/svg">
<path fill-rule="evenodd" clip-rule="evenodd" d="M1.75 0.570679C1.23223 0.570679 0.8125 0.990412 0.8125 1.50818C0.8125 2.02595 1.23223 2.44568 1.75 2.44568C2.77131 2.44568 3.6556 3.15503 3.87715 4.15202L4.41456 6.57036C4.41847 6.6291 4.42793 6.68783 4.44312 6.74578L4.5118 7.00792L4.58482 7.33655C4.59919 7.40118 4.6199 7.46275 4.64616 7.52076L6.74013 15.513C7.42434 18.1245 9.78415 19.9457 12.4838 19.9457H18.9382C22.2174 19.9457 24.8757 17.2874 24.8757 14.0082V10.6215C24.8757 9.91668 24.7741 9.06626 24.2958 8.31595C23.2198 6.62768 21.3425 5.57068 19.2892 5.57068H6.11315L5.7075 3.74527C5.29531 1.8904 3.65012 0.570679 1.75 0.570679ZM8.55391 15.0378L6.56477 7.44568H19.2892C20.6936 7.44568 21.9784 8.1686 22.7147 9.32375C22.9138 9.63603 23.0007 10.0663 23.0007 10.6215V14.0082C23.0007 16.2518 21.1819 18.0707 18.9382 18.0707H12.4838C10.6367 18.0707 9.02205 16.8246 8.55391 15.0378Z" fill="white"/>
<path d="M19.25 24.0082C19.9404 24.0082 20.5 23.4485 20.5 22.7582C20.5 22.0678 19.9404 21.5082 19.25 21.5082C18.5596 21.5082 18 22.0678 18 22.7582C18 23.4485 18.5596 24.0082 19.25 24.0082Z" fill="white"/>
<path d="M10.5 22.7582C10.5 23.4485 9.94036 24.0082 9.25 24.0082C8.55964 24.0082 8 23.4485 8 22.7582C8 22.0678 8.55964 21.5082 9.25 21.5082C9.94036 21.5082 10.5 22.0678 10.5 22.7582Z" fill="white"/>
</svg>
