<svg width="20" height="20" viewBox="0 0 20 20" fill="none" xmlns="http://www.w3.org/2000/svg">
<path fill-rule="evenodd" clip-rule="evenodd" d="M4.5 5.00818C4.77614 5.00818 5 4.78432 5 4.50818C5 4.23204 4.77614 4.00818 4.5 4.00818C4.22386 4.00818 4 4.23204 4 4.50818C4 4.78432 4.22386 5.00818 4.5 5.00818ZM4.5 6.50818C5.60457 6.50818 6.5 5.61275 6.5 4.50818C6.5 3.40361 5.60457 2.50818 4.5 2.50818C3.39543 2.50818 2.5 3.40361 2.5 4.50818C2.5 5.61275 3.39543 6.50818 4.5 6.50818Z" fill="#E6007E"/>
<path fill-rule="evenodd" clip-rule="evenodd" d="M20 14.5082C20 12.0229 17.9853 10.0082 15.5 10.0082C13.0147 10.0082 11 12.0229 11 14.5082C11.0666 15.1705 11.2408 15.803 11.5076 16.3925C12.036 17.56 12.9275 18.5589 14.0653 19.2869C14.6141 19.638 15.2632 19.758 15.8824 19.6534C16.2441 19.5924 16.5957 19.4546 16.911 19.2414C18.534 18.1444 19.8041 16.4554 20 14.5082ZM12.5009 14.435C12.6699 15.8671 13.5224 17.1587 14.8737 18.0233C15.2291 18.2507 15.7024 18.2478 16.071 17.9987C17.4127 17.0918 18.3341 15.7914 18.4991 14.434C18.4597 12.8114 17.132 11.5082 15.5 11.5082C13.8676 11.5082 12.5397 12.8119 12.5009 14.435Z" fill="#E6007E"/>
<path fill-rule="evenodd" clip-rule="evenodd" d="M15.5 15.0082C15.7761 15.0082 16 14.7843 16 14.5082C16 14.232 15.7761 14.0082 15.5 14.0082C15.2239 14.0082 15 14.232 15 14.5082C15 14.7843 15.2239 15.0082 15.5 15.0082ZM15.5 16.5082C16.6046 16.5082 17.5 15.6127 17.5 14.5082C17.5 13.4036 16.6046 12.5082 15.5 12.5082C14.3954 12.5082 13.5 13.4036 13.5 14.5082C13.5 15.6127 14.3954 16.5082 15.5 16.5082Z" fill="#E6007E"/>
<path d="M5.29609 9.5482C4.8084 9.71573 4.28135 9.73533 3.78526 9.60353C3.75805 9.79366 3.6898 10.0167 3.57205 10.2826C3.38259 10.7104 3.11117 11.1524 2.80617 11.6491C2.76227 11.7206 2.71768 11.7932 2.67254 11.8671C2.33261 12.4233 1.95896 13.0552 1.74841 13.6959C1.53236 14.3535 1.46001 15.1053 1.82917 15.8436C2.48974 17.1648 3.69747 17.6318 4.76716 17.703C5.80236 17.7719 6.82838 17.4858 7.38586 17.1513C7.76457 16.9241 8.31058 16.8818 9.06509 17.0651C9.81057 17.2462 10.6361 17.618 11.4673 18.049C11.8746 18.2602 12.2721 18.4796 12.6555 18.6912L12.6679 18.698C13.0506 18.9093 13.4244 19.1155 13.7629 19.2868C14.0962 19.4554 14.4303 19.6085 14.7317 19.7003C14.9844 19.7772 15.4281 19.8827 15.8354 19.679C15.8515 19.671 15.8671 19.6624 15.8824 19.6534C15.2632 19.758 14.6141 19.638 14.0653 19.2869C12.9275 18.5589 12.036 17.56 11.5076 16.3925C10.8315 16.069 10.1171 15.7771 9.41927 15.6075C8.5019 15.3846 7.4854 15.3423 6.61411 15.8651C6.33825 16.0306 5.62024 16.2564 4.86675 16.2063C4.14775 16.1584 3.52215 15.8755 3.17081 15.1728C3.03998 14.9111 3.03013 14.6004 3.17346 14.1642C3.32229 13.7112 3.60488 13.218 3.95246 12.6493C3.99422 12.5809 4.03704 12.5113 4.08054 12.4406C4.37941 11.9548 4.70993 11.4176 4.94358 10.89C5.12328 10.4842 5.27266 10.0277 5.29609 9.5482Z" fill="#E6007E"/>
<path fill-rule="evenodd" clip-rule="evenodd" d="M9 4.50818C9 2.0229 6.98528 0.00817871 4.5 0.00817871C2.01472 0.00817871 0 2.0229 0 4.50818C0.198598 6.48246 1.35307 8.19135 3.0653 9.28685C3.2913 9.43145 3.53432 9.53686 3.78526 9.60353C4.28135 9.73533 4.8084 9.71573 5.29609 9.5482C5.51069 9.47449 5.71767 9.37213 5.91103 9.24143C7.53399 8.14442 8.80413 6.45538 9 4.50818ZM1.50088 4.43497C1.66992 5.86707 2.52235 7.15872 3.87371 8.02334C4.22906 8.25069 4.70243 8.24784 5.07103 7.99869C6.41275 7.09178 7.33406 5.79138 7.4991 4.43395C7.4597 2.81139 6.13204 1.50818 4.5 1.50818C2.86762 1.50818 1.53975 2.81194 1.50088 4.43497Z" fill="#E6007E"/>
<path fill-rule="evenodd" clip-rule="evenodd" d="M4.5 6.50818C5.60457 6.50818 6.5 5.61275 6.5 4.50818C6.5 3.40361 5.60457 2.50818 4.5 2.50818C3.39543 2.50818 2.5 3.40361 2.5 4.50818C2.5 5.61275 3.39543 6.50818 4.5 6.50818ZM4.5 5.00818C4.77614 5.00818 5 4.78432 5 4.50818C5 4.23204 4.77614 4.00818 4.5 4.00818C4.22386 4.00818 4 4.23204 4 4.50818C4 4.78432 4.22386 5.00818 4.5 5.00818Z" fill="#E6007E"/>
</svg>
