<svg width="380" height="44" viewBox="0 0 380 44" fill="none" xmlns="http://www.w3.org/2000/svg">
<path fill-rule="evenodd" clip-rule="evenodd" d="M65.2021 1.00818C65.2021 0.732036 64.9782 0.508179 64.7021 0.508179H0.509277C0.233135 0.508179 0.00927734 0.732036 0.00927734 1.00818V43.0082C0.00927734 43.2843 0.233135 43.5082 0.509277 43.5082H379.496C379.772 43.5082 379.996 43.2843 379.996 43.0082V1.00818C379.996 0.732036 379.772 0.508179 379.496 0.508179H314.285C314.009 0.508179 313.785 0.732036 313.785 1.00818C313.785 1.28432 314.009 1.50818 314.285 1.50818H358.496C369.818 1.50818 378.996 10.6863 378.996 22.0082C378.996 33.33 369.818 42.5082 358.496 42.5082H21.5093C10.1874 42.5082 1.00928 33.33 1.00928 22.0082C1.00928 10.6863 10.1875 1.50818 21.5093 1.50818H64.7021C64.9782 1.50818 65.2021 1.28432 65.2021 1.00818Z" fill="white"/>
</svg>
