<svg width="37" height="38" viewBox="0 0 37 38" fill="none" xmlns="http://www.w3.org/2000/svg">
<path d="M20.0824 11.4458C20.1014 10.5608 19.3892 9.83317 18.504 9.83317C17.6192 9.83317 16.9071 10.5602 16.9255 11.4448L17.1307 21.2981C17.1462 22.0437 17.7551 22.6399 18.5008 22.6399C19.2461 22.6399 19.8548 22.0442 19.8708 21.299L20.0824 11.4458Z" fill="white"/>
<path d="M17.2003 27.5997C17.5614 27.9776 17.9948 28.1665 18.5003 28.1665C18.8337 28.1665 19.1364 28.0809 19.4087 27.9097C19.6864 27.7325 19.9087 27.4963 20.0753 27.2011C20.2475 26.9059 20.3337 26.5782 20.3337 26.218C20.3337 25.6866 20.1503 25.232 19.7837 24.8541C19.4225 24.4762 18.9948 24.2873 18.5003 24.2873C17.9948 24.2873 17.5614 24.4762 17.2003 24.8541C16.8448 25.232 16.667 25.6866 16.667 26.218C16.667 26.7612 16.8448 27.2218 17.2003 27.5997Z" fill="white"/>
<path fill-rule="evenodd" clip-rule="evenodd" d="M36.8337 18.9998C36.8337 29.1251 28.6255 37.3332 18.5003 37.3332C8.3751 37.3332 0.166992 29.1251 0.166992 18.9998C0.166992 8.87462 8.3751 0.666504 18.5003 0.666504C28.6255 0.666504 36.8337 8.87462 36.8337 18.9998ZM34.0837 18.9998C34.0837 27.6063 27.1068 34.5832 18.5003 34.5832C9.89389 34.5832 2.91699 27.6063 2.91699 18.9998C2.91699 10.3934 9.89389 3.4165 18.5003 3.4165C27.1068 3.4165 34.0837 10.3934 34.0837 18.9998Z" fill="white"/>
</svg>
