<svg width="14" height="17" viewBox="0 0 14 17" fill="none" xmlns="http://www.w3.org/2000/svg">
<path fill-rule="evenodd" clip-rule="evenodd" d="M2.48978 0.289429C1.15503 0.289429 0.072998 1.37146 0.072998 2.70621C0.072998 3.18334 0.21423 3.6498 0.478896 4.0468L4.52384 10.1142C4.71891 10.4068 4.823 10.7506 4.823 11.1023V14.6439C4.823 15.6738 5.90682 16.3436 6.82799 15.8831L7.53608 15.529C8.54185 15.0261 9.17716 13.9982 9.17716 12.8737V11.1023C9.17716 10.7506 9.28126 10.4068 9.47633 10.1142L13.5213 4.0468C13.7859 3.6498 13.9272 3.18334 13.9272 2.70621C13.9272 1.37146 12.8451 0.289429 11.5104 0.289429H2.48978ZM1.2605 2.70621C1.2605 2.0273 1.81087 1.47693 2.48978 1.47693H11.5104C12.1893 1.47693 12.7397 2.0273 12.7397 2.70621C12.7397 2.9489 12.6678 3.18616 12.5332 3.38809L8.48827 9.4555C8.16315 9.94317 7.98966 10.5162 7.98966 11.1023V12.8737C7.98966 13.5484 7.60847 14.1651 7.00501 14.4669L6.29693 14.8209C6.16533 14.8867 6.0105 14.791 6.0105 14.6439V11.1023C6.0105 10.5162 5.83701 9.94317 5.5119 9.4555L1.46696 3.38809C1.33234 3.18616 1.2605 2.9489 1.2605 2.70621Z" fill="white"/>
</svg>
