<svg width="35" height="20" viewBox="0 0 35 20" fill="none" xmlns="http://www.w3.org/2000/svg">
<g clip-path="url(#clip0_105_7906)">
<path d="M34.9995 10.008C34.9995 15.5105 30.333 20.0077 24.4998 20.0077C18.7221 20.0077 14 15.5105 14 10.008C14 4.50543 18.6665 0.00817871 24.4442 0.00817871C30.333 0.00817871 34.9995 4.50543 34.9995 10.008Z" fill="#FFB600"/>
<path d="M24.4998 0.00817871C30.2774 0.00817871 34.9995 4.50543 34.9995 10.008C34.9995 15.5105 30.333 20.0077 24.4998 20.0077C18.7221 20.0077 14 15.5105 14 10.008" fill="#F7981D"/>
<path d="M24.5 0.00817871C30.2776 0.00817871 34.9998 4.50543 34.9998 10.008C34.9998 15.5105 30.3331 20.0077 24.5 20.0077" fill="#FF8500"/>
<path d="M10.3887 0.00817871C4.66656 0.0610876 0 4.50543 0 10.008C0 15.5105 4.66656 20.0077 10.4998 20.0077C13.222 20.0077 15.6664 19.0025 17.5552 17.4152C17.944 17.0977 18.2774 16.7274 18.6107 16.3571H16.4441C16.1663 16.0395 15.8885 15.6692 15.6664 15.3517H19.3885C19.6106 15.0343 19.8329 14.664 19.9996 14.2936H15.0553C14.8885 13.9761 14.7219 13.6057 14.6108 13.2354H20.3884C20.7218 12.2302 20.944 11.172 20.944 10.0609C20.944 9.32014 20.8328 8.63233 20.7218 7.94451H14.2774C14.333 7.57415 14.4442 7.25669 14.5552 6.88634H20.3329C20.2217 6.51597 20.0551 6.1456 19.8884 5.82816H14.9997C15.1663 5.45779 15.3886 5.14034 15.6107 4.76998H19.333C19.1107 4.39961 18.8329 4.02926 18.4996 3.7118H16.4441C16.7774 3.34143 17.1107 3.02398 17.4997 2.70653C15.6664 1.06636 13.1664 0.113996 10.4442 0.113996C10.4442 0.00817861 10.4442 0.00817871 10.3887 0.00817871Z" fill="#FF5050"/>
<path d="M0 10.0085C0 15.5109 4.66656 20.0083 10.4998 20.0083C13.222 20.0083 15.6664 19.0029 17.5552 17.4157C17.944 17.0983 18.2774 16.7278 18.6107 16.3575H16.4441C16.1663 16.0401 15.8885 15.6697 15.6664 15.3523H19.3885C19.6106 15.0348 19.8329 14.6644 19.9996 14.2941H15.0553C14.8885 13.9766 14.7219 13.6063 14.6108 13.2359H20.3884C20.7218 12.2306 20.944 11.1725 20.944 10.0614C20.944 9.32064 20.8328 8.63282 20.7218 7.94501H14.2774C14.333 7.57466 14.4442 7.2572 14.5552 6.88683H20.3329C20.2217 6.51648 20.0551 6.14611 19.8884 5.82865H14.9997C15.1663 5.4583 15.3886 5.14084 15.6107 4.77048H19.333C19.1107 4.40012 18.8329 4.02975 18.4996 3.7123H16.4441C16.7774 3.34194 17.1107 3.02449 17.4997 2.70703C15.6664 1.06686 13.1664 0.114502 10.4442 0.114502H10.3887" fill="#E52836"/>
<path d="M10.5003 20.0083C13.2224 20.0083 15.6668 19.0029 17.5557 17.4157C17.9445 17.0983 18.2778 16.7278 18.6111 16.3575H16.4445C16.1669 16.0401 15.8891 15.6697 15.6668 15.3523H19.389C19.6112 15.0348 19.8333 14.6644 20.0001 14.2941H15.0557C14.889 13.9766 14.7224 13.6063 14.6113 13.2359H20.3889C20.7222 12.2306 20.9445 11.1725 20.9445 10.0614C20.9445 9.32064 20.8334 8.63282 20.7222 7.94501H14.2779C14.3336 7.57466 14.4446 7.2572 14.5557 6.88683H20.3334C20.2223 6.51648 20.0556 6.14611 19.889 5.82865H15.0002C15.1668 5.4583 15.389 5.14084 15.6113 4.77048H19.3334C19.1112 4.40012 18.8334 4.02975 18.5001 3.7123H16.4445C16.778 3.34194 17.1113 3.02449 17.5001 2.70703C15.6668 1.06686 13.1669 0.114502 10.4447 0.114502H10.3892" fill="#CB2026"/>
<path d="M14.2224 12.5477L14.3891 11.6483C14.3336 11.6483 14.2224 11.7012 14.1113 11.7012C13.7225 11.7012 13.6669 11.4895 13.7225 11.3837L14.0558 9.5319H14.6669L14.8335 8.52663H14.278L14.3891 7.89172H13.278C13.278 7.89172 12.6113 11.3837 12.6113 11.8069C12.6113 12.4419 13.0002 12.7064 13.5002 12.7064C13.8335 12.7064 14.1113 12.6006 14.2224 12.5477Z" fill="white"/>
<path d="M14.6113 10.8541C14.6113 12.3356 15.6668 12.7059 16.5557 12.7059C17.389 12.7059 17.7224 12.5473 17.7224 12.5473L17.9445 11.5419C17.9445 11.5419 17.3335 11.8065 16.7779 11.8065C15.5557 11.8065 15.7779 10.96 15.7779 10.96H18.0557C18.0557 10.96 18.2223 10.2722 18.2223 10.0076C18.2223 9.31978 17.8334 8.47325 16.6112 8.47325C15.4446 8.36743 14.6113 9.53142 14.6113 10.8541ZM16.5557 9.31978C17.1668 9.31978 17.0557 10.0076 17.0557 10.0605H15.8335C15.8335 10.0076 15.9446 9.31978 16.5557 9.31978Z" fill="white"/>
<path d="M23.6107 12.5475L23.8329 11.3836C23.8329 11.3836 23.2774 11.6481 22.8885 11.6481C22.1107 11.6481 21.7774 11.0661 21.7774 10.4312C21.7774 9.1614 22.444 8.47358 23.2218 8.47358C23.7773 8.47358 24.2218 8.79104 24.2218 8.79104L24.3884 7.67995C24.3884 7.67995 23.7217 7.41541 23.1106 7.41541C21.8329 7.41541 20.5552 8.47358 20.5552 10.4841C20.5552 11.8069 21.2218 12.7063 22.5551 12.7063C22.9996 12.7063 23.6107 12.5475 23.6107 12.5475Z" fill="white"/>
<path d="M8.11204 8.36835C7.33428 8.36835 6.77874 8.57998 6.77874 8.57998L6.61208 9.47944C6.61208 9.47944 7.11206 9.2678 7.83427 9.2678C8.22315 9.2678 8.55647 9.3207 8.55647 9.63816C8.55647 9.84979 8.50092 9.9027 8.50092 9.9027C8.50092 9.9027 8.16759 9.9027 8.00094 9.9027C7.05651 9.9027 6.00098 10.2731 6.00098 11.4899C6.00098 12.4424 6.66762 12.6539 7.05651 12.6539C7.83427 12.6539 8.16759 12.1778 8.22315 12.1778L8.16759 12.601H9.16757L9.61201 9.69107C9.61201 8.42126 8.50092 8.36835 8.11204 8.36835ZM8.33425 10.7492C8.33425 10.908 8.22315 11.7545 7.55649 11.7545C7.22317 11.7545 7.11206 11.4899 7.11206 11.3313C7.11206 11.0667 7.27872 10.6963 8.11204 10.6963C8.27871 10.7492 8.33425 10.7492 8.33425 10.7492Z" fill="white"/>
<path d="M10.6664 12.653C10.9442 12.653 12.333 12.7058 12.333 11.2773C12.333 9.95456 10.9997 10.2191 10.9997 9.69001C10.9997 9.42547 11.222 9.31966 11.6108 9.31966C11.7775 9.31966 12.3886 9.37257 12.3886 9.37257L12.5553 8.4202C12.5553 8.4202 12.1664 8.31439 11.4997 8.31439C10.6664 8.31439 9.83311 8.63184 9.83311 9.69001C9.83311 10.9069 11.222 10.8011 11.222 11.2773C11.222 11.5947 10.8331 11.6476 10.5553 11.6476C10.0553 11.6476 9.55534 11.489 9.55534 11.489L9.38867 12.4413C9.44423 12.5471 9.722 12.653 10.6664 12.653Z" fill="white"/>
<path d="M32.8326 7.52173L32.6104 8.95026C32.6104 8.95026 32.1659 8.42117 31.5548 8.42117C30.5549 8.42117 29.666 9.58517 29.666 10.9608C29.666 11.8074 30.1105 12.7068 31.0549 12.7068C31.7216 12.7068 32.1104 12.2835 32.1104 12.2835L32.0549 12.6538H33.166L33.9992 7.57464L32.8326 7.52173ZM32.3327 10.3259C32.3327 10.9079 32.0549 11.6486 31.4438 11.6486C31.0549 11.6486 30.8327 11.3312 30.8327 10.8021C30.8327 9.95553 31.2215 9.42644 31.7216 9.42644C32.1104 9.42644 32.3327 9.69098 32.3327 10.3259Z" fill="white"/>
<path d="M2.05602 12.5999L2.72267 8.79044L2.83378 12.5999H3.61154L5.05595 8.79044L4.44485 12.5999H5.6115L6.50036 7.52063H4.66707L3.55598 10.6423L3.50043 7.52063H1.88935L1.00049 12.5999H2.05602Z" fill="white"/>
<path d="M19.2784 12.6005C19.6117 10.8545 19.6672 9.42599 20.4449 9.69053C20.5561 9.00272 20.7227 8.73818 20.8339 8.47363C20.8339 8.47363 20.7782 8.47363 20.6116 8.47363C20.1116 8.47363 19.7227 9.10853 19.7227 9.10853L19.8338 8.52653H18.7783L18.0562 12.6534H19.2784V12.6005Z" fill="white"/>
<path d="M26.1672 8.36835C25.3894 8.36835 24.8339 8.57998 24.8339 8.57998L24.6673 9.47944C24.6673 9.47944 25.1672 9.2678 25.8895 9.2678C26.2783 9.2678 26.6116 9.3207 26.6116 9.63816C26.6116 9.84979 26.5561 9.9027 26.5561 9.9027C26.5561 9.9027 26.2228 9.9027 26.0561 9.9027C25.1116 9.9027 24.0562 10.2731 24.0562 11.4899C24.0562 12.4424 24.7228 12.6539 25.1116 12.6539C25.8895 12.6539 26.2228 12.1778 26.2783 12.1778L26.2228 12.601H27.2227L27.6672 9.69107C27.7228 8.42126 26.5561 8.36835 26.1672 8.36835ZM26.445 10.7492C26.445 10.908 26.3338 11.7545 25.6672 11.7545C25.3339 11.7545 25.2228 11.4899 25.2228 11.3313C25.2228 11.0667 25.3894 10.6963 26.2228 10.6963C26.3894 10.7492 26.3894 10.7492 26.445 10.7492Z" fill="white"/>
<path d="M28.6109 12.6005C28.9442 10.8545 28.9997 9.42599 29.7774 9.69053C29.8886 9.00272 30.0552 8.73818 30.1664 8.47363C30.1664 8.47363 30.1109 8.47363 29.9441 8.47363C29.4441 8.47363 29.0553 9.10853 29.0553 9.10853L29.1663 8.52653H28.1108L27.3887 12.6534H28.6109V12.6005Z" fill="white"/>
<path d="M12.501 11.8069C12.501 12.4419 12.8898 12.7064 13.3899 12.7064C13.7787 12.7064 14.112 12.6006 14.2231 12.5477L14.3898 11.6483C14.3343 11.6483 14.2231 11.7012 14.112 11.7012C13.7232 11.7012 13.6676 11.4895 13.7232 11.3837L14.0565 9.5319H14.6676L14.8342 8.52663H14.2787L14.3898 7.89172" fill="#DCE5E5"/>
<path d="M15.1665 10.8541C15.1665 12.3356 15.6665 12.7059 16.5553 12.7059C17.3887 12.7059 17.722 12.5473 17.722 12.5473L17.9442 11.5419C17.9442 11.5419 17.3331 11.8065 16.7776 11.8065C15.5554 11.8065 15.7776 10.96 15.7776 10.96H18.0553C18.0553 10.96 18.222 10.2722 18.222 10.0076C18.222 9.31978 17.8332 8.47325 16.611 8.47325C15.4443 8.36743 15.1665 9.53142 15.1665 10.8541ZM16.5553 9.31978C17.1664 9.31978 17.2776 10.0076 17.2776 10.0605H15.8331C15.8331 10.0076 15.9443 9.31978 16.5553 9.31978Z" fill="#DCE5E5"/>
<path d="M23.6103 12.5475L23.8325 11.3836C23.8325 11.3836 23.277 11.6481 22.8881 11.6481C22.1104 11.6481 21.777 11.0661 21.777 10.4312C21.777 9.1614 22.4437 8.47358 23.2214 8.47358C23.777 8.47358 24.2214 8.79104 24.2214 8.79104L24.3881 7.67995C24.3881 7.67995 23.7215 7.41541 23.1104 7.41541C21.8326 7.41541 21.1104 8.47358 21.1104 10.4841C21.1104 11.8069 21.2215 12.7063 22.5548 12.7063C22.9992 12.7063 23.6103 12.5475 23.6103 12.5475Z" fill="#DCE5E5"/>
<path d="M6.61208 9.53181C6.61208 9.53181 7.11206 9.32017 7.83427 9.32017C8.22315 9.32017 8.55647 9.37308 8.55647 9.69053C8.55647 9.90217 8.50092 9.95508 8.50092 9.95508C8.50092 9.95508 8.16759 9.95508 8.00094 9.95508C7.05651 9.95508 6.00098 10.3254 6.00098 11.5423C6.00098 12.4947 6.66762 12.7063 7.05651 12.7063C7.83427 12.7063 8.16759 12.2302 8.22315 12.2302L8.16759 12.6534H9.16757L9.61201 9.74344C9.61201 8.52653 8.50092 8.47363 8.05648 8.47363L6.61208 9.53181ZM8.8898 10.7487C8.8898 10.9074 8.22315 11.754 7.55649 11.754C7.22317 11.754 7.11206 11.4894 7.11206 11.3307C7.11206 11.0662 7.27872 10.6958 8.11204 10.6958C8.27871 10.7487 8.8898 10.7487 8.8898 10.7487Z" fill="#DCE5E5"/>
<path d="M9.44434 12.5471C9.44434 12.5471 9.77766 12.653 10.7221 12.653C10.9999 12.653 12.3888 12.7058 12.3888 11.2773C12.3888 9.95456 11.0554 10.2191 11.0554 9.69001C11.0554 9.42547 11.2776 9.31966 11.6665 9.31966C11.8332 9.31966 12.4443 9.37257 12.4443 9.37257L12.6109 8.4202C12.6109 8.4202 12.222 8.31439 11.5554 8.31439C10.7221 8.31439 10.4443 8.63184 10.4443 9.69001C10.4443 10.9069 11.2776 10.8011 11.2776 11.2773C11.2776 11.5947 10.8888 11.6476 10.611 11.6476" fill="#DCE5E5"/>
<path d="M32.6115 8.94949C32.6115 8.94949 32.1672 8.4204 31.5561 8.4204C30.5561 8.4204 30.2228 9.58439 30.2228 10.96C30.2228 11.8065 30.1116 12.706 31.056 12.706C31.7228 12.706 32.1116 12.2828 32.1116 12.2828L32.0561 12.6531H33.1671L34.0005 7.57385L32.6115 8.94949ZM32.556 10.3251C32.556 10.9071 32.0561 11.6479 31.445 11.6479C31.056 11.6479 30.8339 11.3304 30.8339 10.8013C30.8339 9.95475 31.2227 9.42566 31.7228 9.42566C32.1116 9.42566 32.556 9.69021 32.556 10.3251Z" fill="#DCE5E5"/>
<path d="M2.05602 12.5999L2.72267 8.79044L2.83378 12.5999H3.61154L5.05595 8.79044L4.44485 12.5999H5.6115L6.50036 7.52063H5.11151L3.55598 10.6423L3.50043 7.52063H2.88934L1.00049 12.5999H2.05602Z" fill="#DCE5E5"/>
<path d="M18.1113 12.6005H19.278C19.6113 10.8545 19.6668 9.42599 20.4447 9.69053C20.5557 9.00272 20.7224 8.73818 20.8335 8.47363C20.8335 8.47363 20.778 8.47363 20.6113 8.47363C20.1113 8.47363 19.7224 9.10853 19.7224 9.10853L19.8336 8.52653" fill="#DCE5E5"/>
<path d="M24.6673 9.53181C24.6673 9.53181 25.1672 9.32017 25.8895 9.32017C26.2783 9.32017 26.6116 9.37308 26.6116 9.69053C26.6116 9.90217 26.5561 9.95508 26.5561 9.95508C26.5561 9.95508 26.2228 9.95508 26.0561 9.95508C25.1116 9.95508 24.0562 10.3254 24.0562 11.5423C24.0562 12.4947 24.7228 12.7063 25.1116 12.7063C25.8895 12.7063 26.2228 12.2302 26.2783 12.2302L26.2228 12.6534H27.2227L27.6672 9.74344C27.6672 8.52653 26.5561 8.47363 26.1116 8.47363L24.6673 9.53181ZM26.9449 10.7487C26.9449 10.9074 26.2783 11.754 25.6117 11.754C25.2784 11.754 25.1672 11.4894 25.1672 11.3307C25.1672 11.0662 25.3339 10.6958 26.1672 10.6958C26.3894 10.7487 26.9449 10.7487 26.9449 10.7487Z" fill="#DCE5E5"/>
<path d="M27.4443 12.6005H28.611C28.9443 10.8545 28.9999 9.42599 29.7777 9.69053C29.8887 9.00272 30.0555 8.73818 30.1665 8.47363C30.1665 8.47363 30.111 8.47363 29.9443 8.47363C29.4444 8.47363 29.0554 9.10853 29.0554 9.10853L29.1666 8.52653" fill="#DCE5E5"/>
</g>
<defs>
<clipPath id="clip0_105_7906">
<rect width="35" height="20" fill="white" transform="translate(0 0.00817871)"/>
</clipPath>
</defs>
</svg>
