<svg width="21" height="20" viewBox="0 0 21 20" fill="none" xmlns="http://www.w3.org/2000/svg">
<path d="M11.3501 10.5081C11.3501 10.0939 11.0143 9.75812 10.6001 9.75812C10.1859 9.75812 9.8501 10.0939 9.8501 10.5081V14.5081C9.8501 14.9223 10.1859 15.2581 10.6001 15.2581C11.0143 15.2581 11.3501 14.9223 11.3501 14.5081V10.5081Z" fill="white"/>
<path fill-rule="evenodd" clip-rule="evenodd" d="M2.43271 6.04202L8.1013 1.50714C9.56218 0.33844 11.638 0.338441 13.0989 1.50714L18.7675 6.04202C19.899 6.94726 20.4525 8.39371 20.2143 9.82309L19.1572 16.1657C18.8357 18.0945 17.1669 19.5081 15.2116 19.5081H5.98859C4.03323 19.5081 2.36447 18.0945 2.04302 16.1657L0.985911 9.82309C0.747681 8.39371 1.30115 6.94726 2.43271 6.04202ZM3.36975 7.21332L9.03835 2.67844C9.95139 1.94801 11.2488 1.94801 12.1618 2.67844L17.8304 7.21332C18.5376 7.7791 18.8836 8.68313 18.7347 9.57649L17.6776 15.9191C17.4766 17.1246 16.4337 18.0081 15.2116 18.0081H5.98859C4.76649 18.0081 3.72352 17.1246 3.52261 15.9191L2.4655 9.57649C2.31661 8.68313 2.66253 7.7791 3.36975 7.21332Z" fill="white"/>
</svg>
