<svg width="34" height="21" viewBox="0 0 34 21" fill="none" xmlns="http://www.w3.org/2000/svg">
<path d="M6.15479 10.7378C4.66012 11.1571 3.23521 11.6231 2.01756 12.5312C1.87231 12.643 1.7373 12.7665 1.614 12.9002C0.962323 13.5877 0.952358 14.3066 1.60602 14.9922C2.33542 15.7606 3.295 16.1885 4.27848 16.5631C6.22852 17.3068 8.26425 17.7119 10.3388 17.9895C12.0372 18.217 13.7487 18.3441 15.4636 18.3699C15.5914 18.3806 15.7198 18.3548 15.8322 18.2957C15.2812 17.9648 14.7431 17.6101 14.1742 17.3096C13.7756 17.1014 14.0745 16.9435 14.1582 16.759C14.2638 16.5308 14.3804 16.4833 14.6305 16.6392C15.5343 17.2031 16.458 17.7394 17.3727 18.2881C17.4624 18.3366 17.5372 18.4067 17.5895 18.4914C17.6418 18.5761 17.6699 18.6725 17.6709 18.7708C17.6719 18.8692 17.6458 18.966 17.5952 19.0517C17.5447 19.1374 17.4714 19.2089 17.3827 19.259C16.457 19.8144 15.5204 20.3526 14.6086 20.9269C14.2897 21.1285 14.2389 20.9127 14.1283 20.7368C14.0177 20.5608 13.8234 20.4239 14.1652 20.2442C14.7381 19.9418 15.2802 19.5852 15.894 19.2162C15.5074 19.1154 15.1786 19.1468 14.8557 19.1354C11.9302 19.0317 9.0355 18.717 6.20162 17.9943C4.74681 17.6206 3.33186 17.148 2.05642 16.3577C1.59069 16.0818 1.17813 15.7315 0.836771 15.3222C0.106378 14.4131 0.119333 13.4042 0.888586 12.5217C1.6419 11.6573 2.65329 11.1533 3.70951 10.7149C4.40417 10.4273 5.12109 10.1915 5.85386 10.0093C6.08204 9.95229 6.16276 9.85339 6.16076 9.61851C6.14781 8.14742 6.1518 6.67634 6.15479 5.2062C6.15479 3.60199 7.27877 2.5341 8.96077 2.52839C9.98013 2.52839 10.9995 2.51793 12.0189 2.5341C12.1277 2.54442 12.2372 2.52142 12.3314 2.46842C12.4256 2.41543 12.4997 2.33518 12.543 2.23931C12.8907 1.63832 13.2704 1.0535 13.6211 0.453465C13.8055 0.137757 14.0655 0.00843014 14.4392 0.010332C16.0189 0.0185734 17.5976 0.0185734 19.1753 0.010332C19.3364 -0.00112804 19.4974 0.0333385 19.6379 0.109357C19.7784 0.185375 19.8921 0.29952 19.9645 0.437301C20.3162 1.03734 20.6979 1.62121 21.0446 2.22314C21.1742 2.44756 21.3177 2.5379 21.5937 2.53314C22.6011 2.51603 23.6075 2.52459 24.6149 2.52744C26.3238 2.52744 27.4308 3.58487 27.4378 5.22237C27.4448 6.66968 27.4488 8.11699 27.4318 9.56431C27.4318 9.84958 27.5315 9.94943 27.8005 10.0208C29.1318 10.3774 30.4202 10.8357 31.587 11.5698C32.0058 11.827 32.3805 12.1442 32.698 12.5103C33.5131 13.4736 33.5032 14.5072 32.6522 15.4477C31.9268 16.2484 30.9772 16.74 29.9787 17.1499C28.0018 17.96 25.9172 18.3918 23.8008 18.7027C22.4745 18.8977 21.1393 19.0232 19.7981 19.0926C19.6426 19.1002 19.4284 19.1649 19.4752 18.9024C19.5131 18.6913 19.26 18.3319 19.7453 18.309C21.2343 18.2347 22.7177 18.0801 24.1884 17.8459C26.4085 17.4808 28.5987 17.011 30.6075 15.9859C31.1804 15.693 31.7165 15.3488 32.1151 14.8448C32.6063 14.2229 32.6014 13.6362 32.0942 13.0238C31.6956 12.5407 31.1685 12.2031 30.6105 11.9083C29.7037 11.4329 28.7322 11.1067 27.7497 10.8072C27.5026 10.7311 27.4249 10.7843 27.4338 11.0363C27.4508 11.5118 27.4488 11.9873 27.4338 12.4627C27.39 13.9376 26.259 14.9998 24.7076 15.0036C21.5379 15.0112 18.3682 15.0036 15.1985 15.0036C13.1352 15.0036 11.0716 15.0036 9.0076 15.0036C7.27778 15.0036 6.15678 13.9357 6.15279 12.2944C6.15279 11.7904 6.15479 11.2826 6.15479 10.7378ZM16.7868 14.222C19.3962 14.222 22.0065 14.222 24.6179 14.222C25.8584 14.222 26.6108 13.5021 26.6177 12.3144C26.6224 9.94151 26.6224 7.56894 26.6177 5.19669C26.6177 4.0261 25.8624 3.31576 24.6388 3.31195C23.5327 3.31195 22.4257 3.3053 21.3196 3.31195C21.1465 3.32342 20.9737 3.28505 20.8236 3.20182C20.6735 3.11859 20.553 2.99431 20.4777 2.84505C20.1269 2.24406 19.7443 1.66114 19.3985 1.05826C19.2789 0.849052 19.1364 0.788192 18.9003 0.790094C17.5053 0.800871 16.1132 0.800871 14.7242 0.790094C14.4721 0.790094 14.3206 0.850953 14.1941 1.07537C13.8503 1.67921 13.4657 2.26118 13.1149 2.86122C13.0421 3.00536 12.9257 3.12546 12.7809 3.2061C12.636 3.28675 12.4692 3.32427 12.3018 3.31386C11.2058 3.3053 10.1097 3.31386 9.01956 3.31386C7.72418 3.31386 6.98084 4.01659 6.97984 5.24995C6.97984 7.58606 6.97984 9.92312 6.97984 12.2611C6.97984 13.5154 7.7202 14.2229 9.03451 14.2239C11.6173 14.227 14.2014 14.2264 16.7868 14.222Z" fill="white"/>
<path d="M16.7838 3.36426C17.8337 3.35937 18.8615 3.65177 19.7372 4.20446C20.6129 4.75715 21.2972 5.5453 21.7034 6.46919C22.1096 7.39308 22.2196 8.4112 22.0194 9.39474C21.8191 10.3783 21.3177 11.283 20.5785 11.9946C19.8394 12.7061 18.8957 13.1924 17.8668 13.392C16.838 13.5916 15.7702 13.4954 14.7986 13.1158C13.827 12.7361 12.9953 12.0899 12.4086 11.259C11.8219 10.4281 11.5066 9.44984 11.5027 8.44792C11.5013 7.10681 12.0559 5.81963 13.0452 4.86724C14.0346 3.91484 15.3786 3.37455 16.7838 3.36426ZM16.9164 4.14877C14.501 4.05368 12.4214 5.92415 12.3228 8.2777C12.2241 10.6312 14.1692 12.6101 16.6802 12.7081C19.0846 12.8032 21.1801 10.9194 21.2838 8.57439C21.3874 6.2294 19.4274 4.24577 16.9164 4.14877Z" fill="white"/>
<path d="M16.725 5.02362C19.4154 5.04835 21.1303 7.59969 20.0442 9.83342C19.9894 9.94563 19.9665 10.2138 19.7363 10.0312C19.5609 9.89238 19.1006 9.95134 19.3009 9.5044C19.7672 8.45838 19.551 7.34579 18.7518 6.57744C18.3612 6.19849 17.8583 5.94292 17.3108 5.84516C16.7633 5.74739 16.1975 5.81213 15.6897 6.03066C15.1915 6.23986 15.2523 5.78342 15.1078 5.6075C14.9255 5.38498 15.2244 5.37642 15.334 5.32222C15.7662 5.11845 16.2431 5.01608 16.725 5.02362Z" fill="white"/>
<path d="M16.5646 11.8304C14.1971 11.8104 12.4722 9.27713 13.5484 7.03674C13.5982 6.93119 13.6112 6.64306 13.8403 6.80947C14.0257 6.94355 14.5119 6.87984 14.2937 7.36006C14.0635 7.84399 13.9943 8.38364 14.0953 8.90629C14.1963 9.42894 14.4627 9.90949 14.8587 10.2832C15.6658 11.0506 16.8337 11.2655 17.9228 10.8157C18.4011 10.6179 18.3333 11.0573 18.4818 11.2218C18.6731 11.4348 18.4051 11.4652 18.2825 11.5223C17.8142 11.7391 17.3169 11.8313 16.5646 11.8304Z" fill="white"/>
</svg>
