<svg width="20" height="20" viewBox="0 0 20 20" fill="none" xmlns="http://www.w3.org/2000/svg">
<path d="M6.99988 9.50818C6.99988 10.0605 6.55216 10.5082 5.99988 10.5082C5.44759 10.5082 4.99988 10.0605 4.99988 9.50818C4.99988 8.95589 5.44759 8.50818 5.99988 8.50818C6.55216 8.50818 6.99988 8.95589 6.99988 9.50818Z" fill="white"/>
<path d="M13.9999 10.5082C14.5522 10.5082 14.9999 10.0605 14.9999 9.50818C14.9999 8.95589 14.5522 8.50818 13.9999 8.50818C13.4476 8.50818 12.9999 8.95589 12.9999 9.50818C12.9999 10.0605 13.4476 10.5082 13.9999 10.5082Z" fill="white"/>
<path fill-rule="evenodd" clip-rule="evenodd" d="M5.25038 5.53581C5.25005 5.52664 5.24988 5.51743 5.24988 5.50818C5.24988 2.88483 7.37653 0.758179 9.99988 0.758179C12.6232 0.758179 14.7499 2.88483 14.7499 5.50818C14.7499 5.51743 14.7497 5.52664 14.7494 5.53581C16.4962 5.7418 17.9283 7.07888 18.2236 8.85058L19.2236 14.8506C19.6299 17.2887 17.7498 19.5082 15.278 19.5082H4.72169C2.24994 19.5082 0.369763 17.2887 0.776117 14.8506L1.77612 8.85058C2.0714 7.07886 3.50354 5.74178 5.25038 5.53581ZM6.74988 5.50818C6.74988 3.71325 8.20495 2.25818 9.99988 2.25818C11.7948 2.25818 13.2499 3.71325 13.2499 5.50818H6.74988ZM2.25571 15.0972L3.25571 9.09718C3.45662 7.89171 4.49959 7.00818 5.72169 7.00818H14.278C15.5001 7.00818 16.5431 7.89171 16.744 9.09718L17.744 15.0972C17.998 16.621 16.8229 18.0082 15.278 18.0082H4.72169C3.17684 18.0082 2.00174 16.621 2.25571 15.0972Z" fill="white"/>
</svg>
