<svg width="19" height="20" viewBox="0 0 19 20" fill="none" xmlns="http://www.w3.org/2000/svg">
<path fill-rule="evenodd" clip-rule="evenodd" d="M13.0455 14.8663C11.7008 15.8913 10.0216 16.5 8.2002 16.5C3.78192 16.5 0.200195 12.9183 0.200195 8.5C0.200195 4.08172 3.78192 0.5 8.2002 0.5C12.6185 0.5 16.2002 4.08172 16.2002 8.5C16.2002 10.5713 15.413 12.4587 14.1215 13.8794C14.1481 13.8975 14.1738 13.9175 14.1985 13.9394L18.6985 17.9394C19.0081 18.2146 19.0359 18.6887 18.7608 18.9983C18.4856 19.3079 18.0115 19.3357 17.7019 19.0606L13.2019 15.0606C13.1375 15.0033 13.0853 14.9375 13.0455 14.8663ZM14.7002 8.5C14.7002 12.0899 11.79 15 8.2002 15C4.61034 15 1.7002 12.0899 1.7002 8.5C1.7002 4.91015 4.61034 2 8.2002 2C11.79 2 14.7002 4.91015 14.7002 8.5Z" fill="white"/>
</svg>
