<svg width="21" height="17" viewBox="0 0 21 17" fill="none" xmlns="http://www.w3.org/2000/svg">
<path d="M0.650146 1.5C0.650146 1.08579 0.985933 0.75 1.40015 0.75H19.4001C19.8144 0.75 20.1501 1.08579 20.1501 1.5C20.1501 1.91421 19.8144 2.25 19.4001 2.25H1.40015C0.985933 2.25 0.650146 1.91421 0.650146 1.5Z" fill="white"/>
<path d="M0.650146 8.5C0.650146 8.08579 0.985933 7.75 1.40015 7.75H19.4001C19.8144 7.75 20.1501 8.08579 20.1501 8.5C20.1501 8.91421 19.8144 9.25 19.4001 9.25H1.40015C0.985933 9.25 0.650146 8.91421 0.650146 8.5Z" fill="white"/>
<path d="M1.40015 14.75C0.985933 14.75 0.650146 15.0858 0.650146 15.5C0.650146 15.9142 0.985933 16.25 1.40015 16.25H19.4001C19.8144 16.25 20.1501 15.9142 20.1501 15.5C20.1501 15.0858 19.8144 14.75 19.4001 14.75H1.40015Z" fill="white"/>
</svg>
