<svg width="22" height="25" viewBox="0 0 22 25" fill="none" xmlns="http://www.w3.org/2000/svg">
<path fill-rule="evenodd" clip-rule="evenodd" d="M9.16068 1.51927C5.23373 2.48708 2.32146 6.03289 2.32146 10.2586V11.8832C2.32146 14.0896 1.63455 16.8535 0.970789 19.0092C0.449086 20.7036 1.68543 22.5082 3.45829 22.5082H8.50003C8.50003 22.8365 8.56469 23.1616 8.69033 23.4649C8.81596 23.7682 9.00011 24.0438 9.23226 24.2759C9.46441 24.5081 9.74 24.6922 10.0433 24.8179C10.3466 24.9435 10.6717 25.0082 11 25.0082C11.3283 25.0082 11.6534 24.9435 11.9567 24.8179C12.2601 24.6922 12.5356 24.5081 12.7678 24.2759C12.9999 24.0438 13.1841 23.7682 13.3097 23.4649C13.4354 23.1616 13.5 22.8365 13.5 22.5082H18.8868C20.5624 22.5082 21.7793 20.8881 21.3964 19.2569C20.8803 17.0584 20.3215 14.1533 20.3215 11.8832V10.2586C20.3215 5.7938 17.0703 2.08801 12.8063 1.38009C12.786 1.30733 12.7613 1.23572 12.7323 1.16565C12.6381 0.938162 12.5 0.731463 12.3259 0.557354C12.1517 0.383244 11.945 0.245132 11.7176 0.150904C11.4901 0.0566768 11.2463 0.00817871 11 0.00817871C10.7538 0.00817871 10.51 0.0566771 10.2825 0.150905C10.055 0.245132 9.84831 0.383244 9.6742 0.557354C9.50009 0.731463 9.36198 0.938162 9.26775 1.16565C9.22039 1.27998 9.18459 1.39845 9.16068 1.51927ZM4.19646 10.2586V11.8832C4.19646 14.3883 3.43437 17.3798 2.76277 19.561C2.68369 19.8178 2.73333 20.0955 2.88859 20.3166C3.03932 20.5313 3.24328 20.6332 3.45829 20.6332H18.8868C19.2853 20.6332 19.6935 20.2074 19.571 19.6853C19.0508 17.4691 18.4465 14.3847 18.4465 11.8832V10.2586C18.4465 6.32345 15.2564 3.13318 11.3215 3.13318C7.38654 3.13318 4.19646 6.32346 4.19646 10.2586Z" fill="white"/>
</svg>
