<svg width="18" height="18" viewBox="0 0 18 18" fill="none" xmlns="http://www.w3.org/2000/svg">
<path fill-rule="evenodd" clip-rule="evenodd" d="M9.25454 1.59878C9.17498 1.50803 9.02351 1.50803 8.94395 1.59878L8.459 2.15195C8.01849 2.65443 7.30143 2.81104 6.69091 2.54919L6.00847 2.2565C5.88251 2.20248 5.75779 2.2787 5.73142 2.37571L5.0881 2.20082L5.73142 2.37571L5.54001 3.0798C5.3633 3.72979 4.77853 4.17592 4.11458 4.19888L3.36982 4.22464C3.23217 4.2294 3.16474 4.34448 3.18227 4.43403L3.3223 5.14958C3.45221 5.81338 3.12063 6.47188 2.52605 6.77758L2.22122 6.18468L2.52605 6.77758L1.86648 7.11669C1.75844 7.17223 1.73999 7.29256 1.80068 7.37261L2.24443 7.9579C2.65168 8.49506 2.65168 9.23305 2.24443 9.77021L1.85577 9.47554L2.24443 9.77021L1.80068 10.3555C1.73999 10.4356 1.75844 10.5559 1.86648 10.6114L1.56165 11.2043L1.86648 10.6114L2.52605 10.9505L2.22122 11.5434L2.52605 10.9505C3.12063 11.2562 3.45221 11.9147 3.3223 12.5785L3.18227 13.2941C3.16474 13.3836 3.23217 13.4987 3.36982 13.5035L4.11458 13.5292C4.77853 13.5522 5.3633 13.9983 5.54001 14.6483L5.73142 15.3524C5.75779 15.4494 5.88251 15.5256 6.00847 15.4716L6.69091 15.1789C7.30143 14.9171 8.01848 15.0737 8.459 15.5762L8.94395 16.1293C9.02351 16.2201 9.17498 16.2201 9.25454 16.1293L9.73949 15.5762C10.18 15.0737 10.8971 14.9171 11.5076 15.1789L12.19 15.4716C12.316 15.5256 12.4407 15.4494 12.4671 15.3524L12.6585 14.6483C12.8352 13.9983 13.42 13.5522 14.0839 13.5292L14.8287 13.5035C14.9663 13.4987 15.0337 13.3836 15.0162 13.2941L14.8762 12.5785C14.7463 11.9147 15.0779 11.2562 15.6724 10.9505L16.332 10.6114C16.4401 10.5559 16.4585 10.4355 16.3978 10.3555L15.9541 9.77021C15.5468 9.23305 15.5468 8.49506 15.9541 7.9579L16.3978 7.37261C16.4585 7.29256 16.4401 7.17223 16.332 7.11669L15.6724 6.77758C15.0779 6.47188 14.7463 5.81338 14.8762 5.14959L15.0162 4.43403C15.0337 4.34448 14.9663 4.2294 14.8287 4.22464L14.0839 4.19888C13.42 4.17592 12.8352 3.72979 12.6585 3.0798L12.4671 2.37571C12.4407 2.2787 12.316 2.20248 12.19 2.2565L11.5076 2.54919C10.8971 2.81104 10.18 2.65444 9.73949 2.15196L9.25454 1.59878ZM10.2571 0.719826L9.75584 1.1593L10.2571 0.719827L10.7421 1.273C10.7971 1.3357 10.8953 1.36101 10.982 1.32381L11.6645 1.03112C12.5098 0.668552 13.5076 1.1208 13.7537 2.02593L13.9451 2.73002C13.964 2.7994 14.033 2.86299 14.13 2.86635L14.8748 2.89211C15.7971 2.92401 16.5065 3.7612 16.3247 4.69011L16.1847 5.40566C16.1715 5.47295 16.2028 5.55101 16.2821 5.59179L16.9417 5.9309C17.7724 6.35801 18.0312 7.42515 17.4603 8.17815L17.0166 8.76344C16.9704 8.82429 16.9704 8.90383 17.0166 8.96467L17.4603 9.54996C18.0312 10.303 17.7724 11.3701 16.9417 11.7972L16.2821 12.1363C16.2028 12.1771 16.1715 12.2552 16.1847 12.3224L16.3247 13.038C16.5065 13.9669 15.7971 14.8041 14.8748 14.836L14.13 14.8618C14.033 14.8651 13.964 14.9287 13.9451 14.9981L13.7537 15.7022C13.5076 16.6073 12.5098 17.0596 11.6645 16.697L10.982 16.4043L11.2147 15.8619L10.982 16.4043C10.8953 16.3671 10.7971 16.3924 10.7421 16.4551L10.2571 17.0083C9.64647 17.7049 8.55203 17.7049 7.94135 17.0083L7.45639 16.4551C7.40143 16.3924 7.3032 16.3671 7.21646 16.4043L6.53403 16.697C5.68867 17.0596 4.69085 16.6073 4.44479 15.7022L4.25337 14.9981C4.23451 14.9287 4.16547 14.8651 4.06849 14.8618L3.32373 14.836C2.40135 14.8041 1.69197 13.9669 1.87376 13.038L2.01379 12.3224C2.02696 12.2552 1.99571 12.1771 1.91639 12.1363L1.25682 11.7972C0.42608 11.3701 0.167292 10.303 0.738191 9.54996L1.14103 9.85538L0.738192 9.54996L1.18194 8.96467C1.22807 8.90382 1.22807 8.82429 1.18194 8.76344L0.738192 8.17815C0.167292 7.42515 0.426081 6.35801 1.25682 5.9309L1.91639 5.59179C1.99571 5.55101 2.02696 5.47295 2.01379 5.40566L1.87376 4.69011C1.69197 3.7612 2.40135 2.92401 3.32373 2.89211L4.06849 2.86635C4.16547 2.86299 4.23451 2.7994 4.25337 2.73002L4.792 2.87645L4.25337 2.73002L4.44479 2.02593C4.69085 1.1208 5.68867 0.668553 6.53403 1.03112L7.21646 1.32381L6.95369 1.9365L7.21646 1.32381C7.30319 1.36101 7.40143 1.3357 7.4564 1.273L7.94135 0.719826C8.55203 0.0232406 9.64647 0.0232425 10.2571 0.719826ZM11.6598 6.27392C11.9231 6.01653 12.3452 6.02131 12.6026 6.2846C12.8599 6.54788 12.8552 6.96996 12.5919 7.22734L8.26817 11.4542C8.0091 11.7075 7.59517 11.7075 7.3361 11.4542L5.60662 9.76346C5.34333 9.50607 5.33855 9.08399 5.59594 8.82071C5.85332 8.55743 6.2754 8.55265 6.53868 8.81003L7.80214 10.0452L11.6598 6.27392Z" fill="white"/>
</svg>
