<svg width="32" height="12" viewBox="0 0 32 12" fill="none" xmlns="http://www.w3.org/2000/svg">
<path d="M16.5496 4.12417C16.5314 5.56367 17.8325 6.36692 18.8126 6.84455C19.8196 7.33455 20.1579 7.6488 20.1539 8.08705C20.1464 8.75767 19.3506 9.05367 18.606 9.06517C17.3069 9.0853 16.5515 8.71442 15.951 8.43392L15.483 10.6238C16.0855 10.9014 17.2011 11.1435 18.358 11.1542C21.0736 11.1542 22.8503 9.81367 22.8599 7.7353C22.8705 5.09755 19.2114 4.95155 19.2364 3.77255C19.245 3.41505 19.5861 3.03355 20.3336 2.93655C20.7036 2.88755 21.725 2.85005 22.883 3.3833L23.3375 1.26455C22.7148 1.0378 21.9144 0.820675 20.9179 0.820675C18.3619 0.820675 16.5641 2.17942 16.5496 4.12417ZM27.7048 1.00317C27.2089 1.00317 26.791 1.29242 26.6045 1.7363L22.7254 10.9985H25.439L25.979 9.50617H29.295L29.6082 10.9985H32L29.9129 1.00317H27.7048ZM28.0844 3.7033L28.8675 7.45667H26.7227L28.0844 3.7033ZM13.2595 1.0033L11.1205 10.9984H13.7064L15.8444 1.00305H13.2595M9.43412 1.00305L6.74263 7.80642L5.65387 2.0218C5.52612 1.37605 5.02163 1.00317 4.46138 1.00317H0.061625L0 1.29342C0.90325 1.48942 1.9295 1.80555 2.55125 2.1438C2.93175 2.35042 3.04025 2.53105 3.16525 3.02205L5.22738 10.9985H7.96L12.1495 1.00317H9.43412" fill="url(#paint0_linear_105_7858)"/>
<defs>
<linearGradient id="paint0_linear_105_7858" x1="14.7117" y1="11.3615" x2="15.0108" y2="0.748809" gradientUnits="userSpaceOnUse">
<stop stop-color="#222357"/>
<stop offset="1" stop-color="#254AA5"/>
</linearGradient>
</defs>
</svg>
