<svg width="30" height="29" viewBox="0 0 30 29" fill="none" xmlns="http://www.w3.org/2000/svg">
<path d="M1.5 0.875C0.87868 0.875 0.375 1.37868 0.375 2C0.375 2.62132 0.87868 3.125 1.5 3.125C2.72558 3.125 3.78672 3.97622 4.05258 5.17261L4.69747 8.07462C4.70216 8.14511 4.71352 8.21558 4.73174 8.28513L4.81415 8.59969L4.90179 8.99405C4.91902 9.0716 4.94388 9.14549 4.97539 9.2151L7.48816 18.8058C8.3092 21.9396 11.141 24.125 14.3805 24.125H21C21.6213 24.125 22.125 23.6213 22.125 23C22.125 22.3787 21.6213 21.875 21 21.875H14.3805C12.164 21.875 10.2265 20.3797 9.66469 18.2355L7.27773 9.125H22.5471C24.5469 9.125 26.3438 10.3463 27.0799 12.2058C27.3085 12.7835 27.9622 13.0664 28.5399 12.8377C29.1177 12.6091 29.4006 11.9554 29.1719 11.3777C28.0962 8.66002 25.4698 6.875 22.5471 6.875H6.73578L6.249 4.68451C5.75437 2.45866 3.78015 0.875 1.5 0.875Z" fill="white"/>
<path d="M12 27.5C12 28.3284 11.3284 29 10.5 29C9.67157 29 9 28.3284 9 27.5C9 26.6716 9.67157 26 10.5 26C11.3284 26 12 26.6716 12 27.5Z" fill="white"/>
<path d="M24 27.5C24 28.3284 23.3284 29 22.5 29C21.6716 29 21 28.3284 21 27.5C21 26.6716 21.6716 26 22.5 26C23.3284 26 24 26.6716 24 27.5Z" fill="white"/>
<path d="M25.5 14.375C26.1213 14.375 26.625 14.8787 26.625 15.5V17.375H28.5C29.1213 17.375 29.625 17.8787 29.625 18.5C29.625 19.1213 29.1213 19.625 28.5 19.625H26.625V21.5C26.625 22.1213 26.1213 22.625 25.5 22.625C24.8787 22.625 24.375 22.1213 24.375 21.5V19.625H22.5C21.8787 19.625 21.375 19.1213 21.375 18.5C21.375 17.8787 21.8787 17.375 22.5 17.375H24.375V15.5C24.375 14.8787 24.8787 14.375 25.5 14.375Z" fill="white"/>
</svg>
