<svg width="36" height="36" viewBox="0 0 36 36" fill="none" xmlns="http://www.w3.org/2000/svg">
<path fill-rule="evenodd" clip-rule="evenodd" d="M8.02003 6.74178C7.28085 6.3755 6.77644 6.38487 6.4707 6.48983C6.12306 6.60916 5.73423 6.95505 5.47672 7.75211C4.94772 9.38949 5.19786 12.3802 7.00619 15.9969C7.28405 16.5526 7.0588 17.2284 6.50307 17.5062C5.94735 17.7841 5.27159 17.5588 4.99372 17.0031C3.05205 13.1198 2.55219 9.48551 3.33569 7.06039C3.73443 5.82619 4.51747 4.78145 5.74015 4.36173C6.59119 4.06958 7.50488 4.13232 8.42087 4.46859C8.89236 3.8017 9.67838 3.375 10.5478 3.375H25.4521C26.3215 3.375 27.1075 3.8017 27.579 4.46859C28.495 4.13232 29.4087 4.06958 30.2598 4.36173C31.4824 4.78145 32.2655 5.82619 32.6642 7.06039C33.4477 9.48551 32.9479 13.1198 31.0062 17.0031C30.7283 17.5588 30.0526 17.7841 29.4968 17.5062C28.9411 17.2284 28.7159 16.5526 28.9937 15.9969C30.802 12.3802 31.0522 9.38949 30.5232 7.75211C30.2657 6.95505 29.8768 6.60916 29.5292 6.48983C29.2235 6.38487 28.7191 6.3755 27.9799 6.74178C27.7651 9.20338 27.2416 13.3851 25.993 17.1019C25.3136 19.1239 24.3931 21.0912 23.1265 22.5716C21.841 24.0742 20.1485 25.125 18 25.125C15.8514 25.125 14.1589 24.0742 12.8734 22.5716C11.6068 21.0912 10.6863 19.1239 10.0069 17.1019C8.75826 13.3851 8.23477 9.20338 8.02003 6.74178ZM10.2128 5.95021C10.2009 5.79384 10.3203 5.625 10.5478 5.625H25.4521C25.6796 5.625 25.799 5.79384 25.7871 5.95021C25.6138 8.22579 25.1303 12.6047 23.8601 16.3853C23.2239 18.2791 22.4169 19.9401 21.4169 21.1089C20.4359 22.2555 19.3229 22.875 18 22.875C16.677 22.875 15.564 22.2555 14.583 21.1089C13.5831 19.9401 12.776 18.2791 12.1398 16.3853C10.8697 12.6047 10.3861 8.22579 10.2128 5.95021Z" fill="white"/>
<path fill-rule="evenodd" clip-rule="evenodd" d="M21.9007 26.8054C21.1155 25.753 19.8083 25.5795 18.8353 25.7882C18.5719 25.8447 18.2941 25.875 18 25.875C17.7058 25.875 17.428 25.8447 17.1646 25.7882C16.1916 25.5795 14.8844 25.753 14.0992 26.8054L12.8868 28.4302C11.595 30.1615 12.8306 32.625 14.9907 32.625H21.0092C23.1693 32.625 24.4049 30.1615 23.1131 28.4302L21.9007 26.8054ZM19.3071 27.9882C19.5061 27.9455 19.6943 27.9525 19.8384 27.9924C19.9759 28.0305 20.0524 28.0906 20.0974 28.1509L21.3098 29.7757C21.4943 30.0231 21.3178 30.375 21.0092 30.375H14.9907C14.6821 30.375 14.5056 30.0231 14.6902 29.7757L15.9025 28.1509C15.9475 28.0906 16.024 28.0305 16.1615 27.9924C16.3056 27.9525 16.4938 27.9455 16.6928 27.9882C17.1138 28.0785 17.5498 28.125 18 28.125C18.4501 28.125 18.8861 28.0785 19.3071 27.9882Z" fill="white"/>
</svg>
