<svg width="36" height="36" viewBox="0 0 36 36" fill="none" xmlns="http://www.w3.org/2000/svg">
<path fill-rule="evenodd" clip-rule="evenodd" d="M12 3H9C5.68629 3 3 5.68629 3 9V13.5C3 16.8137 5.68629 19.5 9 19.5H12C15.3137 19.5 18 16.8137 18 13.5V9C18 5.68629 15.3137 3 12 3ZM9 5.25H12C14.0711 5.25 15.75 6.92893 15.75 9V13.5C15.75 15.5711 14.0711 17.25 12 17.25H9C6.92893 17.25 5.25 15.5711 5.25 13.5V9C5.25 6.92893 6.92893 5.25 9 5.25Z" fill="white"/>
<path fill-rule="evenodd" clip-rule="evenodd" d="M27 3H25.5C22.1863 3 19.5 5.68629 19.5 9C19.5 12.3137 22.1863 15 25.5 15H27C30.3137 15 33 12.3137 33 9C33 5.68629 30.3137 3 27 3ZM25.5 5.25H27C29.0711 5.25 30.75 6.92893 30.75 9C30.75 11.0711 29.0711 12.75 27 12.75H25.5C23.4289 12.75 21.75 11.0711 21.75 9C21.75 6.92893 23.4289 5.25 25.5 5.25Z" fill="white"/>
<path fill-rule="evenodd" clip-rule="evenodd" d="M24 16.5H27C30.3137 16.5 33 19.1863 33 22.5V27C33 30.3137 30.3137 33 27 33H24C20.6863 33 18 30.3137 18 27V22.5C18 19.1863 20.6863 16.5 24 16.5ZM24 18.75C21.9289 18.75 20.25 20.4289 20.25 22.5V27C20.25 29.0711 21.9289 30.75 24 30.75H27C29.0711 30.75 30.75 29.0711 30.75 27V22.5C30.75 20.4289 29.0711 18.75 27 18.75H24Z" fill="white"/>
<path fill-rule="evenodd" clip-rule="evenodd" d="M10.5 21H9C5.68629 21 3 23.6863 3 27C3 30.3137 5.68629 33 9 33H10.5C13.8137 33 16.5 30.3137 16.5 27C16.5 23.6863 13.8137 21 10.5 21ZM9 23.25H10.5C12.5711 23.25 14.25 24.9289 14.25 27C14.25 29.0711 12.5711 30.75 10.5 30.75H9C6.92893 30.75 5.25 29.0711 5.25 27C5.25 24.9289 6.92893 23.25 9 23.25Z" fill="white"/>
</svg>
