<svg width="36" height="36" viewBox="0 0 36 36" fill="none" xmlns="http://www.w3.org/2000/svg">
<path fill-rule="evenodd" clip-rule="evenodd" d="M8.0616 9.37497C7.67302 8.21258 7.86167 6.76309 8.93558 5.74156C10.0191 4.71086 11.6394 4.5803 12.8628 5.45305L16.9478 8.36736C17.5924 8.82722 18.4076 8.82722 19.0522 8.36736L23.1372 5.45305C24.3606 4.5803 25.9809 4.71086 27.0644 5.74156C28.1383 6.76309 28.327 8.21258 27.9384 9.37497H30C31.4497 9.37497 32.625 10.5502 32.625 12V15C32.625 16.3224 31.6471 17.4164 30.375 17.5984V27C30.375 30.1066 27.8566 32.625 24.75 32.625H11.25C8.1434 32.625 5.625 30.1066 5.625 27V17.5984C4.35289 17.4164 3.375 16.3224 3.375 15V12C3.375 10.5502 4.55025 9.37497 6 9.37497H8.0616ZM10.4863 7.37181C10.8018 7.07168 11.2251 7.04863 11.556 7.2847L14.486 9.37497H11.0739C10.6935 9.37497 10.3583 9.13269 10.1997 8.67386C10.0401 8.21224 10.1324 7.70842 10.4863 7.37181ZM6 11.625C5.79289 11.625 5.625 11.7929 5.625 12V15C5.625 15.2071 5.79289 15.375 6 15.375H30C30.2071 15.375 30.375 15.2071 30.375 15V12C30.375 11.7929 30.2071 11.625 30 11.625H6ZM24.9261 9.37497C25.3065 9.37497 25.6417 9.13269 25.8003 8.67386C25.9599 8.21224 25.8675 7.70842 25.5137 7.37181C25.1982 7.07168 24.7749 7.04863 24.444 7.28471L21.514 9.37497H24.9261ZM7.875 27V17.625H11.8319V21.3011C11.8319 23.2272 13.8347 24.4772 15.5633 23.6815C16.857 23.086 18.3671 23.086 19.6609 23.6815C21.3894 24.4772 23.3922 23.2272 23.3922 21.3011V17.625H28.125V27C28.125 28.8639 26.614 30.375 24.75 30.375H11.25C9.38604 30.375 7.875 28.8639 7.875 27ZM14.0819 21.3011V17.625H21.1422V21.3011C21.1422 21.563 20.8607 21.7569 20.6017 21.6377C18.7108 20.7673 16.5133 20.7673 14.6225 21.6377C14.3634 21.7569 14.0819 21.563 14.0819 21.3011Z" fill="white"/>
</svg>
