<svg width="30" height="30" viewBox="0 0 30 30" fill="none" xmlns="http://www.w3.org/2000/svg">
<path fill-rule="evenodd" clip-rule="evenodd" d="M16.6645 0.261785C15.5624 0.0781029 14.4375 0.0781029 13.3354 0.261785L10.4069 0.74988H8.40831C7.59393 0.74988 6.79778 0.990937 6.12017 1.44267L3.492 3.19479C2.51553 3.84577 1.86257 4.88185 1.6966 6.04363L0.57937 13.8642C0.400119 15.119 0.957308 16.3652 2.01193 17.0683C2.25161 17.228 2.50741 17.3534 2.77242 17.444L3.50928 23.7074C3.93143 27.2956 6.97249 29.9999 10.5855 29.9999H20.1645C23.7775 29.9999 26.8185 27.2956 27.2407 23.7074L28.0247 17.0435C29.0555 16.3362 29.5978 15.1044 29.4206 13.8642L28.3034 6.04363C28.1374 4.88185 27.4844 3.84577 26.508 3.19479L23.8798 1.44267C23.2022 0.990936 22.406 0.74988 21.5917 0.74988H19.5931L16.6645 0.261785ZM7.36825 3.31479C7.67625 3.10945 8.03814 2.99988 8.40831 2.99988H9.2256L7.95344 13.1772L4.3543 15.2338C4.01184 15.4295 3.5882 15.4149 3.26001 15.1961C2.92633 14.9737 2.75004 14.5794 2.80676 14.1824L3.92398 6.36183C3.99942 5.83375 4.29623 5.3628 4.74008 5.0669L7.36825 3.31479ZM5.47061 17.1874L9.03539 15.1504L10.4719 15.8686C13.3224 17.2939 16.6776 17.2939 19.528 15.8686L20.9646 15.1504L24.5294 17.1874C24.8958 17.3968 25.2916 17.53 25.6951 17.5878L25.0061 23.4445C24.7173 25.8996 22.6365 27.7499 20.1645 27.7499H19.125V24.3749C19.125 22.0967 17.2782 20.2499 15 20.2499C12.7218 20.2499 10.875 22.0967 10.875 24.3749V27.7499H10.5855C8.11344 27.7499 6.03271 25.8996 5.74387 23.4445L5.03236 17.3966C5.18202 17.3383 5.32853 17.2686 5.47061 17.1874ZM25.6457 15.2338L22.0465 13.1772L20.7744 2.99988H21.5917C21.9618 2.99988 22.3237 3.10945 22.6317 3.31479L25.2599 5.0669C25.7037 5.3628 26.0005 5.83375 26.076 6.36183L27.1932 14.1824C27.2499 14.5794 27.0736 14.9737 26.74 15.1961C26.4118 15.4149 25.9881 15.4295 25.6457 15.2338ZM16.2946 2.48117L18.4877 2.84668L19.7849 13.2246L18.5218 13.8562C16.3048 14.9647 13.6952 14.9647 11.4782 13.8562L10.215 13.2246L11.5123 2.84668L13.7053 2.48117C14.5625 2.33831 15.4374 2.33831 16.2946 2.48117ZM15 22.4999C16.0355 22.4999 16.875 23.3393 16.875 24.3749V27.7499H13.125V24.3749C13.125 23.3393 13.9644 22.4999 15 22.4999Z" fill="white"/>
</svg>
