<svg width="21" height="20" viewBox="0 0 21 20" fill="none" xmlns="http://www.w3.org/2000/svg">
<path d="M11.35 10.5001C11.35 10.0858 11.0142 9.75006 10.6 9.75006C10.1858 9.75006 9.84998 10.0858 9.84998 10.5001V14.5001C9.84998 14.9143 10.1858 15.2501 10.6 15.2501C11.0142 15.2501 11.35 14.9143 11.35 14.5001V10.5001Z" fill="white"/>
<path fill-rule="evenodd" clip-rule="evenodd" d="M2.43259 6.03396L8.10118 1.49908C9.56206 0.330383 11.6379 0.330384 13.0987 1.49908L18.7673 6.03396C19.8989 6.9392 20.4524 8.38565 20.2141 9.81503L19.157 16.1577C18.8356 18.0864 17.1668 19.5001 15.2115 19.5001H5.98847C4.03311 19.5001 2.36435 18.0864 2.04289 16.1577L0.985789 9.81503C0.747559 8.38565 1.30103 6.9392 2.43259 6.03396ZM3.36963 7.20526L9.03822 2.67039C9.95127 1.93995 11.2487 1.93995 12.1617 2.67039L17.8303 7.20526C18.5375 7.77104 18.8834 8.67507 18.7345 9.56843L17.6774 15.9111C17.4765 17.1165 16.4335 18.0001 15.2115 18.0001H5.98847C4.76637 18.0001 3.7234 17.1165 3.52248 15.9111L2.46538 9.56843C2.31649 8.67507 2.66241 7.77104 3.36963 7.20526Z" fill="white"/>
</svg>
