<svg width="21" height="19" viewBox="0 0 21 19" fill="none" xmlns="http://www.w3.org/2000/svg">
<path fill-rule="evenodd" clip-rule="evenodd" d="M15.3 5C15.3 7.48528 13.2853 9.5 10.8 9.5C8.31472 9.5 6.30001 7.48528 6.30001 5C6.30001 2.51472 8.31472 0.5 10.8 0.5C13.2853 0.5 15.3 2.51472 15.3 5ZM13.8 5C13.8 6.65685 12.4569 8 10.8 8C9.14315 8 7.80001 6.65685 7.80001 5C7.80001 3.34315 9.14315 2 10.8 2C12.4569 2 13.8 3.34315 13.8 5Z" fill="white"/>
<path fill-rule="evenodd" clip-rule="evenodd" d="M18 14.45C18 16.6867 14.7765 18.5 10.8 18.5C6.82356 18.5 3.60001 16.6867 3.60001 14.45C3.60001 12.2132 6.82356 10.4 10.8 10.4C14.7765 10.4 18 12.2132 18 14.45ZM16.5 14.45C16.5 14.7858 16.2422 15.3953 15.1558 16.0064C14.1164 16.5911 12.5794 17 10.8 17C9.02061 17 7.48365 16.5911 6.44423 16.0064C5.35779 15.3953 5.10001 14.7858 5.10001 14.45C5.10001 14.1142 5.35779 13.5047 6.44423 12.8936C7.48365 12.3089 9.02061 11.9 10.8 11.9C12.5794 11.9 14.1164 12.3089 15.1558 12.8936C16.2422 13.5047 16.5 14.1142 16.5 14.45Z" fill="white"/>
<path d="M17.3 4.99999C17.3 4.55949 17.1576 4.15225 16.9163 3.8218C16.6942 3.51767 16.3884 3.27859 16.0328 3.13848L16.0074 3.1282C15.9621 3.10939 15.9174 3.08822 15.8739 3.06483C15.8279 3.04013 15.7832 3.01296 15.7404 2.98345C15.4878 2.80946 15.3 2.55452 15.3 2.24999C15.3 1.83577 15.6397 1.49164 16.0446 1.57935C17.2433 1.83905 18.2132 2.71287 18.6084 3.85494C18.7326 4.21372 18.8 4.59898 18.8 4.99999C18.8 5.401 18.7326 5.78625 18.6084 6.14503C18.2132 7.28711 17.2433 8.16093 16.0446 8.42063C15.6397 8.50833 15.3 8.1642 15.3 7.74999C15.3 7.44545 15.4878 7.19052 15.7404 7.01652C15.7832 6.98702 15.8279 6.95984 15.8739 6.93514C15.9174 6.91175 15.9621 6.89058 16.0074 6.87177L16.0328 6.8615C16.3884 6.72139 16.6942 6.48231 16.9163 6.17818C17.1576 5.84773 17.3 5.44049 17.3 4.99999Z" fill="white"/>
<path d="M19.3 14C19.3 14.0872 19.2542 14.2843 19.0246 14.5373C18.94 14.6306 18.8303 14.7315 18.6888 14.8373C18.6628 14.8567 18.6378 14.8772 18.6138 14.8987C18.5892 14.9207 18.5657 14.9438 18.5435 14.9679C18.3947 15.1285 18.3 15.3327 18.3 15.554C18.3 16.1262 18.8873 16.5129 19.3631 16.195C19.4401 16.1437 19.5143 16.0911 19.5858 16.0374L19.6145 16.0157C19.8302 15.8511 20.0201 15.6761 20.1812 15.4924C20.5781 15.0397 20.8 14.5338 20.8 14C20.8 13.4662 20.5781 12.9603 20.1812 12.5076C20.0201 12.3239 19.8302 12.1489 19.6145 11.9843L19.5858 11.9626C19.5143 11.9089 19.4401 11.8563 19.3631 11.805C18.8873 11.4871 18.3 11.8738 18.3 12.446C18.3 12.6673 18.3947 12.8715 18.5435 13.0321C18.5657 13.0562 18.5892 13.0793 18.6138 13.1013C18.6378 13.1228 18.6628 13.1433 18.6888 13.1627C18.8303 13.2685 18.94 13.3694 19.0246 13.4627C19.2542 13.7157 19.3 13.9128 19.3 14Z" fill="white"/>
<path d="M4.29996 4.99984C4.29996 4.55933 4.44237 4.15209 4.68366 3.82164C4.90573 3.51752 5.21156 3.27843 5.5672 3.13833L5.5926 3.12805C5.6379 3.10924 5.68257 3.08807 5.72611 3.06468C5.77207 3.03998 5.81677 3.0128 5.8596 2.9833C6.11219 2.80931 6.29996 2.55437 6.29996 2.24984C6.29996 1.83562 5.96023 1.49149 5.55541 1.57919C4.35667 1.83889 3.38676 2.71271 2.99155 3.85479C2.8674 4.21357 2.79996 4.59883 2.79996 4.99984C2.79996 5.40084 2.8674 5.7861 2.99155 6.14488C3.38676 7.28696 4.35667 8.16078 5.55541 8.42048C5.96023 8.50818 6.29996 8.16405 6.29996 7.74984C6.29996 7.4453 6.11219 7.19036 5.8596 7.01637C5.81677 6.98687 5.77207 6.95969 5.7261 6.93499C5.68257 6.9116 5.63789 6.89043 5.59259 6.87162L5.5672 6.86134C5.21156 6.72124 4.90573 6.48215 4.68366 6.17803C4.44237 5.84758 4.29996 5.44034 4.29996 4.99984Z" fill="white"/>
<path d="M2.29996 13.9998C2.29996 14.087 2.34576 14.2841 2.57537 14.5372C2.66002 14.6305 2.76967 14.7314 2.91122 14.8372C2.93716 14.8566 2.9622 14.8771 2.98621 14.8986C3.01076 14.9206 3.03424 14.9437 3.05651 14.9677C3.20527 15.1283 3.29996 15.3326 3.29996 15.5538C3.29996 16.1261 2.71268 16.5127 2.23683 16.1949C2.15992 16.1435 2.08566 16.0909 2.01415 16.0372L1.98545 16.0155C1.76981 15.851 1.57986 15.676 1.41875 15.4922C1.02188 15.0395 0.799957 14.5336 0.799957 13.9998C0.799957 13.466 1.02188 12.9602 1.41876 12.5075C1.57987 12.3237 1.76982 12.1487 1.98545 11.9842L2.01415 11.9624C2.08566 11.9088 2.15992 11.8562 2.23683 11.8048C2.71268 11.487 3.29996 11.8736 3.29996 12.4459C3.29996 12.6671 3.20527 12.8714 3.05651 13.032C3.03424 13.056 3.01076 13.0791 2.98621 13.1011C2.9622 13.1226 2.93716 13.1431 2.91122 13.1625C2.76967 13.2683 2.66002 13.3692 2.57537 13.4625C2.34576 13.7156 2.29996 13.9127 2.29996 13.9998Z" fill="white"/>
</svg>
