<svg width="20" height="21" viewBox="0 0 20 21" fill="none" xmlns="http://www.w3.org/2000/svg">
<path fill-rule="evenodd" clip-rule="evenodd" d="M6 0.5H4C1.79086 0.5 0 2.29086 0 4.5V7.5C0 9.70914 1.79086 11.5 4 11.5H6C8.20914 11.5 10 9.70914 10 7.5V4.5C10 2.29086 8.20914 0.5 6 0.5ZM4 2H6C7.38071 2 8.5 3.11929 8.5 4.5V7.5C8.5 8.88071 7.38071 10 6 10H4C2.61929 10 1.5 8.88071 1.5 7.5V4.5C1.5 3.11929 2.61929 2 4 2Z" fill="white"/>
<path fill-rule="evenodd" clip-rule="evenodd" d="M16 0.5H15C12.7909 0.5 11 2.29086 11 4.5C11 6.70914 12.7909 8.5 15 8.5H16C18.2091 8.5 20 6.70914 20 4.5C20 2.29086 18.2091 0.5 16 0.5ZM15 2H16C17.3807 2 18.5 3.11929 18.5 4.5C18.5 5.88071 17.3807 7 16 7H15C13.6193 7 12.5 5.88071 12.5 4.5C12.5 3.11929 13.6193 2 15 2Z" fill="white"/>
<path fill-rule="evenodd" clip-rule="evenodd" d="M14 9.5H16C18.2091 9.5 20 11.2909 20 13.5V16.5C20 18.7091 18.2091 20.5 16 20.5H14C11.7909 20.5 10 18.7091 10 16.5V13.5C10 11.2909 11.7909 9.5 14 9.5ZM14 11C12.6193 11 11.5 12.1193 11.5 13.5V16.5C11.5 17.8807 12.6193 19 14 19H16C17.3807 19 18.5 17.8807 18.5 16.5V13.5C18.5 12.1193 17.3807 11 16 11H14Z" fill="white"/>
<path fill-rule="evenodd" clip-rule="evenodd" d="M5 12.5H4C1.79086 12.5 0 14.2909 0 16.5C0 18.7091 1.79086 20.5 4 20.5H5C7.20914 20.5 9 18.7091 9 16.5C9 14.2909 7.20914 12.5 5 12.5ZM4 14H5C6.38071 14 7.5 15.1193 7.5 16.5C7.5 17.8807 6.38071 19 5 19H4C2.61929 19 1.5 17.8807 1.5 16.5C1.5 15.1193 2.61929 14 4 14Z" fill="white"/>
</svg>
