<svg width="20" height="20" viewBox="0 0 20 20" fill="none" xmlns="http://www.w3.org/2000/svg">
<path fill-rule="evenodd" clip-rule="evenodd" d="M3.57435 3.75006C3.3153 2.97514 3.44106 2.00881 4.15701 1.32779C4.87937 0.640657 5.95957 0.553612 6.77514 1.13545L9.49848 3.07832C9.9282 3.38489 10.4717 3.38489 10.9014 3.07832L13.6248 1.13545C14.4403 0.553614 15.5205 0.640656 16.2429 1.32779C16.9588 2.00881 17.0846 2.97514 16.8256 3.75006H18.2C19.1664 3.75006 19.95 4.53356 19.95 5.50006V7.50006C19.95 8.38168 19.298 9.11103 18.45 9.23234V15.5001C18.45 17.5711 16.771 19.2501 14.7 19.2501H5.69995C3.62888 19.2501 1.94995 17.5711 1.94995 15.5001V9.23234C1.10188 9.11103 0.449951 8.38168 0.449951 7.50006V5.50006C0.449951 4.53356 1.23345 3.75006 2.19995 3.75006H3.57435ZM5.19083 2.41462C5.40118 2.21453 5.68338 2.19917 5.90398 2.35655L7.85728 3.75006H5.58252C5.32895 3.75006 5.10546 3.58854 4.99974 3.28266C4.89337 2.97491 4.95492 2.63903 5.19083 2.41462ZM2.19995 5.25006C2.06188 5.25006 1.94995 5.36199 1.94995 5.50006V7.50006C1.94995 7.63813 2.06188 7.75006 2.19995 7.75006H18.2C18.338 7.75006 18.45 7.63813 18.45 7.50006V5.50006C18.45 5.36199 18.338 5.25006 18.2 5.25006H2.19995ZM14.8174 3.75006C15.071 3.75006 15.2944 3.58854 15.4002 3.28266C15.5065 2.97491 15.445 2.63903 15.2091 2.41462C14.9987 2.21454 14.7165 2.19917 14.4959 2.35655L12.5426 3.75006H14.8174ZM3.44995 15.5001V9.25006H6.08788V11.7008C6.08788 12.9849 7.4231 13.8182 8.57547 13.2878C9.43796 12.8908 10.4447 12.8908 11.3072 13.2878C12.4596 13.8182 13.7948 12.9849 13.7948 11.7008V9.25006H16.95V15.5001C16.95 16.7427 15.9426 17.7501 14.7 17.7501H5.69995C4.45731 17.7501 3.44995 16.7427 3.44995 15.5001ZM7.58788 11.7008V9.25006H12.2948V11.7008C12.2948 11.8754 12.1071 12.0047 11.9344 11.9252C10.6738 11.3449 9.20881 11.3449 7.94826 11.9252C7.77557 12.0047 7.58788 11.8754 7.58788 11.7008Z" fill="white"/>
</svg>
