<svg width="21" height="17" viewBox="0 0 21 17" fill="none" xmlns="http://www.w3.org/2000/svg">
<path d="M0.649963 1.5C0.649963 1.08579 0.98575 0.75 1.39996 0.75H19.4C19.8142 0.75 20.15 1.08579 20.15 1.5C20.15 1.91421 19.8142 2.25 19.4 2.25H1.39996C0.98575 2.25 0.649963 1.91421 0.649963 1.5Z" fill="white"/>
<path d="M0.649963 8.5C0.649963 8.08579 0.98575 7.75 1.39996 7.75H19.4C19.8142 7.75 20.15 8.08579 20.15 8.5C20.15 8.91421 19.8142 9.25 19.4 9.25H1.39996C0.98575 9.25 0.649963 8.91421 0.649963 8.5Z" fill="white"/>
<path d="M1.39996 14.75C0.98575 14.75 0.649963 15.0858 0.649963 15.5C0.649963 15.9142 0.98575 16.25 1.39996 16.25H19.4C19.8142 16.25 20.15 15.9142 20.15 15.5C20.15 15.0858 19.8142 14.75 19.4 14.75H1.39996Z" fill="white"/>
</svg>
