<svg width="30" height="31" viewBox="0 0 30 31" fill="none" xmlns="http://www.w3.org/2000/svg">
<path fill-rule="evenodd" clip-rule="evenodd" d="M13.1607 4.51109C9.23373 5.4789 6.32146 9.02471 6.32146 13.2504V14.875C6.32146 17.0814 5.63455 19.8453 4.97079 22.0011C4.44909 23.6954 5.68543 25.5 7.45829 25.5H12.5C12.5 25.8283 12.5647 26.1534 12.6903 26.4567C12.816 26.76 13.0001 27.0356 13.2323 27.2678C13.4644 27.4999 13.74 27.6841 14.0433 27.8097C14.3466 27.9353 14.6717 28 15 28C15.3283 28 15.6534 27.9353 15.9567 27.8097C16.26 27.6841 16.5356 27.4999 16.7678 27.2678C16.9999 27.0356 17.1841 26.76 17.3097 26.4567C17.4354 26.1534 17.5 25.8283 17.5 25.5H22.8868C24.5624 25.5 25.7793 23.8799 25.3964 22.2487C24.8803 20.0502 24.3215 17.1452 24.3215 14.875V13.2504C24.3215 8.78562 21.0703 5.07984 16.8063 4.37192C16.786 4.29916 16.7613 4.22754 16.7323 4.15747C16.6381 3.92998 16.5 3.72328 16.3259 3.54917C16.1517 3.37506 15.945 3.23695 15.7176 3.14273C15.4901 3.0485 15.2463 3 15 3C14.7538 3 14.51 3.0485 14.2825 3.14273C14.055 3.23695 13.8483 3.37506 13.6742 3.54917C13.5001 3.72328 13.362 3.92998 13.2678 4.15747C13.2204 4.27181 13.1846 4.39027 13.1607 4.51109ZM8.19646 13.2504V14.875C8.19646 17.3801 7.43437 20.3716 6.76277 22.5528C6.68369 22.8097 6.73333 23.0873 6.88859 23.3085C7.03932 23.5231 7.24328 23.625 7.45829 23.625H22.8868C23.2853 23.625 23.6935 23.1992 23.571 22.6771C23.0508 20.4609 22.4465 17.3765 22.4465 14.875V13.2504C22.4465 9.31528 19.2564 6.125 15.3215 6.125C11.3865 6.125 8.19646 9.31528 8.19646 13.2504Z" fill="white"/>
</svg>
