<svg width="20" height="21" viewBox="0 0 20 21" fill="none" xmlns="http://www.w3.org/2000/svg">
<path d="M10 2.58089C8.39303 2.58089 6.82214 3.05741 5.486 3.9502C4.14985 4.84298 3.10844 6.11193 2.49348 7.59658C1.87852 9.08123 1.71762 10.7149 2.03112 12.291C2.34463 13.8671 3.11846 15.3148 4.25476 16.4511C5.39106 17.5874 6.8388 18.3613 8.4149 18.6748C9.99099 18.9883 11.6247 18.8274 13.1093 18.2124C14.594 17.5974 15.8629 16.556 16.7557 15.2199C17.6485 13.8837 18.125 12.3129 18.125 10.7059C18.1227 8.5517 17.266 6.4864 15.7427 4.96316C14.2195 3.43992 12.1542 2.58316 10 2.58089ZM10 15.7059C9.81458 15.7059 9.63333 15.6509 9.47916 15.5479C9.32499 15.4449 9.20482 15.2985 9.13387 15.1272C9.06291 14.9558 9.04434 14.7673 9.08052 14.5855C9.11669 14.4036 9.20598 14.2366 9.33709 14.1055C9.4682 13.9744 9.63525 13.8851 9.81711 13.8489C9.99896 13.8127 10.1875 13.8313 10.3588 13.9023C10.5301 13.9732 10.6765 14.0934 10.7795 14.2475C10.8825 14.4017 10.9375 14.583 10.9375 14.7684C10.9375 15.017 10.8387 15.2555 10.6629 15.4313C10.4871 15.6071 10.2486 15.7059 10 15.7059ZM10.625 11.8996V11.9559C10.625 12.1216 10.5592 12.2806 10.4419 12.3978C10.3247 12.515 10.1658 12.5809 10 12.5809C9.83424 12.5809 9.67527 12.515 9.55806 12.3978C9.44085 12.2806 9.375 12.1216 9.375 11.9559V11.3309C9.375 11.1651 9.44085 11.0062 9.55806 10.8889C9.67527 10.7717 9.83424 10.7059 10 10.7059C11.0336 10.7059 11.875 10.0028 11.875 9.14339C11.875 8.28401 11.0336 7.58089 10 7.58089C8.96641 7.58089 8.125 8.28401 8.125 9.14339V9.45589C8.125 9.62165 8.05916 9.78062 7.94195 9.89783C7.82474 10.015 7.66576 10.0809 7.5 10.0809C7.33424 10.0809 7.17527 10.015 7.05806 9.89783C6.94085 9.78062 6.875 9.62165 6.875 9.45589V9.14339C6.875 7.59261 8.27657 6.33089 10 6.33089C11.7234 6.33089 13.125 7.59261 13.125 9.14339C13.125 10.5012 12.05 11.6379 10.625 11.8996Z" fill="white"/>
</svg>
