<svg width="36" height="36" viewBox="0 0 36 36" fill="none" xmlns="http://www.w3.org/2000/svg">
<path fill-rule="evenodd" clip-rule="evenodd" d="M24.75 11.25C24.75 14.9779 21.7279 18 18 18C14.272 18 11.25 14.9779 11.25 11.25C11.25 7.52208 14.272 4.5 18 4.5C21.7279 4.5 24.75 7.52208 24.75 11.25ZM22.5 11.25C22.5 13.7353 20.4852 15.75 18 15.75C15.5147 15.75 13.5 13.7353 13.5 11.25C13.5 8.76472 15.5147 6.75 18 6.75C20.4852 6.75 22.5 8.76472 22.5 11.25Z" fill="white"/>
<path fill-rule="evenodd" clip-rule="evenodd" d="M28.7999 25.425C28.7999 28.7801 23.9646 31.5 18 31.5C12.0353 31.5 7.19995 28.7801 7.19995 25.425C7.19995 22.0699 12.0353 19.35 18 19.35C23.9646 19.35 28.7999 22.0699 28.7999 25.425ZM26.5499 25.425C26.5499 25.9287 26.1633 26.8429 24.5336 27.7596C22.9745 28.6366 20.6691 29.25 18 29.25C15.3308 29.25 13.0254 28.6366 11.4663 27.7596C9.83663 26.8429 9.44995 25.9287 9.44995 25.425C9.44995 24.9213 9.83663 24.007 11.4663 23.0904C13.0254 22.2133 15.3308 21.6 18 21.6C20.6691 21.6 22.9745 22.2133 24.5336 23.0904C26.1633 24.007 26.5499 24.9213 26.5499 25.425Z" fill="white"/>
<path d="M27.75 11.25C27.75 10.5892 27.5364 9.97837 27.1744 9.48269C26.8413 9.0265 26.3826 8.66788 25.8491 8.45772L25.811 8.4423C25.7431 8.41409 25.6761 8.38234 25.6107 8.34725C25.5418 8.3102 25.4748 8.26943 25.4105 8.22518C25.0316 7.96419 24.75 7.58178 24.75 7.12498C24.75 6.50366 25.2596 5.98747 25.8668 6.11902C27.6649 6.50857 29.1198 7.8193 29.7126 9.53241C29.8988 10.0706 30 10.6485 30 11.25C30 11.8515 29.8988 12.4294 29.7126 12.9676C29.1198 14.6807 27.6649 15.9914 25.8668 16.3809C25.2596 16.5125 24.75 15.9963 24.75 15.375C24.75 14.9182 25.0316 14.5358 25.4105 14.2748C25.4748 14.2305 25.5418 14.1898 25.6107 14.1527C25.6761 14.1176 25.7431 14.0859 25.811 14.0577L25.8491 14.0422C26.3826 13.8321 26.8413 13.4735 27.1744 13.0173C27.5364 12.5216 27.75 11.9107 27.75 11.25Z" fill="white"/>
<path d="M30.75 24.75C30.75 24.8808 30.6813 25.1764 30.3369 25.556C30.2099 25.6959 30.0454 25.8473 29.8331 26.006C29.7942 26.0351 29.7566 26.0658 29.7206 26.0981C29.6838 26.1311 29.6485 26.1657 29.6151 26.2018C29.392 26.4427 29.25 26.7491 29.25 27.081C29.25 27.9393 30.1309 28.5193 30.8447 28.0425C30.96 27.9655 31.0714 27.8866 31.1787 27.8061L31.2217 27.7735C31.5452 27.5267 31.8301 27.2642 32.0718 26.9885C32.6671 26.3095 33 25.5507 33 24.75C33 23.9493 32.6671 23.1905 32.0718 22.5114C31.8301 22.2358 31.5452 21.9733 31.2217 21.7265L31.1787 21.6939C31.0714 21.6134 30.96 21.5345 30.8447 21.4575C30.1309 20.9807 29.25 21.5607 29.25 22.419C29.25 22.7509 29.392 23.0573 29.6151 23.2982C29.6485 23.3343 29.6838 23.3689 29.7206 23.4019C29.7566 23.4342 29.7942 23.4649 29.8331 23.494C30.0454 23.6527 30.2099 23.8041 30.3369 23.944C30.6813 24.3236 30.75 24.6192 30.75 24.75Z" fill="white"/>
<path d="M8.24988 11.2498C8.24988 10.589 8.46349 9.97814 8.82543 9.48246C9.15854 9.02628 9.61728 8.66765 10.1507 8.45749L10.1888 8.44208C10.2568 8.41386 10.3238 8.38211 10.3891 8.34702C10.458 8.30997 10.5251 8.26921 10.5893 8.22495C10.9682 7.96396 11.2499 7.58155 11.2499 7.12475C11.2499 6.50343 10.7403 5.98724 10.1331 6.11879C8.33495 6.50834 6.88009 7.81907 6.28727 9.53218C6.10104 10.0704 5.99988 10.6482 5.99988 11.2498C5.99988 11.8513 6.10104 12.4291 6.28727 12.9673C6.88009 14.6804 8.33495 15.9912 10.1331 16.3807C10.7403 16.5123 11.2499 15.9961 11.2499 15.3748C11.2499 14.9179 10.9682 14.5355 10.5893 14.2746C10.5251 14.2303 10.458 14.1895 10.3891 14.1525C10.3238 14.1174 10.2568 14.0856 10.1888 14.0574L10.1507 14.042C9.61728 13.8319 9.15854 13.4732 8.82543 13.017C8.46349 12.5214 8.24988 11.9105 8.24988 11.2498Z" fill="white"/>
<path d="M5.24988 24.7498C5.24988 24.8805 5.31858 25.1762 5.66299 25.5557C5.78998 25.6957 5.95445 25.8471 6.16677 26.0058C6.20568 26.0349 6.24324 26.0656 6.27925 26.0979C6.31608 26.1309 6.35131 26.1655 6.38471 26.2015C6.60785 26.4425 6.74988 26.7488 6.74988 27.0807C6.74988 27.9391 5.86896 28.5191 5.15519 28.0423C5.03983 27.9653 4.92843 27.8864 4.82116 27.8059L4.77811 27.7733C4.45466 27.5265 4.16973 27.264 3.92806 26.9883C3.33276 26.3093 2.99988 25.5505 2.99988 24.7498C2.99988 23.9491 3.33277 23.1902 3.92808 22.5112C4.16975 22.2356 4.45467 21.9731 4.77812 21.7263L4.82116 21.6937C4.92843 21.6131 5.03983 21.5343 5.15519 21.4572C5.86896 20.9805 6.74988 21.5604 6.74988 22.4188C6.74988 22.7507 6.60785 23.057 6.38471 23.298C6.35131 23.3341 6.31609 23.3687 6.27925 23.4017C6.24324 23.4339 6.20568 23.4647 6.16677 23.4938C5.95445 23.6525 5.78998 23.8038 5.66299 23.9438C5.31858 24.3234 5.24988 24.619 5.24988 24.7498Z" fill="white"/>
</svg>
