<svg width="18" height="16" viewBox="0 0 18 16" fill="none" xmlns="http://www.w3.org/2000/svg">
<path fill-rule="evenodd" clip-rule="evenodd" d="M9.41663 0.5C8.72627 0.5 8.16663 1.05964 8.16663 1.75V14.25C8.16663 14.9404 8.72627 15.5 9.41663 15.5H11.0833C11.7736 15.5 12.3333 14.9404 12.3333 14.25V1.75C12.3333 1.05964 11.7736 0.5 11.0833 0.5H9.41663ZM11.0833 1.75L9.41663 1.75V14.25H11.0833V1.75Z" fill="#E6007E"/>
<path fill-rule="evenodd" clip-rule="evenodd" d="M5.4757 0.542903C4.80887 0.364226 4.12344 0.759954 3.94477 1.42679L0.709529 13.5009C0.530852 14.1677 0.92658 14.8531 1.59341 15.0318L3.20329 15.4632C3.87012 15.6418 4.55554 15.2461 4.73422 14.5793L7.96946 2.5052C8.14814 1.83837 7.75241 1.15295 7.08557 0.974268L5.4757 0.542903ZM6.76205 2.18168L5.15217 1.75031L1.91694 13.8244L3.52681 14.2557L6.76205 2.18168Z" fill="#E6007E"/>
<path fill-rule="evenodd" clip-rule="evenodd" d="M13.1666 1.75C13.1666 1.05964 13.7263 0.5 14.4166 0.5H16.0833C16.7736 0.5 17.3333 1.05964 17.3333 1.75V14.25C17.3333 14.9404 16.7736 15.5 16.0833 15.5H14.4166C13.7263 15.5 13.1666 14.9404 13.1666 14.25V1.75ZM14.4166 1.75L16.0833 1.75V14.25H14.4166V1.75Z" fill="#E6007E"/>
</svg>
