<svg width="16" height="17" viewBox="0 0 16 17" fill="none" xmlns="http://www.w3.org/2000/svg">
<path fill-rule="evenodd" clip-rule="evenodd" d="M3.83337 2.125C2.79784 2.125 1.95837 2.96447 1.95837 4V14.1216C1.95837 14.8726 2.27972 15.2563 2.56946 15.3846C2.84751 15.5077 3.31416 15.4906 3.83139 14.9648C4.20405 14.586 4.62307 14.1549 5.0939 13.6645C6.67745 12.0151 9.32263 12.0151 10.9062 13.6645C11.377 14.1549 11.796 14.586 12.1687 14.9648C12.6859 15.4906 13.1526 15.5077 13.4306 15.3846C13.7204 15.2563 14.0417 14.8726 14.0417 14.1216V4C14.0417 2.96447 13.2022 2.125 12.1667 2.125H3.83337ZM0.708374 4C0.708374 2.27411 2.10748 0.875 3.83337 0.875H12.1667C13.8926 0.875 15.2917 2.27411 15.2917 4V14.1216C15.2917 15.229 14.7929 16.1485 13.9367 16.5276C13.0688 16.9118 12.0636 16.6405 11.2776 15.8414C10.901 15.4586 10.4784 15.0239 10.0045 14.5302C8.91288 13.3932 7.08721 13.3932 5.9956 14.5302C5.52164 15.0239 5.09908 15.4586 4.72251 15.8414C3.93646 16.6405 2.93132 16.9119 2.06341 16.5276C1.20717 16.1485 0.708374 15.229 0.708374 14.1216V4Z" fill="#E6007E"/>
</svg>
