<svg width="21" height="17" viewBox="0 0 21 17" fill="none" xmlns="http://www.w3.org/2000/svg">
<path d="M5.72242 4.12422C5.31384 4.05612 4.92742 4.33214 4.85933 4.74071C4.79123 5.14929 5.06724 5.53571 5.47582 5.60381L7.81823 5.99421C8.33526 6.08038 8.86299 6.08038 9.38002 5.99421L11.7224 5.60381C12.131 5.53571 12.407 5.14929 12.3389 4.74071C12.2708 4.33214 11.8844 4.05612 11.4758 4.12422L9.13342 4.51462C8.77966 4.57358 8.41858 4.57358 8.06482 4.51462L5.72242 4.12422Z" fill="white"/>
<path d="M15.8491 8.86401C15.8491 8.4498 16.1849 8.11401 16.5991 8.11401H17.5991C18.0133 8.11401 18.3491 8.4498 18.3491 8.86401C18.3491 9.27823 18.0133 9.61401 17.5991 9.61401H16.5991C16.1849 9.61401 15.8491 9.27823 15.8491 8.86401Z" fill="white"/>
<path fill-rule="evenodd" clip-rule="evenodd" d="M20.5991 12.864C20.5991 15.0732 18.8083 16.864 16.5991 16.864H4.59912C2.38998 16.864 0.599121 15.0732 0.599121 12.864V4.86401C0.599121 2.65487 2.38998 0.864014 4.59912 0.864014H16.5991C18.8083 0.864014 20.5991 2.65487 20.5991 4.86401V12.864ZM4.59912 2.36401H16.5991C17.9798 2.36401 19.0991 3.4833 19.0991 4.86401H16.5991C14.39 4.86401 12.5991 6.65487 12.5991 8.86401C12.5991 11.0732 14.39 12.864 16.5991 12.864L19.0991 12.864C19.0991 14.2447 17.9798 15.364 16.5991 15.364H4.59912C3.21841 15.364 2.09912 14.2447 2.09912 12.864V4.86401C2.09912 3.4833 3.21841 2.36401 4.59912 2.36401ZM19.0991 6.36401H16.5991C15.2184 6.36401 14.0991 7.4833 14.0991 8.86401C14.0991 10.2447 15.2184 11.364 16.5991 11.364H19.0991V6.36401Z" fill="white"/>
</svg>
