<svg width="17" height="18" viewBox="0 0 17 18" fill="none" xmlns="http://www.w3.org/2000/svg">
<path fill-rule="evenodd" clip-rule="evenodd" d="M7.32899 6.89899L12.9874 1.24056C13.7528 0.475151 14.9938 0.47515 15.7592 1.24056C16.5246 2.00598 16.5246 3.24696 15.7592 4.01237L10.1008 9.6708C9.99684 9.77476 9.85584 9.83317 9.70881 9.83317H8.04918C7.92531 9.97148 7.74134 10.0534 7.54172 10.0401C6.61698 9.97847 4.99356 10.257 3.62607 10.8168C2.94596 11.0952 2.37791 11.4239 2.00255 11.7744C1.62762 12.1246 1.51233 12.4272 1.53838 12.6876C1.57502 13.0537 1.70963 13.2493 1.88439 13.3768C2.08452 13.5227 2.40844 13.6292 2.89564 13.6594C3.87845 13.7203 5.232 13.4578 6.73465 13.0735C7.35508 12.9148 8.01262 12.7319 8.66519 12.5503C9.52623 12.3107 10.3788 12.0735 11.1258 11.8977C11.7985 11.7394 12.4383 11.6169 12.9947 11.5735C13.5294 11.5318 14.0876 11.5532 14.5295 11.7742C15.1253 12.0721 15.5256 12.6163 15.5944 13.2848C15.6619 13.9401 15.4042 14.6243 14.8826 15.238C13.8478 16.4554 11.6802 17.5296 8.07301 17.9539C7.73019 17.9942 7.4196 17.749 7.37927 17.4062C7.33894 17.0634 7.58415 16.7528 7.92697 16.7125C11.4032 16.3035 13.1941 15.2944 13.9301 14.4284C14.2939 14.0005 14.3747 13.6431 14.351 13.4129C14.3287 13.196 14.2081 13.011 13.9705 12.8922C13.8456 12.8298 13.5751 12.782 13.0919 12.8197C12.6304 12.8557 12.0631 12.9613 11.4121 13.1145C10.6661 13.29 9.87626 13.5104 9.05237 13.7402C8.40261 13.9215 7.73165 14.1088 7.04436 14.2845C5.54914 14.6669 4.02042 14.9815 2.81832 14.907C2.21305 14.8695 1.61885 14.7302 1.14792 14.3868C0.651612 14.0249 0.362207 13.4877 0.294594 12.8121C0.214874 12.0155 0.619625 11.3556 1.14937 10.8609C1.67868 10.3666 2.39993 9.96801 3.15255 9.65994C4.46523 9.12263 6.02195 8.80188 7.16663 8.78273V7.29099C7.16663 7.14396 7.22503 7.00296 7.32899 6.89899ZM8.41663 8.58317V7.57913L13.8713 2.12445C14.1486 1.84719 14.5981 1.84719 14.8753 2.12445C15.1526 2.40171 15.1526 2.85123 14.8753 3.12849L9.42067 8.58317H8.41663Z" fill="#E6007E"/>
</svg>
