<svg width="14" height="15" viewBox="0 0 14 15" fill="none" xmlns="http://www.w3.org/2000/svg">
<path d="M1 3.60818H2.38434M2.38434 3.60818H13.459M2.38434 3.60818V12.7082C2.38434 13.053 2.53018 13.3836 2.7898 13.6274C3.04941 13.8712 3.40152 14.0082 3.76867 14.0082H10.6903C11.0575 14.0082 11.4096 13.8712 11.6692 13.6274C11.9288 13.3836 12.0747 13.053 12.0747 12.7082V3.60818H2.38434ZM4.46084 3.60818V2.30818C4.46084 1.9634 4.60669 1.63274 4.8663 1.38894C5.12591 1.14514 5.47802 1.00818 5.84517 1.00818H8.61384C8.98099 1.00818 9.3331 1.14514 9.59272 1.38894C9.85233 1.63274 9.99818 1.9634 9.99818 2.30818V3.60818M5.84517 6.85818V10.7582M8.61384 6.85818V10.7582" stroke="#1B1B1B" stroke-width="0.8" stroke-linecap="round" stroke-linejoin="round"/>
</svg>
