<svg width="22" height="23" viewBox="0 0 22 23" fill="none" xmlns="http://www.w3.org/2000/svg">
<path d="M7.49221 10.8333C7.49221 11.4777 6.96987 12 6.32554 12C5.68121 12 5.15887 11.4777 5.15887 10.8333C5.15887 10.189 5.68121 9.66667 6.32554 9.66667C6.96987 9.66667 7.49221 10.189 7.49221 10.8333Z" fill="white"/>
<path d="M15.6589 12C16.3032 12 16.8255 11.4777 16.8255 10.8333C16.8255 10.189 16.3032 9.66667 15.6589 9.66667C15.0145 9.66667 14.4922 10.189 14.4922 10.8333C14.4922 11.4777 15.0145 12 15.6589 12Z" fill="white"/>
<path fill-rule="evenodd" clip-rule="evenodd" d="M5.45112 6.1989C5.45074 6.1882 5.45054 6.17746 5.45054 6.16667C5.45054 3.10609 7.93163 0.625 10.9922 0.625C14.0528 0.625 16.5339 3.10609 16.5339 6.16667C16.5339 6.17746 16.5337 6.18821 16.5333 6.19891C18.5712 6.43923 20.242 7.99915 20.5865 10.0661L21.7532 17.0661C22.2273 19.9106 20.0337 22.5 17.15 22.5H4.83433C1.95061 22.5 -0.242926 19.9106 0.231154 17.0661L1.39782 10.0661C1.74232 7.99913 3.41315 6.4392 5.45112 6.1989ZM7.20054 6.16667C7.20054 4.07259 8.89813 2.375 10.9922 2.375C13.0863 2.375 14.7839 4.07259 14.7839 6.16667H7.20054ZM1.95734 17.3538L3.12401 10.3538C3.35841 8.94745 4.57521 7.91667 6.00099 7.91667H15.9834C17.4091 7.91667 18.6259 8.94745 18.8603 10.3538L20.027 17.3538C20.3233 19.1316 18.9524 20.75 17.15 20.75H4.83433C3.032 20.75 1.66104 19.1316 1.95734 17.3538Z" fill="white"/>
</svg>
