<svg width="18" height="18" viewBox="0 0 18 18" fill="none" xmlns="http://www.w3.org/2000/svg">
<path d="M8.14077 10.5849C8.14077 10.642 8.187 10.6882 8.24404 10.6882H9.32919C9.38623 10.6882 9.43247 10.642 9.43247 10.5849C9.43505 10.3042 9.46738 10.0686 9.52944 9.8779C9.59409 9.6846 9.69236 9.51645 9.82424 9.37345C9.95871 9.23046 10.1307 9.09276 10.3401 8.96036C10.5781 8.81472 10.7836 8.64922 10.9569 8.46386C11.1302 8.2785 11.2633 8.06665 11.3564 7.82833C11.4521 7.59001 11.5 7.31991 11.5 7.01803C11.5 6.57052 11.3939 6.18391 11.1819 5.8582C10.9724 5.52985 10.6789 5.27696 10.3014 5.09954C9.92639 4.92212 9.49194 4.83341 8.99802 4.83341C8.54547 4.83341 8.13172 4.91815 7.75675 5.08763C7.38437 5.2571 7.08439 5.51131 6.85683 5.85026C6.74696 6.01577 6.66238 6.20086 6.60309 6.40552C6.49369 6.78309 6.8241 7.11336 7.2172 7.11336H7.23231C7.59582 7.11336 7.85984 6.80159 8.05931 6.4977C8.16792 6.33352 8.30368 6.21171 8.4666 6.13227C8.6321 6.05018 8.80666 6.00914 8.99026 6.00914C9.18938 6.00914 9.36911 6.05151 9.52944 6.13624C9.69236 6.22098 9.82166 6.34014 9.91734 6.49373C10.013 6.64731 10.0609 6.8287 10.0609 7.0379C10.0609 7.22326 10.0247 7.39141 9.95225 7.54234C9.87984 7.69063 9.78028 7.82568 9.65357 7.94749C9.52944 8.06665 9.3885 8.17655 9.23076 8.27717C9.00061 8.42281 8.80536 8.58302 8.64503 8.75779C8.4847 8.92991 8.36058 9.15764 8.27265 9.44098C8.18731 9.72432 8.14335 10.1056 8.14077 10.5849Z" fill="#E6007E"/>
<path d="M8.21447 12.9125C8.38256 13.082 8.58297 13.1667 8.81571 13.1667C8.97087 13.1667 9.1118 13.1284 9.23852 13.0516C9.36782 12.9721 9.47126 12.8662 9.54884 12.7338C9.629 12.6014 9.66908 12.4544 9.66908 12.2929C9.66908 12.0546 9.58375 11.8507 9.41307 11.6812C9.24498 11.5117 9.04586 11.427 8.81571 11.427C8.58297 11.427 8.38256 11.5117 8.21447 11.6812C8.04638 11.8507 7.96233 12.0546 7.96233 12.2929C7.96233 12.5365 8.04638 12.7431 8.21447 12.9125Z" fill="#E6007E"/>
<path fill-rule="evenodd" clip-rule="evenodd" d="M17.3333 9.00008C17.3333 13.6025 13.6023 17.3334 8.99996 17.3334C4.39759 17.3334 0.666626 13.6025 0.666626 9.00008C0.666626 4.39771 4.39759 0.666748 8.99996 0.666748C13.6023 0.666748 17.3333 4.39771 17.3333 9.00008ZM16.0833 9.00008C16.0833 12.9121 12.912 16.0834 8.99996 16.0834C5.08794 16.0834 1.91663 12.9121 1.91663 9.00008C1.91663 5.08806 5.08794 1.91675 8.99996 1.91675C12.912 1.91675 16.0833 5.08806 16.0833 9.00008Z" fill="#E6007E"/>
</svg>
