<svg width="37" height="38" viewBox="0 0 37 38" fill="none" xmlns="http://www.w3.org/2000/svg">
<path fill-rule="evenodd" clip-rule="evenodd" d="M11.1665 0.666992H7.49984C3.44975 0.666992 0.166504 3.95024 0.166504 8.00033V13.5003C0.166504 17.5504 3.44975 20.8337 7.49984 20.8337H11.1665C15.2166 20.8337 18.4998 17.5504 18.4998 13.5003V8.00033C18.4998 3.95024 15.2166 0.666992 11.1665 0.666992ZM7.49984 3.41699H11.1665C13.6978 3.41699 15.7498 5.46902 15.7498 8.00033V13.5003C15.7498 16.0316 13.6978 18.0837 11.1665 18.0837H7.49984C4.96853 18.0837 2.9165 16.0316 2.9165 13.5003V8.00033C2.9165 5.46902 4.96853 3.41699 7.49984 3.41699Z" fill="white"/>
<path d="M29.0415 2.50033C29.0415 1.74093 28.4259 1.12533 27.6665 1.12533C26.9071 1.12533 26.2915 1.74093 26.2915 2.50033V6.62533H22.1665C21.4071 6.62533 20.7915 7.24093 20.7915 8.00033C20.7915 8.75972 21.4071 9.37533 22.1665 9.37533H26.2915V13.5003C26.2915 14.2597 26.9071 14.8753 27.6665 14.8753C28.4259 14.8753 29.0415 14.2597 29.0415 13.5003V9.37533H33.1665C33.9259 9.37533 34.5415 8.75972 34.5415 8.00033C34.5415 7.24093 33.9259 6.62533 33.1665 6.62533H29.0415V2.50033Z" fill="white"/>
<path fill-rule="evenodd" clip-rule="evenodd" d="M25.8332 17.167H29.4998C33.5499 17.167 36.8332 20.4502 36.8332 24.5003V30.0003C36.8332 34.0504 33.5499 37.3337 29.4998 37.3337H25.8332C21.7831 37.3337 18.4998 34.0504 18.4998 30.0003V24.5003C18.4998 20.4502 21.7831 17.167 25.8332 17.167ZM25.8332 19.917C23.3019 19.917 21.2498 21.969 21.2498 24.5003V30.0003C21.2498 32.5316 23.3019 34.5837 25.8332 34.5837H29.4998C32.0311 34.5837 34.0832 32.5316 34.0832 30.0003V24.5003C34.0832 21.969 32.0311 19.917 29.4998 19.917H25.8332Z" fill="white"/>
<path fill-rule="evenodd" clip-rule="evenodd" d="M10.906 24.4597C9.88319 22.6983 7.26212 22.6791 6.20532 24.4118L0.999717 32.9468C-0.160828 34.8496 1.44076 36.8753 3.33578 36.8753H13.4973C15.3707 36.8753 16.966 34.8961 15.8619 32.9947L10.906 24.4597ZM3.50203 34.1253L8.53366 25.8756L8.54204 25.8753L8.54812 25.8756L13.3384 34.1253H3.50203Z" fill="white"/>
</svg>
