<svg width="37" height="36" viewBox="0 0 37 36" fill="none" xmlns="http://www.w3.org/2000/svg">
<path d="M9.33333 0.125C4.52385 0.125 0.625 4.02385 0.625 8.83333V27.1667C0.625 31.9761 4.52385 35.875 9.33333 35.875H13C16.797 35.875 19.875 32.797 19.875 29C19.875 28.2406 19.2594 27.625 18.5 27.625C17.7406 27.625 17.125 28.2406 17.125 29C17.125 31.2782 15.2782 33.125 13 33.125H9.33333C6.04264 33.125 3.375 30.4574 3.375 27.1667V8.83333C3.375 5.54264 6.04264 2.875 9.33333 2.875H13C15.2782 2.875 17.125 4.72183 17.125 7C17.125 7.75939 17.7406 8.375 18.5 8.375C19.2594 8.375 19.875 7.75939 19.875 7C19.875 3.20304 16.797 0.125 13 0.125H9.33333Z" fill="white"/>
<path d="M32.3056 13.3611C31.7686 12.8241 30.898 12.8241 30.3611 13.3611C29.8241 13.898 29.8241 14.7686 30.3611 15.3056L31.6805 16.625H16.6667C15.9073 16.625 15.2917 17.2406 15.2917 18C15.2917 18.7594 15.9073 19.375 16.6667 19.375H31.6805L30.3611 20.6944C29.8241 21.2314 29.8241 22.102 30.3611 22.6389C30.898 23.1759 31.7686 23.1759 32.3056 22.6389L35.9723 18.9723C36.2301 18.7144 36.375 18.3647 36.375 18C36.375 17.6353 36.2301 17.2856 35.9723 17.0277L32.3056 13.3611Z" fill="white"/>
</svg>
