<svg width="24" height="24" viewBox="0 0 24 24" fill="none" xmlns="http://www.w3.org/2000/svg">
<path fill-rule="evenodd" clip-rule="evenodd" d="M13.2868 0.53708C12.4296 0.394216 11.5547 0.394216 10.6975 0.53708L8.41972 0.916709H6.86528C6.23187 0.916709 5.61264 1.1042 5.08561 1.45555L3.04148 2.8183C2.282 3.32462 1.77414 4.13047 1.64506 5.03407L0.776102 11.1168C0.636684 12.0927 1.07005 13.0619 1.89031 13.6088C2.07674 13.7331 2.27568 13.8305 2.4818 13.901L3.05492 18.7725C3.38326 21.5634 5.74853 23.6667 8.55863 23.6667H16.009C18.8191 23.6667 21.1843 21.5634 21.5127 18.7725L22.1224 13.5895C22.9242 13.0394 23.346 12.0813 23.2082 11.1167L22.3392 5.03407C22.2101 4.13047 21.7023 3.32462 20.9428 2.8183L18.8987 1.45555C18.3716 1.1042 17.7524 0.916709 17.119 0.916709H15.5646L13.2868 0.53708ZM6.05634 2.91163C6.2959 2.75193 6.57737 2.66671 6.86528 2.66671H7.50095L6.51149 10.5824L3.71216 12.182C3.4458 12.3342 3.1163 12.3229 2.86104 12.1527C2.60152 11.9797 2.4644 11.673 2.50851 11.3642L3.37747 5.28156C3.43614 4.87083 3.66699 4.50454 4.01221 4.27439L6.05634 2.91163ZM4.5804 13.7014L7.353 12.1171L8.47033 12.6758C10.6874 13.7843 13.2969 13.7843 15.5139 12.6758L16.6313 12.1171L19.4039 13.7014C19.6889 13.8643 19.9967 13.9679 20.3106 14.0128L19.7747 18.5681C19.55 20.4776 17.9317 21.9167 16.009 21.9167H15.2005V19.2917C15.2005 17.5198 13.764 16.0834 11.9921 16.0834C10.2202 16.0834 8.7838 17.5198 8.7838 19.2917V21.9167H8.55863C6.63593 21.9167 5.01759 20.4776 4.79294 18.5681L4.23954 13.8642C4.35594 13.8188 4.46989 13.7646 4.5804 13.7014ZM20.2721 12.182L17.4728 10.5824L16.4833 2.66671H17.119C17.4069 2.66671 17.6884 2.75193 17.9279 2.91163L19.9721 4.27439C20.3173 4.50454 20.5481 4.87083 20.6068 5.28156L21.4758 11.3642C21.5199 11.673 21.3828 11.9797 21.1232 12.1527C20.868 12.3229 20.5385 12.3342 20.2721 12.182ZM12.9991 2.26327L14.7048 2.54756L15.7138 10.6193L14.7313 11.1105C13.007 11.9727 10.9773 11.9727 9.25295 11.1105L8.2705 10.6193L9.27946 2.54756L10.9852 2.26327C11.6519 2.15215 12.3324 2.15215 12.9991 2.26327ZM11.9921 17.8334C12.7976 17.8334 13.4505 18.4863 13.4505 19.2917V21.9167H10.5338V19.2917C10.5338 18.4863 11.1867 17.8334 11.9921 17.8334Z" fill="white"/>
</svg>
