<svg width="39" height="49" viewBox="0 0 39 49" fill="none" xmlns="http://www.w3.org/2000/svg">
<path d="M38.312 19.6901C38.1762 28.0839 25.9992 41.0728 21.0514 46.0092C19.9129 47.1451 18.1076 47.1159 17.0064 45.9438C12.2209 40.8498 0.470503 27.4738 0.606318 19.08C0.688196 14.0197 2.753 9.19874 6.34649 5.67775C9.93999 2.15676 14.7678 0.224143 19.7679 0.305046C24.768 0.385949 29.5308 2.47375 33.0085 6.10915C36.4862 9.74455 38.3939 14.6298 38.312 19.6901Z" fill="#90B2FF"/>
<path opacity="0.25" d="M19.2117 34.6838C23.3294 34.7505 27.3049 33.1786 30.2637 30.314C33.2225 27.4495 34.9222 23.5269 34.9888 19.4092C35.0554 15.2915 33.4836 11.3159 30.619 8.35714C27.7544 5.39836 23.8318 3.6987 19.7141 3.63207C15.5964 3.56545 11.6209 5.13731 8.66208 8.00187C5.7033 10.8664 4.00364 14.789 3.93702 18.9067C3.87039 23.0245 5.44226 27 8.30681 29.9588C11.1714 32.9176 15.094 34.6172 19.2117 34.6838Z" fill="white"/>
</svg>
