<svg width="16" height="17" viewBox="0 0 16 17" fill="none" xmlns="http://www.w3.org/2000/svg">
<path d="M5.49998 8.16667C5.49998 8.6269 5.12688 9 4.66665 9C4.20641 9 3.83331 8.6269 3.83331 8.16667C3.83331 7.70643 4.20641 7.33333 4.66665 7.33333C5.12688 7.33333 5.49998 7.70643 5.49998 8.16667Z" fill="#E6007E"/>
<path d="M11.3333 9C11.7936 9 12.1666 8.6269 12.1666 8.16667C12.1666 7.70643 11.7936 7.33333 11.3333 7.33333C10.8731 7.33333 10.5 7.70643 10.5 8.16667C10.5 8.6269 10.8731 9 11.3333 9Z" fill="#E6007E"/>
<path fill-rule="evenodd" clip-rule="evenodd" d="M4.04206 4.85636C4.04179 4.84872 4.04165 4.84104 4.04165 4.83333C4.04165 2.64721 5.81385 0.875 7.99998 0.875C10.1861 0.875 11.9583 2.64721 11.9583 4.83333C11.9583 4.84104 11.9582 4.84872 11.9579 4.85636C13.4136 5.02802 14.607 6.14225 14.8531 7.61867L15.6864 12.6187C16.025 14.6504 14.4582 16.5 12.3984 16.5H3.60149C1.54169 16.5 -0.0251162 14.6504 0.313512 12.6187L1.14685 7.61867C1.39292 6.14223 2.58636 5.028 4.04206 4.85636ZM5.29165 4.83333C5.29165 3.33756 6.50421 2.125 7.99998 2.125C9.49575 2.125 10.7083 3.33756 10.7083 4.83333H5.29165ZM1.5465 12.8242L2.37984 7.82417C2.54727 6.81961 3.41641 6.08333 4.43482 6.08333H11.5651C12.5835 6.08333 13.4527 6.81961 13.6201 7.82417L14.4534 12.8242C14.6651 14.094 13.6858 15.25 12.3984 15.25H3.60149C2.31412 15.25 1.33486 14.094 1.5465 12.8242Z" fill="#E6007E"/>
</svg>
