<svg width="24" height="22" viewBox="0 0 24 22" fill="none" xmlns="http://www.w3.org/2000/svg">
<path fill-rule="evenodd" clip-rule="evenodd" d="M17.3922 5.59993C17.3922 8.58226 14.9745 10.9999 11.9922 10.9999C9.00988 10.9999 6.59223 8.58226 6.59223 5.59993C6.59223 2.61761 9.00988 0.199951 11.9922 0.199951C14.9745 0.199951 17.3922 2.61761 17.3922 5.59993ZM15.5922 5.59993C15.5922 7.58815 13.9804 9.19992 11.9922 9.19992C10.004 9.19992 8.39222 7.58815 8.39222 5.59993C8.39222 3.61172 10.004 1.99995 11.9922 1.99995C13.9804 1.99995 15.5922 3.61172 15.5922 5.59993Z" fill="white"/>
<path fill-rule="evenodd" clip-rule="evenodd" d="M20.6322 16.9399C20.6322 19.624 16.7639 21.7999 11.9922 21.7999C7.22048 21.7999 3.35224 19.624 3.35224 16.9399C3.35224 14.2558 7.22048 12.0799 11.9922 12.0799C16.7639 12.0799 20.6322 14.2558 20.6322 16.9399ZM18.8322 16.9399C18.8322 17.3428 18.5228 18.0742 17.2191 18.8076C15.9718 19.5092 14.1275 19.9999 11.9922 19.9999C9.85694 19.9999 8.0126 19.5092 6.76529 18.8076C5.46157 18.0742 5.15223 17.3428 5.15223 16.9399C5.15223 16.537 5.46157 15.8055 6.76529 15.0722C8.0126 14.3706 9.85694 13.8799 11.9922 13.8799C14.1275 13.8799 15.9718 14.3706 17.2191 15.0722C18.5228 15.8055 18.8322 16.537 18.8322 16.9399Z" fill="white"/>
<path d="M19.7922 5.59992C19.7922 5.07132 19.6213 4.58263 19.3318 4.18609C19.0653 3.82114 18.6983 3.53424 18.2715 3.36612L18.241 3.35379C18.1867 3.33121 18.1331 3.30581 18.0808 3.27774C18.0257 3.2481 17.972 3.21549 17.9206 3.18008C17.6175 2.97129 17.3922 2.66537 17.3922 2.29993C17.3922 1.80288 17.7999 1.38992 18.2857 1.49516C19.7241 1.8068 20.888 2.85538 21.3623 4.22587C21.5113 4.65641 21.5922 5.11871 21.5922 5.59992C21.5922 6.08113 21.5113 6.54343 21.3623 6.97397C20.888 8.34446 19.7241 9.39304 18.2857 9.70468C17.7999 9.80992 17.3922 9.39696 17.3922 8.89991C17.3922 8.53447 17.6175 8.22855 17.9206 8.01976C17.972 7.98435 18.0257 7.95174 18.0808 7.9221C18.1331 7.89403 18.1867 7.86863 18.241 7.84605L18.2715 7.83372C18.6983 7.66559 19.0653 7.3787 19.3318 7.01375C19.6213 6.61721 19.7922 6.12852 19.7922 5.59992Z" fill="white"/>
<path d="M22.1922 16.3999C22.1922 16.5045 22.1372 16.741 21.8617 17.0447C21.7601 17.1566 21.6285 17.2777 21.4587 17.4047C21.4276 17.428 21.3975 17.4526 21.3687 17.4784C21.3392 17.5048 21.3111 17.5325 21.2843 17.5613C21.1058 17.7541 20.9922 17.9992 20.9922 18.2647C20.9922 18.9514 21.6969 19.4153 22.2679 19.0339C22.3602 18.9723 22.4493 18.9092 22.5352 18.8448L22.5696 18.8187C22.8284 18.6212 23.0563 18.4112 23.2496 18.1907C23.7259 17.6475 23.9922 17.0404 23.9922 16.3999C23.9922 15.7593 23.7259 15.1523 23.2496 14.6091C23.0563 14.3885 22.8284 14.1785 22.5696 13.9811L22.5352 13.955C22.4493 13.8906 22.3602 13.8275 22.2679 13.7659C21.6969 13.3845 20.9922 13.8484 20.9922 14.5351C20.9922 14.8006 21.1058 15.0457 21.2843 15.2385C21.3111 15.2673 21.3392 15.295 21.3687 15.3214C21.3975 15.3472 21.4276 15.3718 21.4587 15.3951C21.6285 15.5221 21.7601 15.6432 21.8617 15.7551C22.1372 16.0588 22.1922 16.2953 22.1922 16.3999Z" fill="white"/>
<path d="M4.19217 5.59974C4.19217 5.07114 4.36307 4.58245 4.65262 4.18591C4.9191 3.82096 5.28609 3.53406 5.71287 3.36593L5.74335 3.3536C5.7977 3.33103 5.8513 3.30563 5.90355 3.27756C5.9587 3.24792 6.01234 3.21531 6.06374 3.1799C6.36685 2.97111 6.59217 2.66519 6.59217 2.29975C6.59217 1.80269 6.1845 1.38974 5.69871 1.49498C4.26023 1.80662 3.09635 2.8552 2.62209 4.22569C2.47311 4.65622 2.39218 5.11853 2.39218 5.59974C2.39218 6.08094 2.47311 6.54325 2.62209 6.97379C3.09635 8.34427 4.26023 9.39285 5.69871 9.70449C6.1845 9.80974 6.59217 9.39678 6.59217 8.89973C6.59217 8.53429 6.36685 8.22836 6.06374 8.01957C6.01234 7.98417 5.9587 7.95155 5.90355 7.92192C5.8513 7.89384 5.79769 7.86844 5.74333 7.84587L5.71287 7.83354C5.28609 7.66541 4.9191 7.37851 4.65262 7.01356C4.36307 6.61702 4.19217 6.12834 4.19217 5.59974Z" fill="white"/>
<path d="M1.79218 16.3997C1.79218 16.5043 1.84715 16.7408 2.12267 17.0445C2.22426 17.1565 2.35584 17.2776 2.5257 17.4045C2.55682 17.4278 2.58687 17.4524 2.61568 17.4782C2.64514 17.5046 2.67332 17.5323 2.70004 17.5611C2.87856 17.7539 2.99218 17.999 2.99218 18.2645C2.99218 18.9512 2.28745 19.4151 1.71643 19.0337C1.62414 18.9721 1.53502 18.909 1.44921 18.8446L1.41477 18.8185C1.15601 18.6211 0.92807 18.4111 0.734733 18.1905C0.25849 17.6473 -0.0078125 17.0403 -0.0078125 16.3997C-0.0078125 15.7592 0.258497 15.1521 0.734751 14.6089C0.928085 14.3884 1.15602 14.1784 1.41477 13.9809L1.44921 13.9548C1.53502 13.8904 1.62414 13.8273 1.71643 13.7657C2.28745 13.3843 2.99218 13.8483 2.99218 14.5349C2.99218 14.8005 2.87856 15.0455 2.70004 15.2383C2.67332 15.2672 2.64515 15.2948 2.61568 15.3212C2.58687 15.347 2.55682 15.3716 2.5257 15.3949C2.35584 15.5219 2.22426 15.643 2.12267 15.7549C1.84715 16.0586 1.79218 16.2951 1.79218 16.3997Z" fill="white"/>
</svg>
