<svg width="20" height="20" viewBox="0 0 20 20" fill="none" xmlns="http://www.w3.org/2000/svg">
<path fill-rule="evenodd" clip-rule="evenodd" d="M8.77375 2.6739C6.15578 3.31911 4.21426 5.68298 4.21426 8.50012V9.58317C4.21426 11.0541 3.75633 12.8967 3.31382 14.3339C2.96602 15.4635 3.79024 16.6665 4.97215 16.6665H8.33331C8.33331 16.8854 8.37642 17.1021 8.46018 17.3043C8.54394 17.5065 8.6667 17.6903 8.82147 17.845C8.97623 17.9998 9.15996 18.1225 9.36217 18.2063C9.56438 18.2901 9.78111 18.3332 9.99998 18.3332C10.2188 18.3332 10.4356 18.2901 10.6378 18.2063C10.84 18.1225 11.0237 17.9998 11.1785 17.845C11.3333 17.6903 11.456 17.5065 11.5398 17.3043C11.6235 17.1021 11.6666 16.8854 11.6666 16.6665H15.2578C16.3749 16.6665 17.1861 15.5865 16.9309 14.499C16.5868 13.0333 16.2143 11.0966 16.2143 9.58317V8.50011C16.2143 5.52359 14.0468 3.05306 11.2041 2.58111C11.1906 2.53261 11.1742 2.48486 11.1548 2.43815C11.092 2.28649 10.9999 2.14869 10.8839 2.03262C10.7678 1.91655 10.63 1.82447 10.4783 1.76165C10.3267 1.69884 10.1641 1.6665 9.99998 1.6665C9.83583 1.6665 9.67328 1.69884 9.52162 1.76165C9.36997 1.82447 9.23217 1.91655 9.1161 2.03262C9.00002 2.14869 8.90795 2.28649 8.84513 2.43815C8.81356 2.51437 8.78968 2.59335 8.77375 2.6739ZM5.46426 8.50012V9.58317C5.46426 11.2533 4.95621 13.2476 4.50847 14.7017C4.45575 14.8729 4.48885 15.0581 4.59235 15.2055C4.69284 15.3486 4.82881 15.4165 4.97215 15.4165H15.2578C15.5235 15.4165 15.7957 15.1327 15.714 14.7846C15.3672 13.3071 14.9643 11.2508 14.9643 9.58317V8.50011C14.9643 5.87669 12.8375 3.74984 10.2143 3.74984C7.59099 3.74984 5.46426 5.87669 5.46426 8.50012Z" fill="#E6007E"/>
</svg>
