<svg width="18" height="18" viewBox="0 0 18 18" fill="none" xmlns="http://www.w3.org/2000/svg">
<path fill-rule="evenodd" clip-rule="evenodd" d="M17.3333 8.99984C17.3333 13.6022 13.6023 17.3332 8.99996 17.3332C4.39759 17.3332 0.666626 13.6022 0.666626 8.99984C0.666626 4.39746 4.39759 0.666504 8.99996 0.666504C13.6023 0.666504 17.3333 4.39746 17.3333 8.99984ZM1.91663 8.99984C1.91663 8.36924 1.99903 7.75788 2.15366 7.17595L2.47147 7.10948L2.50397 7.10279C2.53286 7.09688 2.57598 7.08813 2.63203 7.07694C2.74414 7.05456 2.90793 7.02245 3.11311 6.98386C3.40482 6.92899 3.7797 6.8611 4.20829 6.78946V11.2102C3.7797 11.1386 3.40482 11.0707 3.11311 11.0158C2.90793 10.9772 2.74414 10.9451 2.63203 10.9227C2.57598 10.9115 2.53286 10.9028 2.50397 10.8969L2.47147 10.8902L2.15366 10.8237C1.99903 10.2418 1.91663 9.63044 1.91663 8.99984ZM2.88204 5.7554C3.22643 5.69062 3.68375 5.60817 4.20829 5.52251V3.78312C3.58718 4.35393 3.06829 5.03422 2.68222 5.7934C2.7437 5.78158 2.81045 5.76887 2.88204 5.7554ZM8.37496 11.6942C7.44498 11.6551 6.40763 11.5382 5.45829 11.4037V6.59598C6.40763 6.46144 7.44498 6.34457 8.37496 6.30544V11.6942ZM5.45829 5.3338C6.39858 5.20416 7.43106 5.09158 8.37496 5.05444V1.9437C7.31934 2.03599 6.33009 2.35982 5.45829 2.86413V5.3338ZM12.5416 11.4037C11.5923 11.5382 10.5549 11.6551 9.62496 11.6942V6.30544C10.5549 6.34457 11.5923 6.46144 12.5416 6.59598V11.4037ZM9.62496 5.05444C10.5689 5.09158 11.6013 5.20416 12.5416 5.3338V2.86413C11.6698 2.35982 10.6806 2.03599 9.62496 1.9437V5.05444ZM14.8868 11.0158C14.5951 11.0707 14.2202 11.1386 13.7916 11.2102V6.78946C14.2202 6.8611 14.5951 6.92899 14.8868 6.98386C15.092 7.02245 15.2558 7.05456 15.3679 7.07694C15.4239 7.08813 15.4671 7.09688 15.4959 7.10279L15.5284 7.10948L15.5364 7.11112L15.8463 7.17595C16.0009 7.75788 16.0833 8.36924 16.0833 8.99984C16.0833 9.63044 16.0009 10.2418 15.8463 10.8237L15.5284 10.8902L15.4959 10.8969C15.4671 10.9028 15.4239 10.9115 15.3679 10.9227C15.2558 10.9451 15.092 10.9772 14.8868 11.0158ZM15.1179 5.7554C15.1895 5.76887 15.2562 5.78158 15.3177 5.7934C14.9316 5.03422 14.4127 4.35393 13.7916 3.78312V5.52251C14.3162 5.60817 14.7735 5.69062 15.1179 5.7554ZM13.7916 14.2166C14.4127 13.6457 14.9316 12.9655 15.3177 12.2063C15.2562 12.2181 15.1895 12.2308 15.1179 12.2443C14.7735 12.3091 14.3162 12.3915 13.7916 12.4772V14.2166ZM9.62496 12.9452C10.5689 12.9081 11.6013 12.7955 12.5416 12.6659V14.8332C12.5416 14.9288 12.5631 15.0195 12.6015 15.1005C11.7153 15.6249 10.7048 15.9616 9.62496 16.056V12.9452ZM5.45829 12.6659C6.39858 12.7955 7.43106 12.9081 8.37496 12.9452V16.056C7.29508 15.9616 6.28467 15.6249 5.3984 15.1005C5.43681 15.0195 5.45829 14.9288 5.45829 14.8332V12.6659ZM2.88204 12.2443C3.22643 12.3091 3.68375 12.3915 4.20829 12.4772V14.2166C3.58718 13.6457 3.06829 12.9655 2.68222 12.2063C2.7437 12.2181 2.81045 12.2308 2.88204 12.2443Z" fill="#E6007E"/>
</svg>
