<svg width="16" height="18" viewBox="0 0 16 18" fill="none" xmlns="http://www.w3.org/2000/svg">
<path d="M8.625 11.2177C8.75466 11.0708 8.83333 10.8778 8.83333 10.6665C8.83333 10.2063 8.46024 9.83317 8 9.83317C7.53976 9.83317 7.16667 10.2063 7.16667 10.6665C7.16667 10.8778 7.24534 11.0708 7.375 11.2177V13.9998C7.375 14.345 7.65482 14.6248 8 14.6248C8.34518 14.6248 8.625 14.345 8.625 13.9998V11.2177Z" fill="#E6007E"/>
<path fill-rule="evenodd" clip-rule="evenodd" d="M4.04167 5.6665V3.99984C4.04167 1.81371 5.81387 0.0415039 8 0.0415039C10.1861 0.0415039 11.9583 1.81371 11.9583 3.99984V5.6665H12.1667C14.0076 5.6665 15.5 7.15889 15.5 8.99984V13.9998C15.5 15.8408 14.0076 17.3332 12.1667 17.3332H3.83333C1.99238 17.3332 0.5 15.8408 0.5 13.9998V8.99984C0.5 7.15889 1.99238 5.6665 3.83333 5.6665H4.04167ZM5.29167 3.99984C5.29167 2.50407 6.50423 1.2915 8 1.2915C9.49577 1.2915 10.7083 2.50407 10.7083 3.99984V5.6665H5.29167V3.99984ZM1.75 8.99984C1.75 7.84924 2.68274 6.9165 3.83333 6.9165H12.1667C13.3173 6.9165 14.25 7.84924 14.25 8.99984V13.9998C14.25 15.1504 13.3173 16.0832 12.1667 16.0832H3.83333C2.68274 16.0832 1.75 15.1504 1.75 13.9998V8.99984Z" fill="#E6007E"/>
</svg>
