<svg width="14" height="18" viewBox="0 0 14 18" fill="none" xmlns="http://www.w3.org/2000/svg">
<path fill-rule="evenodd" clip-rule="evenodd" d="M11.1667 4.83317C11.1667 7.13436 9.30123 8.99984 7.00004 8.99984C4.69885 8.99984 2.83337 7.13436 2.83337 4.83317C2.83337 2.53198 4.69885 0.666504 7.00004 0.666504C9.30123 0.666504 11.1667 2.53198 11.1667 4.83317ZM9.91671 4.83317C9.91671 6.444 8.61087 7.74984 7.00004 7.74984C5.38921 7.74984 4.08337 6.444 4.08337 4.83317C4.08337 3.22234 5.38921 1.9165 7.00004 1.9165C8.61087 1.9165 9.91671 3.22234 9.91671 4.83317Z" fill="#E6007E"/>
<path fill-rule="evenodd" clip-rule="evenodd" d="M13.6667 13.5832C13.6667 15.6542 10.6819 17.3332 7.00004 17.3332C3.31814 17.3332 0.333374 15.6542 0.333374 13.5832C0.333374 11.5121 3.31814 9.83317 7.00004 9.83317C10.6819 9.83317 13.6667 11.5121 13.6667 13.5832ZM12.4167 13.5832C12.4167 13.9665 12.1273 14.5682 11.1013 15.1454C10.1144 15.7004 8.66697 16.0832 7.00004 16.0832C5.33311 16.0832 3.88565 15.7004 2.89882 15.1454C1.87281 14.5682 1.58337 13.9665 1.58337 13.5832C1.58337 13.1998 1.87281 12.5981 2.89882 12.021C3.88565 11.4659 5.33311 11.0832 7.00004 11.0832C8.66697 11.0832 10.1144 11.4659 11.1013 12.021C12.1273 12.5981 12.4167 13.1998 12.4167 13.5832Z" fill="#E6007E"/>
</svg>
