<svg width="18" height="14" viewBox="0 0 18 14" fill="none" xmlns="http://www.w3.org/2000/svg">
<path d="M0.875 1.1665C0.875 0.821326 1.15482 0.541504 1.5 0.541504H16.5C16.8452 0.541504 17.125 0.821326 17.125 1.1665C17.125 1.51168 16.8452 1.7915 16.5 1.7915H1.5C1.15482 1.7915 0.875 1.51168 0.875 1.1665Z" fill="#E6007E"/>
<path d="M0.875 6.99984C0.875 6.65466 1.15482 6.37484 1.5 6.37484H11.5C11.8452 6.37484 12.125 6.65466 12.125 6.99984C12.125 7.34502 11.8452 7.62484 11.5 7.62484H1.5C1.15482 7.62484 0.875 7.34502 0.875 6.99984Z" fill="#E6007E"/>
<path d="M1.5 12.2082C1.15482 12.2082 0.875 12.488 0.875 12.8332C0.875 13.1783 1.15482 13.4582 1.5 13.4582H13.1667C13.5118 13.4582 13.7917 13.1783 13.7917 12.8332C13.7917 12.488 13.5118 12.2082 13.1667 12.2082H1.5Z" fill="#E6007E"/>
</svg>
