<svg width="17" height="17" viewBox="0 0 17 17" fill="none" xmlns="http://www.w3.org/2000/svg">
<path fill-rule="evenodd" clip-rule="evenodd" d="M1.54798 3.16746L2.26418 1.73506C2.77293 0.717566 4.129 0.497504 4.9334 1.30191L6.83485 3.20335C7.34211 3.71062 7.46787 4.48557 7.14705 5.12722L6.9281 5.56511C6.57585 6.26961 6.57 7.10325 6.98045 7.77552C7.30178 8.30181 7.71316 8.90623 8.12287 9.31593C8.47597 9.66904 8.9737 10.0234 9.4414 10.3203C10.2252 10.8178 11.2251 10.724 11.9729 10.1738C12.6397 9.68317 13.5671 9.76376 14.1393 10.3621L15.7722 12.0694C16.5477 12.8803 16.3166 14.2103 15.313 14.7121L13.8327 15.4522C12.6823 16.0274 11.3789 16.2718 10.1629 15.8526C8.70231 15.3491 6.60907 14.3425 4.63339 12.3668C2.65771 10.3911 1.65106 8.2979 1.14758 6.83729C0.728419 5.62131 0.972779 4.31786 1.54798 3.16746ZM2.66602 3.72647L3.38221 2.29408C3.5094 2.0397 3.84842 1.98469 4.04952 2.18579L5.95096 4.08724C6.07778 4.21405 6.10922 4.40779 6.02901 4.5682L5.81007 5.00609C5.2887 6.04883 5.2525 7.34414 5.91358 8.42689C6.24584 8.97108 6.71993 9.68077 7.23898 10.1998C7.69038 10.6512 8.28053 11.064 8.77152 11.3756C10.0464 12.1848 11.6066 11.9952 12.7137 11.1806C12.8745 11.0624 13.098 11.0818 13.2359 11.226L14.8688 12.9334C15.0627 13.1361 15.0049 13.4686 14.754 13.594L13.2737 14.3342C12.3142 14.8139 11.369 14.9462 10.5703 14.6709C9.24443 14.2138 7.32898 13.2946 5.51728 11.4829C3.70557 9.67122 2.78637 7.75577 2.32934 6.42993C2.05401 5.6312 2.18626 4.68599 2.66602 3.72647Z" fill="#E6007E"/>
</svg>
