<svg width="18" height="18" viewBox="0 0 18 18" fill="none" xmlns="http://www.w3.org/2000/svg">
<path fill-rule="evenodd" clip-rule="evenodd" d="M9.92472 0.812374C9.31244 0.710328 8.6875 0.710328 8.07523 0.812374L6.44824 1.08354H5.33793C4.8855 1.08354 4.44319 1.21746 4.06674 1.46842L2.60665 2.44182C2.06416 2.80348 1.70141 3.37908 1.6092 4.02451L0.988519 8.36928C0.888935 9.06637 1.19848 9.7587 1.78439 10.1493C1.91754 10.2381 2.05965 10.3077 2.20688 10.3581L2.61625 13.8377C2.85077 15.8312 4.54025 17.3335 6.54747 17.3335H11.8691C13.8764 17.3335 15.5658 15.8312 15.8004 13.8377L16.2359 10.1355C16.8086 9.74258 17.1098 9.05825 17.0114 8.36928L16.3907 4.02451C16.2985 3.37908 15.9358 2.80348 15.3933 2.44182L13.9332 1.46842C13.5568 1.21746 13.1144 1.08354 12.662 1.08354H11.5517L9.92472 0.812374ZM4.76012 2.50849C4.93123 2.39441 5.13228 2.33354 5.33793 2.33354H5.79198L5.08522 7.9876L3.0857 9.13018C2.89544 9.2389 2.66009 9.23079 2.47776 9.10924C2.29239 8.98566 2.19445 8.76661 2.22596 8.54606L2.84664 4.20129C2.88855 3.90791 3.05344 3.64627 3.30002 3.48188L4.76012 2.50849ZM3.70588 10.2155L5.68631 9.08381L6.48439 9.48286C8.06799 10.2747 9.93196 10.2747 11.5155 9.48286L12.3136 9.08381L14.2941 10.2155C14.4976 10.3318 14.7175 10.4058 14.9417 10.4379L14.5589 13.6917C14.3985 15.0556 13.2425 16.0835 11.8691 16.0835H11.2916V14.2085C11.2916 12.9429 10.2656 11.9169 8.99997 11.9169C7.73432 11.9169 6.7083 12.9429 6.7083 14.2085V16.0835H6.54747C5.17411 16.0835 4.01815 15.0556 3.85769 13.6917L3.4624 10.3317C3.54555 10.2993 3.62694 10.2606 3.70588 10.2155ZM14.9142 9.13018L12.9147 7.9876L12.208 2.33354H12.662C12.8677 2.33354 13.0687 2.39441 13.2398 2.50849L14.6999 3.48188C14.9465 3.64627 15.1114 3.90791 15.1533 4.20129L15.774 8.54606C15.8055 8.76661 15.7076 8.98566 15.5222 9.10924C15.3399 9.23079 15.1045 9.2389 14.9142 9.13018ZM9.71922 2.04537L10.9376 2.24843L11.6583 8.01394L10.9565 8.36482C9.72485 8.98066 8.27509 8.98066 7.04341 8.36482L6.34166 8.01394L7.06235 2.24843L8.28073 2.04537C8.75694 1.966 9.243 1.966 9.71922 2.04537ZM8.99997 13.1669C9.57527 13.1669 10.0416 13.6332 10.0416 14.2085V16.0835H7.9583V14.2085C7.9583 13.6332 8.42467 13.1669 8.99997 13.1669Z" fill="#E6007E"/>
</svg>
