<svg width="41" height="30" viewBox="0 0 41 30" fill="none" xmlns="http://www.w3.org/2000/svg">
<path d="M35.3404 23.0917L22.0866 27.7264L24.6512 11.6631L37.9049 7.02828L35.3404 23.0917Z" fill="#800A0A"/>
<path d="M35.3824 23.1153L0.0683138 23.7696L2.45888 8.79601L37.7729 8.14172L35.3824 23.1153Z" fill="#C20F0F"/>
<g style="mix-blend-mode:multiply">
<path d="M39.3936 10.6187L23.8386 10.9073L24.5167 6.6601L40.0716 6.37151L39.3936 10.6187Z" fill="#C3C3C3"/>
</g>
<path d="M38.9356 9.95461L23.3806 10.2432L24.0587 5.99603L39.6136 5.70745L38.9356 9.95461Z" fill="#FFC507"/>
<path d="M6.51112 19.7801C6.03174 19.6582 5.57695 19.4553 5.16678 19.1803L5.74984 18.0348C6.1034 18.2701 6.49117 18.4503 6.89958 18.5693C7.30928 18.6835 7.73366 18.7368 8.1588 18.7275C8.61711 18.7191 8.96262 18.6463 9.19533 18.509C9.30318 18.452 9.39249 18.366 9.45299 18.2608C9.51349 18.1556 9.54271 18.0355 9.53728 17.9144C9.53603 17.7931 9.49963 17.6746 9.43242 17.5731C9.36521 17.4715 9.27002 17.3911 9.15818 17.3415C8.79108 17.1667 8.40698 17.0296 8.0119 16.9323C7.58503 16.8213 7.1662 16.6817 6.7583 16.5145C6.43595 16.3764 6.14954 16.1671 5.92102 15.9027C5.67178 15.5996 5.54107 15.218 5.55289 14.8279C5.53674 14.4056 5.65988 13.99 5.90369 13.644C6.16737 13.2855 6.52847 13.0086 6.94513 12.8455C7.45006 12.6451 7.9897 12.5436 8.53424 12.5465C9.04169 12.5361 9.54796 12.6037 10.035 12.747C10.4583 12.8626 10.853 13.0638 11.1942 13.338L10.6235 14.4917C10.3166 14.2615 9.97377 14.0828 9.60866 13.9628C9.25954 13.8452 8.8931 13.7867 8.52472 13.7898C8.08631 13.7972 7.74427 13.8767 7.49859 14.0282C7.38594 14.0913 7.29306 14.184 7.23009 14.296C7.16713 14.4079 7.13649 14.535 7.14154 14.6633C7.14188 14.7499 7.16061 14.8355 7.19651 14.9145C7.23241 14.9935 7.28466 15.0643 7.34989 15.1221C7.49962 15.2536 7.67407 15.3546 7.86317 15.4192C8.06988 15.4938 8.35467 15.5821 8.71978 15.6856C9.13913 15.7924 9.55092 15.9268 9.9524 16.0878C10.2708 16.2203 10.5537 16.4246 10.7785 16.6844C11.0193 16.9762 11.1464 17.3436 11.1369 17.7198C11.1499 18.4172 10.8919 18.9629 10.363 19.357C9.83401 19.751 9.0875 19.9554 8.12342 19.9703C7.57994 19.9807 7.03737 19.9168 6.51112 19.7801Z" fill="white"/>
<path d="M18.0764 19.7225L17.4667 18.1261L14.063 18.1794L13.2738 19.7958L11.6333 19.8212L15.4202 12.533L16.7214 12.5133L19.6356 19.7037L18.0764 19.7225ZM14.6612 16.9617L17.0137 16.9252L15.9995 14.2187L14.6612 16.9617Z" fill="white"/>
<path d="M20.6686 19.6826L21.1066 12.4442L22.7161 12.4199L22.3471 18.3671L25.6059 18.3164L25.5234 19.6066L20.6686 19.6826Z" fill="white"/>
<path d="M32.3019 13.5004L28.8427 13.5534L28.7318 15.261L31.9951 15.2134L31.9058 16.4537L28.667 16.5027L28.5476 18.3337L32.015 18.2759L31.9348 19.5054L26.913 19.5828L27.3496 12.3454L32.3821 12.2709L32.3019 13.5004Z" fill="white"/>
<path d="M25.9618 9.19695C25.7708 9.10026 25.6132 8.94923 25.5093 8.76331C25.397 8.55615 25.3396 8.32427 25.3426 8.08947C25.3316 7.82652 25.3826 7.56484 25.4914 7.32513C25.5883 7.1135 25.7459 6.9349 25.9446 6.81151C26.1529 6.68627 26.3926 6.62128 26.6366 6.62389C26.8731 6.61489 27.1083 6.66437 27.321 6.76786C27.512 6.86455 27.6696 7.01558 27.7735 7.2015C27.8854 7.40882 27.9427 7.64059 27.9402 7.87534C27.9511 8.13896 27.9 8.4013 27.7911 8.64168C27.6938 8.85305 27.5363 9.03154 27.3379 9.15529C27.1292 9.27966 26.8898 9.34457 26.6459 9.34291C26.4094 9.35125 26.1743 9.30108 25.9618 9.19695ZM27.1706 8.61408C27.3107 8.39731 27.3755 8.14103 27.3552 7.88403C27.3663 7.66801 27.2985 7.45502 27.1644 7.28392C27.0936 7.21371 27.0085 7.15924 26.9148 7.12416C26.8212 7.08907 26.7211 7.07418 26.6213 7.08048C26.5215 7.08677 26.4243 7.11411 26.3361 7.16066C26.248 7.20722 26.171 7.27191 26.1102 7.35042C25.9713 7.56924 25.9071 7.82663 25.927 8.08477C25.9158 8.29982 25.9829 8.51194 26.1161 8.68257C26.1872 8.75242 26.2725 8.80652 26.3662 8.84129C26.4599 8.87605 26.56 8.89068 26.6597 8.8842C26.7595 8.87772 26.8566 8.85028 26.9447 8.80371C27.0328 8.75713 27.1098 8.69249 27.1706 8.61408Z" fill="#191C1F"/>
<path d="M30.3292 7.05644L29.1149 7.06675L29.0778 7.67336L30.2177 7.65117L30.1895 8.11218L29.0456 8.13372L28.9727 9.24912L28.396 9.2571L28.5607 6.61077L30.361 6.5858L30.3292 7.05644Z" fill="#191C1F"/>
<path d="M32.5723 7.02617L31.358 7.03648L31.321 7.64308L32.4609 7.6209L32.4327 8.0819L31.2867 8.10313L31.2159 9.21884L30.6392 9.22682L30.8042 6.57851L32.6042 6.55553L32.5723 7.02617Z" fill="#191C1F"/>
<path d="M34.8543 6.9884L33.5895 7.00494L33.5476 7.62914L34.7398 7.6153L34.7065 8.06937L33.5223 8.0845L33.4771 8.75513L34.7442 8.73692L34.7156 9.18765L32.8782 9.21281L33.0432 6.5645L34.8826 6.53966L34.8543 6.9884Z" fill="#191C1F"/>
<path d="M37.0667 8.14235C37.1201 8.20836 37.1599 8.28408 37.1838 8.36521L37.4531 9.14528L36.833 9.15448L36.546 8.27769C36.5371 8.24731 36.522 8.21899 36.5019 8.19439C36.4817 8.16979 36.4569 8.1494 36.4287 8.13441C36.3615 8.10595 36.2883 8.09427 36.2155 8.10037L35.8393 8.10565L35.7764 9.17159L35.1977 9.17925L35.3604 6.5326L36.5988 6.52615C36.8291 6.50737 37.0586 6.57307 37.2437 6.71078C37.3223 6.77613 37.3849 6.8582 37.4269 6.95083C37.4689 7.04347 37.4892 7.14426 37.4863 7.24564C37.4972 7.42707 37.446 7.60667 37.3409 7.75533C37.2262 7.8986 37.0645 7.99768 36.8837 8.03555C36.9535 8.0536 37.0169 8.09059 37.0667 8.14235ZM36.4988 7.64334C36.6196 7.6493 36.7387 7.61429 36.8364 7.54411C36.8737 7.5103 36.9029 7.46874 36.9221 7.42239C36.9413 7.37605 36.9499 7.32605 36.9473 7.27596C36.9495 7.2304 36.9413 7.1849 36.9234 7.14281C36.9055 7.10072 36.8783 7.06313 36.8438 7.03281C36.754 6.97458 36.647 6.94814 36.5402 6.95781L35.9201 6.96701L35.8797 7.65884L36.4988 7.64334Z" fill="#191C1F"/>
</svg>
