<svg width="20" height="20" viewBox="0 0 20 20" fill="none" xmlns="http://www.w3.org/2000/svg">
<path fill-rule="evenodd" clip-rule="evenodd" d="M7.5 11.0082C9.433 11.0082 11 9.44118 11 7.50818C11 5.57518 9.433 4.00818 7.5 4.00818C5.567 4.00818 4 5.57518 4 7.50818C4 9.44118 5.567 11.0082 7.5 11.0082ZM7.5 9.50818C8.60457 9.50818 9.5 8.61275 9.5 7.50818C9.5 6.40361 8.60457 5.50818 7.5 5.50818C6.39543 5.50818 5.5 6.40361 5.5 7.50818C5.5 8.61275 6.39543 9.50818 7.5 9.50818Z" fill="#464646"/>
<path d="M11.5303 15.5385L15.5303 11.5385C15.8232 11.2456 15.8232 10.7707 15.5303 10.4778C15.2374 10.185 14.7626 10.185 14.4697 10.4778L10.4697 14.4778C10.1768 14.7707 10.1768 15.2456 10.4697 15.5385C10.7626 15.8314 11.2374 15.8314 11.5303 15.5385Z" fill="#464646"/>
<path fill-rule="evenodd" clip-rule="evenodd" d="M4.3599 0.00817871H9.5981C10.7953 0.00817871 11.9398 0.500684 12.7632 1.37016L18.8052 7.75054C20.4596 9.4976 20.387 12.2551 18.643 13.9126L13.4914 18.8087C11.744 20.4695 8.98108 20.3967 7.32343 18.6462L1.19482 12.1743C0.427607 11.3641 0 10.2906 0 9.17455V4.36994C0 1.96101 1.952 0.00817871 4.3599 0.00817871ZM9.5981 1.50818H4.3599C2.78103 1.50818 1.5 2.78883 1.5 4.36994V9.17455C1.5 9.90697 1.78064 10.6114 2.28397 11.1429L8.41258 17.6148C9.49991 18.763 11.3119 18.8107 12.458 17.7214L17.6096 12.8253C18.7539 11.7378 18.8016 9.92826 17.716 8.78192L11.674 2.40155C11.1339 1.83115 10.3832 1.50818 9.5981 1.50818Z" fill="#464646"/>
</svg>
