<svg width="19" height="19" viewBox="0 0 19 19" fill="none" xmlns="http://www.w3.org/2000/svg">
<path d="M16 9.71723C16 10.0178 15.7766 10.2662 15.4868 10.3056L15.4062 10.311L4.96892 10.3105L8.73961 14.0658C8.97199 14.2972 8.9728 14.6731 8.74142 14.9055C8.53108 15.1167 8.20127 15.1366 7.96845 14.9646L7.90174 14.9073L3.11215 10.1383C3.08152 10.1078 3.05492 10.0748 3.03234 10.0399C3.02596 10.0294 3.01947 10.0187 3.01331 10.0078C3.00765 9.99837 3.00254 9.98862 2.99771 9.97877C2.99101 9.96443 2.98446 9.94962 2.97851 9.93451C2.97368 9.92285 2.96965 9.91152 2.96597 9.9001C2.96159 9.88593 2.95734 9.87084 2.95369 9.85551C2.95097 9.84481 2.94882 9.83451 2.94694 9.82417C2.9443 9.80879 2.94205 9.79287 2.94045 9.77676C2.93906 9.76448 2.93823 9.7523 2.93777 9.74012C2.93765 9.73273 2.9375 9.725 2.9375 9.71723L2.9378 9.69423C2.93825 9.68257 2.93905 9.67093 2.94019 9.65932L2.9375 9.71723C2.9375 9.67976 2.94097 9.6431 2.94761 9.60756C2.94915 9.59907 2.95098 9.59035 2.95301 9.58168C2.95723 9.5638 2.9621 9.54659 2.96772 9.52972C2.97047 9.52133 2.97368 9.51238 2.97711 9.50348C2.98405 9.48562 2.99159 9.46859 2.99989 9.452C3.00374 9.4442 3.00806 9.43603 3.01258 9.42795C3.02 9.41476 3.02764 9.40223 3.03572 9.39001C3.04143 9.38137 3.04774 9.37237 3.05434 9.36351L3.05947 9.35667C3.07547 9.33577 3.09282 9.31596 3.1114 9.29738L3.11212 9.29683L7.9017 4.52704C8.13405 4.29565 8.50999 4.29643 8.74139 4.52878C8.95175 4.74001 8.97023 5.06991 8.79728 5.30199L8.73965 5.36847L4.9705 9.123L15.4062 9.12348C15.7342 9.12348 16 9.38931 16 9.71723Z" fill="white"/>
</svg>
