<svg width="24" height="24" viewBox="0 0 24 24" fill="none" xmlns="http://www.w3.org/2000/svg">
<path fill-rule="evenodd" clip-rule="evenodd" d="M12.1554 4.73489C12.0759 4.64414 11.9244 4.64414 11.8448 4.73489L11.3599 5.28806C10.9194 5.79054 10.2023 5.94715 9.59179 5.6853L8.90935 5.39261C8.78339 5.33859 8.65867 5.41481 8.6323 5.51182L7.98898 5.33693L8.6323 5.51182L8.44088 6.21591C8.26418 6.8659 7.67941 7.31203 7.01546 7.33499L6.2707 7.36075C6.13305 7.36551 6.06562 7.48059 6.08315 7.57014L6.22318 8.28569C6.35309 8.94949 6.02151 9.60799 5.42693 9.91369L5.1221 9.32079L5.42693 9.91369L4.76736 10.2528C4.65932 10.3083 4.64087 10.4287 4.70156 10.5087L5.14531 11.094C5.55256 11.6312 5.55256 12.3692 5.14531 12.9063L4.75664 12.6116L5.14531 12.9063L4.70156 13.4916C4.64087 13.5717 4.65932 13.692 4.76735 13.7475L4.46253 14.3404L4.76736 13.7475L5.42693 14.0866L5.1221 14.6795L5.42693 14.0866C6.02151 14.3923 6.35309 15.0508 6.22318 15.7146L6.08315 16.4302C6.06562 16.5197 6.13305 16.6348 6.2707 16.6396L7.01546 16.6653C7.67941 16.6883 8.26418 17.1344 8.44089 17.7844L8.6323 18.4885C8.65867 18.5855 8.78338 18.6617 8.90935 18.6077L9.59179 18.315C10.2023 18.0532 10.9194 18.2098 11.3599 18.7123L11.8448 19.2654C11.9244 19.3562 12.0759 19.3562 12.1554 19.2654L12.6404 18.7123C13.0809 18.2098 13.7979 18.0532 14.4085 18.315L15.0909 18.6077C15.2169 18.6617 15.3416 18.5855 15.3679 18.4885L15.5594 17.7844C15.7361 17.1344 16.3208 16.6883 16.9848 16.6653L17.7295 16.6396C17.8672 16.6348 17.9346 16.5197 17.9171 16.4302L17.7771 15.7146C17.6472 15.0508 17.9787 14.3923 18.5733 14.0866L19.2329 13.7475C19.3409 13.692 19.3594 13.5717 19.2987 13.4916L18.8549 12.9063C18.4477 12.3692 18.4477 11.6312 18.8549 11.094L19.2987 10.5087C19.3594 10.4287 19.3409 10.3083 19.2329 10.2528L18.5733 9.91369C17.9787 9.60799 17.6472 8.94949 17.7771 8.28569L17.9171 7.57014C17.9346 7.48059 17.8672 7.36551 17.7295 7.36075L16.9848 7.33499C16.3208 7.31203 15.7361 6.8659 15.5594 6.21591L15.3679 5.51182C15.3416 5.41481 15.2169 5.33859 15.0909 5.39261L14.4085 5.6853C13.7979 5.94715 13.0809 5.79054 12.6404 5.28806L12.1554 4.73489ZM13.158 3.85593L12.6567 4.29541L13.158 3.85593L13.643 4.40911C13.6979 4.47181 13.7962 4.49712 13.8829 4.45992L14.5653 4.16723C15.4107 3.80466 16.4085 4.25691 16.6546 5.16204L16.846 5.86612C16.8649 5.93551 16.9339 5.9991 17.0309 6.00245L17.7756 6.02821C18.698 6.06012 19.4074 6.89731 19.2256 7.82622L19.0856 8.54177C19.0724 8.60906 19.1037 8.68712 19.183 8.7279L19.8425 9.06701C20.6733 9.49412 20.9321 10.5613 20.3612 11.3143L19.9174 11.8996C19.8713 11.9604 19.8713 12.0399 19.9174 12.1008L20.3612 12.6861C20.9321 13.4391 20.6733 14.5062 19.8425 14.9333L19.183 15.2724C19.1037 15.3132 19.0724 15.3913 19.0856 15.4586L19.2256 16.1741C19.4074 17.103 18.698 17.9402 17.7756 17.9721L17.0309 17.9979C16.9339 18.0012 16.8649 18.0648 16.846 18.1342L16.6546 18.8383C16.4085 19.7434 15.4107 20.1957 14.5653 19.8331L13.8829 19.5404L14.1155 18.998L13.8829 19.5404C13.7962 19.5032 13.6979 19.5285 13.643 19.5912L13.158 20.1444C12.5473 20.841 11.4529 20.841 10.8422 20.1444L10.3573 19.5912C10.3023 19.5285 10.2041 19.5032 10.1173 19.5404L9.4349 19.8331C8.58955 20.1957 7.59173 19.7434 7.34566 18.8383L7.15425 18.1342C7.13539 18.0648 7.06634 18.0012 6.96937 17.9979L6.22461 17.9721C5.30223 17.9402 4.59285 17.103 4.77464 16.1741L4.91467 15.4586C4.92784 15.3913 4.89659 15.3132 4.81727 15.2724L4.1577 14.9333C3.32696 14.5062 3.06817 13.4391 3.63907 12.6861L4.04191 12.9915L3.63907 12.6861L4.08282 12.1008C4.12895 12.0399 4.12895 11.9604 4.08282 11.8996L3.63907 11.3143C3.06817 10.5613 3.32696 9.49412 4.1577 9.06701L4.81727 8.7279C4.89658 8.68712 4.92784 8.60906 4.91467 8.54177L4.77464 7.82622C4.59285 6.89731 5.30223 6.06012 6.22461 6.02821L6.96937 6.00245C7.06634 5.9991 7.13539 5.93551 7.15425 5.86612L7.69288 6.01256L7.15425 5.86612L7.34566 5.16204C7.59173 4.25691 8.58955 3.80466 9.4349 4.16723L10.1173 4.45992L9.85457 5.07261L10.1173 4.45992C10.2041 4.49712 10.3023 4.47181 10.3573 4.40911L10.8422 3.85593C11.4529 3.15935 12.5473 3.15935 13.158 3.85593ZM14.5607 9.41002C14.824 9.15264 15.2461 9.15742 15.5034 9.4207C15.7608 9.68399 15.756 10.1061 15.4928 10.3635L11.169 14.5903C10.91 14.8436 10.4961 14.8436 10.237 14.5903L8.50749 12.8996C8.24421 12.6422 8.23943 12.2201 8.49681 11.9568C8.7542 11.6935 9.17628 11.6888 9.43956 11.9461L10.703 13.1813L14.5607 9.41002Z" fill="white"/>
</svg>
