<svg width="24" height="24" viewBox="0 0 24 24" fill="none" xmlns="http://www.w3.org/2000/svg">
<path d="M12.8629 7.87963C12.8733 7.39691 12.4848 7 12.002 7C11.5194 7 11.131 7.39656 11.141 7.87907L11.2529 13.2536C11.2614 13.6603 11.5935 13.9855 12.0002 13.9855C12.4068 13.9855 12.7388 13.6606 12.7475 13.2541L12.8629 7.87963Z" fill="#1B1B1B"/>
<path d="M11.2909 16.6908C11.4879 16.8969 11.7242 17 12 17C12.1818 17 12.347 16.9533 12.4955 16.8599C12.647 16.7633 12.7682 16.6345 12.8591 16.4734C12.953 16.3124 13 16.1337 13 15.9372C13 15.6473 12.9 15.3994 12.7 15.1932C12.503 14.9871 12.2697 14.8841 12 14.8841C11.7242 14.8841 11.4879 14.9871 11.2909 15.1932C11.097 15.3994 11 15.6473 11 15.9372C11 16.2335 11.097 16.4847 11.2909 16.6908Z" fill="#1B1B1B"/>
<path fill-rule="evenodd" clip-rule="evenodd" d="M22 12C22 17.5228 17.5228 22 12 22C6.47715 22 2 17.5228 2 12C2 6.47715 6.47715 2 12 2C17.5228 2 22 6.47715 22 12ZM20.5 12C20.5 16.6944 16.6944 20.5 12 20.5C7.30558 20.5 3.5 16.6944 3.5 12C3.5 7.30558 7.30558 3.5 12 3.5C16.6944 3.5 20.5 7.30558 20.5 12Z" fill="#1B1B1B"/>
</svg>
