<svg width="28" height="28" viewBox="0 0 28 28" fill="none" xmlns="http://www.w3.org/2000/svg">
<path fill-rule="evenodd" clip-rule="evenodd" d="M21 10.5C22.933 10.5 24.5 8.933 24.5 7C24.5 5.067 22.933 3.5 21 3.5C19.067 3.5 17.5 5.067 17.5 7C17.5 7.15757 17.5104 7.31271 17.5306 7.46476L9.52535 11.4674C9.50136 11.4794 9.47815 11.4923 9.45577 11.5062C8.82396 10.8839 7.95682 10.5 7 10.5C5.067 10.5 3.5 12.067 3.5 14C3.5 15.933 5.067 17.5 7 17.5C7.95682 17.5 8.82396 17.1161 9.45577 16.4938C9.47816 16.5077 9.50136 16.5206 9.52535 16.5326L17.5306 20.5352C17.5104 20.6873 17.5 20.8424 17.5 21C17.5 22.933 19.067 24.5 21 24.5C22.933 24.5 24.5 22.933 24.5 21C24.5 19.067 22.933 17.5 21 17.5C19.8506 17.5 18.8306 18.054 18.1925 18.9096L10.3574 14.9921C10.4502 14.6776 10.5 14.3446 10.5 14C10.5 13.6554 10.4502 13.3224 10.3574 13.0079L18.1925 9.09035C18.8306 9.94595 19.8506 10.5 21 10.5ZM21 8.75C21.9665 8.75 22.75 7.9665 22.75 7C22.75 6.0335 21.9665 5.25 21 5.25C20.0335 5.25 19.25 6.0335 19.25 7C19.25 7.9665 20.0335 8.75 21 8.75ZM7 15.75C7.9665 15.75 8.75 14.9665 8.75 14C8.75 13.0335 7.9665 12.25 7 12.25C6.0335 12.25 5.25 13.0335 5.25 14C5.25 14.9665 6.0335 15.75 7 15.75ZM21 22.75C21.9665 22.75 22.75 21.9665 22.75 21C22.75 20.0335 21.9665 19.25 21 19.25C20.0335 19.25 19.25 20.0335 19.25 21C19.25 21.9665 20.0335 22.75 21 22.75Z" fill="white"/>
</svg>
