<svg width="16" height="16" viewBox="0 0 16 16" fill="none" xmlns="http://www.w3.org/2000/svg">
<path d="M8.5625 1.25C8.5625 0.93934 8.31066 0.6875 8 0.6875C7.68934 0.6875 7.4375 0.93934 7.4375 1.25V7.392L6.89775 6.85225C6.67808 6.63258 6.32192 6.63258 6.10225 6.85225C5.88258 7.07192 5.88258 7.42808 6.10225 7.64775L7.60225 9.14775C7.82192 9.36742 8.17808 9.36742 8.39775 9.14775L9.89775 7.64775C10.1174 7.42808 10.1174 7.07192 9.89775 6.85225C9.67808 6.63258 9.32192 6.63258 9.10225 6.85225L8.5625 7.39201V1.25Z" fill="#1B1B1B"/>
<path d="M1.8125 10.25C1.8125 9.31802 2.56802 8.5625 3.5 8.5625C3.81066 8.5625 4.0625 8.31066 4.0625 8C4.0625 7.68934 3.81066 7.4375 3.5 7.4375C1.9467 7.4375 0.6875 8.6967 0.6875 10.25V11.75C0.6875 13.7175 2.28249 15.3125 4.25 15.3125H11.75C13.7175 15.3125 15.3125 13.7175 15.3125 11.75V10.25C15.3125 8.6967 14.0533 7.4375 12.5 7.4375C12.1893 7.4375 11.9375 7.68934 11.9375 8C11.9375 8.31066 12.1893 8.5625 12.5 8.5625C13.432 8.5625 14.1875 9.31802 14.1875 10.25V11.75C14.1875 13.0962 13.0962 14.1875 11.75 14.1875H4.25C2.90381 14.1875 1.8125 13.0962 1.8125 11.75V10.25Z" fill="#1B1B1B"/>
</svg>
