<svg width="25" height="24" viewBox="0 0 25 24" fill="none" xmlns="http://www.w3.org/2000/svg">
<path fill-rule="evenodd" clip-rule="evenodd" d="M11.5 12C14.2614 12 16.5 9.76142 16.5 7C16.5 4.23858 14.2614 2 11.5 2C8.73858 2 6.5 4.23858 6.5 7C6.5 9.76142 8.73858 12 11.5 12ZM11.5 10.5C13.433 10.5 15 8.933 15 7C15 5.067 13.433 3.5 11.5 3.5C9.567 3.5 8 5.067 8 7C8 8.933 9.567 10.5 11.5 10.5Z" fill="white"/>
<path d="M22.0303 9.46967C22.3232 9.76256 22.3232 10.2374 22.0303 10.5303L19.0541 13.5065C18.7684 13.7922 18.3078 13.8003 18.0123 13.5247L16.4885 12.1036C16.1856 11.8211 16.169 11.3465 16.4515 11.0436C16.734 10.7407 17.2086 10.7241 17.5115 11.0066L18.5056 11.9337L20.9697 9.46967C21.2626 9.17678 21.7374 9.17678 22.0303 9.46967Z" fill="white"/>
<path fill-rule="evenodd" clip-rule="evenodd" d="M19.5 17.5C19.5 19.9853 15.9183 22 11.5 22C7.08172 22 3.5 19.9853 3.5 17.5C3.5 15.0147 7.08172 13 11.5 13C15.9183 13 19.5 15.0147 19.5 17.5ZM18 17.5C18 17.96 17.6527 18.6821 16.4215 19.3746C15.2373 20.0407 13.5003 20.5 11.5 20.5C9.49969 20.5 7.76273 20.0407 6.57854 19.3746C5.34733 18.6821 5 17.96 5 17.5C5 17.04 5.34733 16.3179 6.57854 15.6254C7.76273 14.9593 9.49969 14.5 11.5 14.5C13.5003 14.5 15.2373 14.9593 16.4215 15.6254C17.6527 16.3179 18 17.04 18 17.5Z" fill="white"/>
</svg>
