<svg width="20" height="20" viewBox="0 0 20 20" fill="none" xmlns="http://www.w3.org/2000/svg">
<path d="M5 0.25C2.37665 0.25 0.25 2.37665 0.25 5V9.98883C0.25 12.0661 1.93393 13.75 4.01117 13.75C4.56978 13.75 5.10861 13.9568 5.52381 14.3305L6 14.759V12.8188C5.40694 12.4494 4.71859 12.25 4.01117 12.25C2.76236 12.25 1.75 11.2376 1.75 9.98883V5C1.75 3.20507 3.20507 1.75 5 1.75H12C13.7949 1.75 15.25 3.20507 15.25 5V6H16.75V5C16.75 2.37665 14.6234 0.25 12 0.25H5Z" fill="#464646"/>
<path d="M10 13C10.4142 13 10.75 12.6642 10.75 12.25C10.75 11.8358 10.4142 11.5 10 11.5C9.58579 11.5 9.25 11.8358 9.25 12.25C9.25 12.6642 9.58579 13 10 13Z" fill="#464646"/>
<path d="M13.75 12.25C13.75 12.6642 13.4142 13 13 13C12.5858 13 12.25 12.6642 12.25 12.25C12.25 11.8358 12.5858 11.5 13 11.5C13.4142 11.5 13.75 11.8358 13.75 12.25Z" fill="#464646"/>
<path d="M16 13C16.4142 13 16.75 12.6642 16.75 12.25C16.75 11.8358 16.4142 11.5 16 11.5C15.5858 11.5 15.25 11.8358 15.25 12.25C15.25 12.6642 15.5858 13 16 13Z" fill="#464646"/>
<path fill-rule="evenodd" clip-rule="evenodd" d="M6.25 9C6.25 7.48122 7.48122 6.25 9 6.25H17C18.5188 6.25 19.75 7.48122 19.75 9V14.1911C19.75 15.9357 18.3357 17.35 16.5911 17.35C16.1812 17.35 15.7859 17.5017 15.4813 17.7759L14.8397 18.3533C13.7938 19.2946 12.2062 19.2946 11.1603 18.3533L10.5187 17.7759C10.2141 17.5017 9.81876 17.35 9.40894 17.35C7.6643 17.35 6.25 15.9357 6.25 14.1911V9ZM9 7.75C8.30964 7.75 7.75 8.30964 7.75 9V14.1911C7.75 15.1073 8.49273 15.85 9.40894 15.85C10.1893 15.85 10.9421 16.1389 11.5222 16.6609L12.1638 17.2384C12.6392 17.6662 13.3608 17.6662 13.8362 17.2384L14.4778 16.6609C15.0579 16.1389 15.8107 15.85 16.5911 15.85C17.5073 15.85 18.25 15.1073 18.25 14.1911V9C18.25 8.30964 17.6904 7.75 17 7.75H9Z" fill="#464646"/>
</svg>
