<svg width="18" height="18" viewBox="0 0 18 18" fill="none" xmlns="http://www.w3.org/2000/svg">
<path fill-rule="evenodd" clip-rule="evenodd" d="M9.15542 1.73489C9.07586 1.64414 8.92439 1.64414 8.84483 1.73489L8.35988 2.28806C7.91937 2.79054 7.20231 2.94715 6.59179 2.6853L5.90935 2.39261C5.78339 2.33859 5.65867 2.41481 5.6323 2.51182L4.98898 2.33693L5.6323 2.51182L5.44088 3.21591C5.26418 3.8659 4.67941 4.31203 4.01546 4.33499L3.2707 4.36075C3.13305 4.36551 3.06562 4.48059 3.08315 4.57014L3.22318 5.28569C3.35309 5.94949 3.02151 6.60799 2.42693 6.91369L2.1221 6.32079L2.42693 6.91369L1.76736 7.2528C1.65932 7.30834 1.64087 7.42867 1.70156 7.50872L2.14531 8.09401C2.55256 8.63117 2.55256 9.36916 2.14531 9.90632L1.75664 9.61165L2.14531 9.90632L1.70156 10.4916C1.64087 10.5717 1.65932 10.692 1.76735 10.7475L1.46253 11.3404L1.76736 10.7475L2.42693 11.0866L2.1221 11.6795L2.42693 11.0866C3.02151 11.3923 3.35309 12.0508 3.22318 12.7146L3.08315 13.4302C3.06562 13.5197 3.13305 13.6348 3.2707 13.6396L4.01546 13.6653C4.67941 13.6883 5.26418 14.1344 5.44089 14.7844L5.6323 15.4885C5.65867 15.5855 5.78338 15.6617 5.90935 15.6077L6.59179 15.315C7.20231 15.0532 7.91936 15.2098 8.35988 15.7123L8.84483 16.2654C8.92439 16.3562 9.07586 16.3562 9.15542 16.2654L9.64037 15.7123C10.0809 15.2098 10.7979 15.0532 11.4085 15.315L12.0909 15.6077C12.2169 15.6617 12.3416 15.5855 12.3679 15.4885L12.5594 14.7844C12.7361 14.1344 13.3208 13.6883 13.9848 13.6653L14.7295 13.6396C14.8672 13.6348 14.9346 13.5197 14.9171 13.4302L14.7771 12.7146C14.6472 12.0508 14.9787 11.3923 15.5733 11.0866L16.2329 10.7475C16.3409 10.692 16.3594 10.5717 16.2987 10.4916L15.8549 9.90632C15.4477 9.36915 15.4477 8.63117 15.8549 8.09401L16.2987 7.50872C16.3594 7.42867 16.3409 7.30834 16.2329 7.2528L15.5733 6.91369C14.9787 6.60799 14.6472 5.94949 14.7771 5.28569L14.9171 4.57014C14.9346 4.48059 14.8672 4.36551 14.7295 4.36075L13.9848 4.33499C13.3208 4.31203 12.7361 3.8659 12.5594 3.21591L12.3679 2.51182C12.3416 2.41481 12.2169 2.33859 12.0909 2.39261L11.4085 2.6853C10.7979 2.94715 10.0809 2.79054 9.64037 2.28806L9.15542 1.73489ZM10.158 0.855935L9.65672 1.29541L10.158 0.855935L10.643 1.40911C10.6979 1.47181 10.7962 1.49712 10.8829 1.45992L11.5653 1.16723C12.4107 0.80466 13.4085 1.25691 13.6546 2.16204L13.846 2.86612C13.8649 2.93551 13.9339 2.9991 14.0309 3.00245L14.7756 3.02821C15.698 3.06012 16.4074 3.89731 16.2256 4.82622L16.0856 5.54177C16.0724 5.60906 16.1037 5.68712 16.183 5.7279L16.8425 6.06701C17.6733 6.49412 17.9321 7.56126 17.3612 8.31426L16.9174 8.89955C16.8713 8.9604 16.8713 9.03993 16.9174 9.10077L17.3612 9.68607C17.9321 10.4391 17.6733 11.5062 16.8425 11.9333L16.183 12.2724C16.1037 12.3132 16.0724 12.3913 16.0856 12.4586L16.2256 13.1741C16.4074 14.103 15.698 14.9402 14.7756 14.9721L14.0309 14.9979C13.9339 15.0012 13.8649 15.0648 13.846 15.1342L13.6546 15.8383C13.4085 16.7434 12.4107 17.1957 11.5653 16.8331L10.8829 16.5404L11.1155 15.998L10.8829 16.5404C10.7962 16.5032 10.6979 16.5285 10.643 16.5912L10.158 17.1444C9.54734 17.841 8.45291 17.841 7.84223 17.1444L7.35727 16.5912C7.30231 16.5285 7.20408 16.5032 7.11734 16.5404L6.4349 16.8331C5.58955 17.1957 4.59173 16.7434 4.34566 15.8383L4.15425 15.1342C4.13539 15.0648 4.06634 15.0012 3.96937 14.9979L3.22461 14.9721C2.30223 14.9402 1.59285 14.103 1.77464 13.1741L1.91467 12.4586C1.92784 12.3913 1.89659 12.3132 1.81727 12.2724L1.1577 11.9333C0.326959 11.5062 0.0681714 10.4391 0.63907 9.68607L1.04191 9.99148L0.639071 9.68607L1.08282 9.10078C1.12895 9.03993 1.12895 8.96039 1.08282 8.89955L0.639071 8.31426C0.0681709 7.56126 0.32696 6.49412 1.1577 6.06701L1.81727 5.7279C1.89658 5.68712 1.92784 5.60906 1.91467 5.54177L1.77464 4.82622C1.59285 3.89731 2.30223 3.06012 3.22461 3.02821L3.96937 3.00245C4.06634 2.9991 4.13539 2.93551 4.15425 2.86612L4.69288 3.01256L4.15425 2.86612L4.34566 2.16204C4.59173 1.25691 5.58955 0.804661 6.4349 1.16723L7.11734 1.45992L6.85457 2.07261L7.11734 1.45992C7.20407 1.49712 7.30231 1.47181 7.35727 1.40911L7.84223 0.855934C8.45291 0.159349 9.54734 0.159351 10.158 0.855935ZM11.5607 6.41002C11.824 6.15264 12.2461 6.15742 12.5034 6.4207C12.7608 6.68399 12.756 7.10607 12.4928 7.36345L8.16905 11.5903C7.90998 11.8436 7.49605 11.8436 7.23698 11.5903L5.50749 9.89956C5.24421 9.64218 5.23943 9.2201 5.49681 8.95682C5.7542 8.69353 6.17628 8.68875 6.43956 8.94614L7.70301 10.1813L11.5607 6.41002Z" fill="white"/>
</svg>
