<svg width="34" height="34" viewBox="0 0 34 34" fill="none" xmlns="http://www.w3.org/2000/svg">
<path d="M2 0.6875C1.30964 0.6875 0.75 1.27513 0.75 2C0.75 2.72487 1.30964 3.3125 2 3.3125C3.36175 3.3125 4.5408 4.30559 4.8362 5.70138L5.55275 9.08706C5.55795 9.16929 5.57058 9.25151 5.59082 9.33265L5.68239 9.69964L5.77977 10.1597C5.79891 10.2502 5.82653 10.3364 5.86155 10.4176L8.65351 21.6068C9.56578 25.2628 12.7122 27.8125 16.3117 27.8125H23.6667C24.357 27.8125 24.9167 27.2249 24.9167 26.5C24.9167 25.7751 24.357 25.1875 23.6667 25.1875H16.3117C13.8489 25.1875 11.6961 23.443 11.0719 20.9415L8.4197 10.3125H25.3856C27.6076 10.3125 29.6043 11.7374 30.4221 13.9067C30.6761 14.5807 31.4025 14.9108 32.0444 14.644C32.6863 14.3772 33.0007 13.6146 32.7466 12.9406C31.5513 9.77002 28.6332 7.6875 25.3856 7.6875H7.81753L7.27667 5.13193C6.72708 2.53511 4.5335 0.6875 2 0.6875Z" fill="#E6007E"/>
<path d="M13.6667 31.75C13.6667 32.7165 12.9205 33.5 12 33.5C11.0795 33.5 10.3333 32.7165 10.3333 31.75C10.3333 30.7835 11.0795 30 12 30C12.9205 30 13.6667 30.7835 13.6667 31.75Z" fill="#E6007E"/>
<path d="M27 31.75C27 32.7165 26.2538 33.5 25.3333 33.5C24.4129 33.5 23.6667 32.7165 23.6667 31.75C23.6667 30.7835 24.4129 30 25.3333 30C26.2538 30 27 30.7835 27 31.75Z" fill="#E6007E"/>
<path d="M28.6667 16.4375C29.357 16.4375 29.9167 17.0251 29.9167 17.75V19.9375H32C32.6904 19.9375 33.25 20.5251 33.25 21.25C33.25 21.9749 32.6904 22.5625 32 22.5625H29.9167V24.75C29.9167 25.4749 29.357 26.0625 28.6667 26.0625C27.9763 26.0625 27.4167 25.4749 27.4167 24.75V22.5625H25.3333C24.643 22.5625 24.0833 21.9749 24.0833 21.25C24.0833 20.5251 24.643 19.9375 25.3333 19.9375H27.4167V17.75C27.4167 17.0251 27.9763 16.4375 28.6667 16.4375Z" fill="#E6007E"/>
</svg>
