<svg width="35" height="32" viewBox="0 0 35 32" fill="none" xmlns="http://www.w3.org/2000/svg">
<path d="M2 0.416992C1.30964 0.416992 0.75 0.976636 0.75 1.66699C0.75 2.35735 1.30964 2.91699 2 2.91699C3.36175 2.91699 4.5408 3.86279 4.8362 5.19211L5.55275 8.41657C5.55795 8.49489 5.57058 8.5732 5.59082 8.65047L5.68239 8.99998L5.77977 9.43816C5.79891 9.52432 5.82653 9.60642 5.86155 9.68377L8.65351 20.3401C9.56578 23.8221 12.7122 26.2503 16.3117 26.2503H23.6667C24.357 26.2503 24.9167 25.6907 24.9167 25.0003C24.9167 24.31 24.357 23.7503 23.6667 23.7503H16.3117C13.8489 23.7503 11.6961 22.0889 11.0719 19.7065L8.4197 9.58366H25.3856C27.6076 9.58366 29.6043 10.9407 30.4221 13.0067C30.6761 13.6486 31.4025 13.963 32.0444 13.7089C32.6863 13.4548 33.0007 12.7285 32.7466 12.0866C31.5513 9.06701 28.6332 7.08366 25.3856 7.08366H7.81753L7.27667 4.64979C6.72708 2.17662 4.5335 0.416992 2 0.416992Z" fill="#E6007E"/>
<path d="M13.6667 30.0003C13.6667 30.9208 12.9205 31.667 12 31.667C11.0795 31.667 10.3333 30.9208 10.3333 30.0003C10.3333 29.0799 11.0795 28.3337 12 28.3337C12.9205 28.3337 13.6667 29.0799 13.6667 30.0003Z" fill="#E6007E"/>
<path d="M27 30.0003C27 30.9208 26.2538 31.667 25.3333 31.667C24.4129 31.667 23.6667 30.9208 23.6667 30.0003C23.6667 29.0799 24.4129 28.3337 25.3333 28.3337C26.2538 28.3337 27 29.0799 27 30.0003Z" fill="#E6007E"/>
<path d="M34.5506 15.7831C35.0387 16.2713 35.0387 17.0627 34.5506 17.5509L29.5902 22.5112C29.1141 22.9874 28.3463 23.0007 27.8538 22.5415L25.3141 20.173C24.8093 19.7022 24.7817 18.9112 25.2525 18.4063C25.7233 17.9014 26.5143 17.8738 27.0192 18.3447L28.6761 19.8898L32.7828 15.7831C33.2709 15.295 34.0624 15.295 34.5506 15.7831Z" fill="#E6007E"/>
</svg>
