<svg width="32" height="32" viewBox="0 0 32 32" fill="none" xmlns="http://www.w3.org/2000/svg">
<path d="M11 15.3333C11 16.2538 10.2538 17 9.33329 17C8.41282 17 7.66663 16.2538 7.66663 15.3333C7.66663 14.4129 8.41282 13.6667 9.33329 13.6667C10.2538 13.6667 11 14.4129 11 15.3333Z" fill="#E6007E"/>
<path d="M22.6666 17C23.5871 17 24.3333 16.2538 24.3333 15.3333C24.3333 14.4129 23.5871 13.6667 22.6666 13.6667C21.7462 13.6667 21 14.4129 21 15.3333C21 16.2538 21.7462 17 22.6666 17Z" fill="#E6007E"/>
<path fill-rule="evenodd" clip-rule="evenodd" d="M8.08413 8.71271C8.08357 8.69743 8.08329 8.68208 8.08329 8.66667C8.08329 4.29441 11.6277 0.75 16 0.75C20.3722 0.75 23.9166 4.29441 23.9166 8.66667C23.9166 8.68209 23.9163 8.69744 23.9158 8.71272C26.8271 9.05604 29.214 11.2845 29.7061 14.2373L31.3728 24.2373C32.0501 28.3009 28.9164 32 24.7968 32H7.20298C3.08339 32 -0.0502325 28.3009 0.627025 24.2373L2.29369 14.2373C2.78584 11.2845 5.17273 9.056 8.08413 8.71271ZM10.5833 8.66667C10.5833 5.67512 13.0084 3.25 16 3.25C18.9915 3.25 21.4166 5.67512 21.4166 8.66667H10.5833ZM3.09301 24.6483L4.75968 14.6483C5.09453 12.6392 6.83282 11.1667 8.86965 11.1667H23.1302C25.167 11.1667 26.9053 12.6392 27.2402 14.6483L28.9068 24.6483C29.3301 27.1881 27.3716 29.5 24.7968 29.5H7.20298C4.62824 29.5 2.66972 27.1881 3.09301 24.6483Z" fill="#E6007E"/>
</svg>
