<svg width="19" height="18" viewBox="0 0 19 18" fill="none" xmlns="http://www.w3.org/2000/svg">
<path fill-rule="evenodd" clip-rule="evenodd" d="M9.65542 1.73489C9.57586 1.64414 9.42439 1.64414 9.34483 1.73489L8.85988 2.28806C8.41937 2.79054 7.70231 2.94715 7.09179 2.6853L6.40935 2.39261C6.28339 2.33859 6.15867 2.41481 6.1323 2.51182L5.48898 2.33693L6.1323 2.51182L5.94088 3.21591C5.76418 3.8659 5.17941 4.31203 4.51546 4.33499L3.7707 4.36075C3.63305 4.36551 3.56562 4.48059 3.58315 4.57014L3.72318 5.28569C3.85309 5.94949 3.52151 6.60799 2.92693 6.91369L2.6221 6.32079L2.92693 6.91369L2.26736 7.2528C2.15932 7.30834 2.14087 7.42867 2.20156 7.50872L2.64531 8.09401C3.05256 8.63117 3.05256 9.36916 2.64531 9.90632L2.25664 9.61165L2.64531 9.90632L2.20156 10.4916C2.14087 10.5717 2.15932 10.692 2.26735 10.7475L1.96253 11.3404L2.26736 10.7475L2.92693 11.0866L2.6221 11.6795L2.92693 11.0866C3.52151 11.3923 3.85309 12.0508 3.72318 12.7146L3.58315 13.4302C3.56562 13.5197 3.63305 13.6348 3.7707 13.6396L4.51546 13.6653C5.17941 13.6883 5.76418 14.1344 5.94089 14.7844L6.1323 15.4885C6.15867 15.5855 6.28338 15.6617 6.40935 15.6077L7.09179 15.315C7.70231 15.0532 8.41936 15.2098 8.85988 15.7123L9.34483 16.2654C9.42439 16.3562 9.57586 16.3562 9.65542 16.2654L10.1404 15.7123C10.5809 15.2098 11.2979 15.0532 11.9085 15.315L12.5909 15.6077C12.7169 15.6617 12.8416 15.5855 12.8679 15.4885L13.0594 14.7844C13.2361 14.1344 13.8208 13.6883 14.4848 13.6653L15.2295 13.6396C15.3672 13.6348 15.4346 13.5197 15.4171 13.4302L15.2771 12.7146C15.1472 12.0508 15.4787 11.3923 16.0733 11.0866L16.7329 10.7475C16.8409 10.692 16.8594 10.5717 16.7987 10.4916L16.3549 9.90632C15.9477 9.36915 15.9477 8.63117 16.3549 8.09401L16.7987 7.50872C16.8594 7.42867 16.8409 7.30834 16.7329 7.2528L16.0733 6.91369C15.4787 6.60799 15.1472 5.94949 15.2771 5.28569L15.4171 4.57014C15.4346 4.48059 15.3672 4.36551 15.2295 4.36075L14.4848 4.33499C13.8208 4.31203 13.2361 3.8659 13.0594 3.21591L12.8679 2.51182C12.8416 2.41481 12.7169 2.33859 12.5909 2.39261L11.9085 2.6853C11.2979 2.94715 10.5809 2.79054 10.1404 2.28806L9.65542 1.73489ZM10.658 0.855935L10.1567 1.29541L10.658 0.855935L11.143 1.40911C11.1979 1.47181 11.2962 1.49712 11.3829 1.45992L12.0653 1.16723C12.9107 0.80466 13.9085 1.25691 14.1546 2.16204L14.346 2.86612C14.3649 2.93551 14.4339 2.9991 14.5309 3.00245L15.2756 3.02821C16.198 3.06012 16.9074 3.89731 16.7256 4.82622L16.5856 5.54177C16.5724 5.60906 16.6037 5.68712 16.683 5.7279L17.3425 6.06701C18.1733 6.49412 18.4321 7.56126 17.8612 8.31426L17.4174 8.89955C17.3713 8.9604 17.3713 9.03993 17.4174 9.10077L17.8612 9.68607C18.4321 10.4391 18.1733 11.5062 17.3425 11.9333L16.683 12.2724C16.6037 12.3132 16.5724 12.3913 16.5856 12.4586L16.7256 13.1741C16.9074 14.103 16.198 14.9402 15.2756 14.9721L14.5309 14.9979C14.4339 15.0012 14.3649 15.0648 14.346 15.1342L14.1546 15.8383C13.9085 16.7434 12.9107 17.1957 12.0653 16.8331L11.3829 16.5404L11.6155 15.998L11.3829 16.5404C11.2962 16.5032 11.1979 16.5285 11.143 16.5912L10.658 17.1444C10.0473 17.841 8.95291 17.841 8.34223 17.1444L7.85727 16.5912C7.80231 16.5285 7.70408 16.5032 7.61734 16.5404L6.9349 16.8331C6.08955 17.1957 5.09173 16.7434 4.84566 15.8383L4.65425 15.1342C4.63539 15.0648 4.56634 15.0012 4.46937 14.9979L3.72461 14.9721C2.80223 14.9402 2.09285 14.103 2.27464 13.1741L2.41467 12.4586C2.42784 12.3913 2.39659 12.3132 2.31727 12.2724L1.6577 11.9333C0.826959 11.5062 0.568171 10.4391 1.13907 9.68607L1.54191 9.99148L1.13907 9.68607L1.58282 9.10078C1.62895 9.03993 1.62895 8.96039 1.58282 8.89955L1.13907 8.31426C0.568171 7.56126 0.82696 6.49412 1.6577 6.06701L2.31727 5.7279C2.39658 5.68712 2.42784 5.60906 2.41467 5.54177L2.27464 4.82622C2.09285 3.89731 2.80223 3.06012 3.72461 3.02821L4.46937 3.00245C4.56634 2.9991 4.63539 2.93551 4.65425 2.86612L5.19288 3.01256L4.65425 2.86612L4.84566 2.16204C5.09173 1.25691 6.08955 0.804661 6.9349 1.16723L7.61734 1.45992L7.35457 2.07261L7.61734 1.45992C7.70407 1.49712 7.80231 1.47181 7.85727 1.40911L8.34223 0.855934C8.95291 0.159349 10.0473 0.159351 10.658 0.855935ZM12.0607 6.41002C12.324 6.15264 12.7461 6.15742 13.0034 6.4207C13.2608 6.68399 13.256 7.10607 12.9928 7.36345L8.66905 11.5903C8.40998 11.8436 7.99605 11.8436 7.73698 11.5903L6.00749 9.89956C5.74421 9.64218 5.73943 9.2201 5.99681 8.95682C6.2542 8.69353 6.67628 8.68875 6.93956 8.94614L8.20301 10.1813L12.0607 6.41002Z" fill="white"/>
</svg>
