<svg width="22" height="19" viewBox="0 0 22 19" fill="none" xmlns="http://www.w3.org/2000/svg">
<path d="M1.5 0.25C1.08579 0.25 0.75 0.585786 0.75 1C0.75 1.41421 1.08579 1.75 1.5 1.75C2.31705 1.75 3.02448 2.31748 3.20172 3.11507L3.63165 5.04975C3.63477 5.09674 3.64235 5.14372 3.65449 5.19008L3.70944 5.39979L3.76786 5.6627C3.77935 5.7144 3.79592 5.76366 3.81693 5.81006L5.4921 12.2039C6.03947 14.293 7.92732 15.75 10.087 15.75H14.5C14.9142 15.75 15.25 15.4142 15.25 15C15.25 14.5858 14.9142 14.25 14.5 14.25H10.087C8.60933 14.25 7.31764 13.2531 6.94313 11.8237L5.35182 5.75H15.5314C16.8646 5.75 18.0626 6.56422 18.5532 7.80384C18.7057 8.18898 19.1415 8.37761 19.5266 8.22516C19.9118 8.07271 20.1004 7.63691 19.9479 7.25177C19.2308 5.44001 17.4799 4.25 15.5314 4.25H4.99052L4.666 2.78968C4.33625 1.30578 3.0201 0.25 1.5 0.25Z" fill="white"/>
<path d="M8.5 18C8.5 18.5523 8.05228 19 7.5 19C6.94772 19 6.5 18.5523 6.5 18C6.5 17.4477 6.94772 17 7.5 17C8.05228 17 8.5 17.4477 8.5 18Z" fill="white"/>
<path d="M16.5 18C16.5 18.5523 16.0523 19 15.5 19C14.9477 19 14.5 18.5523 14.5 18C14.5 17.4477 14.9477 17 15.5 17C16.0523 17 16.5 17.4477 16.5 18Z" fill="white"/>
<path d="M21.0303 9.46967C21.3232 9.76256 21.3232 10.2374 21.0303 10.5303L18.0541 13.5065C17.7684 13.7922 17.3078 13.8003 17.0123 13.5247L15.4885 12.1036C15.1856 11.8211 15.169 11.3465 15.4515 11.0436C15.734 10.7407 16.2086 10.7241 16.5115 11.0066L17.5056 11.9337L19.9697 9.46967C20.2626 9.17678 20.7374 9.17678 21.0303 9.46967Z" fill="white"/>
</svg>
