<svg width="36" height="33" viewBox="0 0 36 33" fill="none" xmlns="http://www.w3.org/2000/svg">
<g filter="url(#filter0_d_3163_1569)">
<path fill-rule="evenodd" clip-rule="evenodd" d="M4.48816 19.1782L21.5 2.16632C23.8012 -0.134866 27.5321 -0.134868 29.8333 2.16632C32.1345 4.46751 32.1345 8.19847 29.8333 10.4997L12.8215 27.5115C12.5089 27.8241 12.085 27.9997 11.643 27.9997H5.66667C4.74619 27.9997 4 27.2535 4 26.333V20.3567C4 19.9146 4.17559 19.4907 4.48816 19.1782ZM6.5 25.4997V20.7019L23.2678 3.93409C24.5926 2.60921 26.7407 2.60921 28.0656 3.93409C29.3904 5.25896 29.3904 7.40701 28.0656 8.73189L11.2978 25.4997H6.5Z" fill="#E6007E"/>
<path d="M19 25.083C18.3096 25.083 17.75 25.6426 17.75 26.333C17.75 27.0233 18.3096 27.583 19 27.583H30.6667C31.357 27.583 31.9167 27.0233 31.9167 26.333C31.9167 25.6426 31.357 25.083 30.6667 25.083H19Z" fill="#E6007E"/>
</g>
<defs>
<filter id="filter0_d_3163_1569" x="0" y="0.44043" width="35.9167" height="35.5596" filterUnits="userSpaceOnUse" color-interpolation-filters="sRGB">
<feFlood flood-opacity="0" result="BackgroundImageFix"/>
<feColorMatrix in="SourceAlpha" type="matrix" values="0 0 0 0 0 0 0 0 0 0 0 0 0 0 0 0 0 0 127 0" result="hardAlpha"/>
<feOffset dy="4"/>
<feGaussianBlur stdDeviation="2"/>
<feComposite in2="hardAlpha" operator="out"/>
<feColorMatrix type="matrix" values="0 0 0 0 0 0 0 0 0 0 0 0 0 0 0 0 0 0 0.25 0"/>
<feBlend mode="normal" in2="BackgroundImageFix" result="effect1_dropShadow_3163_1569"/>
<feBlend mode="normal" in="SourceGraphic" in2="effect1_dropShadow_3163_1569" result="shape"/>
</filter>
</defs>
</svg>
