<svg width="21" height="20" viewBox="0 0 21 20" fill="none" xmlns="http://www.w3.org/2000/svg">
<path d="M11.3629 5.87963C11.3733 5.39691 10.9848 5 10.502 5C10.0194 5 9.63098 5.39656 9.64103 5.87907L9.75294 11.2536C9.76141 11.6603 10.0935 11.9855 10.5002 11.9855C10.9068 11.9855 11.2388 11.6606 11.2475 11.2541L11.3629 5.87963Z" fill="white"/>
<path d="M9.79091 14.6908C9.98788 14.8969 10.2242 15 10.5 15C10.6818 15 10.847 14.9533 10.9955 14.8599C11.147 14.7633 11.2682 14.6345 11.3591 14.4734C11.453 14.3124 11.5 14.1337 11.5 13.9372C11.5 13.6473 11.4 13.3994 11.2 13.1932C11.003 12.9871 10.7697 12.8841 10.5 12.8841C10.2242 12.8841 9.98788 12.9871 9.79091 13.1932C9.59697 13.3994 9.5 13.6473 9.5 13.9372C9.5 14.2335 9.59697 14.4847 9.79091 14.6908Z" fill="white"/>
<path fill-rule="evenodd" clip-rule="evenodd" d="M20.5 10C20.5 15.5228 16.0228 20 10.5 20C4.97715 20 0.5 15.5228 0.5 10C0.5 4.47715 4.97715 0 10.5 0C16.0228 0 20.5 4.47715 20.5 10ZM19 10C19 14.6944 15.1944 18.5 10.5 18.5C5.80558 18.5 2 14.6944 2 10C2 5.30558 5.80558 1.5 10.5 1.5C15.1944 1.5 19 5.30558 19 10Z" fill="white"/>
</svg>
