<svg width="28" height="34" viewBox="0 0 28 34" fill="none" xmlns="http://www.w3.org/2000/svg">
<path d="M6.08341 11.9997C6.08341 11.3093 6.64306 10.7497 7.33341 10.7497H14.0001C14.6904 10.7497 15.2501 11.3093 15.2501 11.9997C15.2501 12.69 14.6904 13.2497 14.0001 13.2497H7.33341C6.64306 13.2497 6.08341 12.69 6.08341 11.9997Z" fill="#E6007E"/>
<path d="M6.08341 18.6663C6.08341 17.976 6.64306 17.4163 7.33341 17.4163H20.6667C21.3571 17.4163 21.9167 17.976 21.9167 18.6663C21.9167 19.3567 21.3571 19.9163 20.6667 19.9163H7.33341C6.64306 19.9163 6.08341 19.3567 6.08341 18.6663Z" fill="#E6007E"/>
<path d="M7.33341 24.083C6.64306 24.083 6.08341 24.6427 6.08341 25.333C6.08341 26.0234 6.64306 26.583 7.33341 26.583H20.6667C21.3571 26.583 21.9167 26.0234 21.9167 25.333C21.9167 24.6427 21.3571 24.083 20.6667 24.083H7.33341Z" fill="#E6007E"/>
<path fill-rule="evenodd" clip-rule="evenodd" d="M20.5617 2.83301H20.6667C24.3486 2.83301 27.3334 5.81778 27.3334 9.49967V26.9997C27.3334 30.6816 24.3486 33.6663 20.6667 33.6663H7.33341C3.65152 33.6663 0.666748 30.6816 0.666748 26.9997V9.49967C0.666748 5.81778 3.65152 2.83301 7.33341 2.83301H7.43843C7.80847 1.39532 9.11355 0.333008 10.6667 0.333008H17.3334C18.8866 0.333008 20.1917 1.39531 20.5617 2.83301ZM17.3334 2.83301H10.6667C10.2065 2.83301 9.83341 3.2061 9.83341 3.66634C9.83341 4.12658 10.2065 4.49967 10.6667 4.49967H17.3334C17.7937 4.49967 18.1667 4.12658 18.1667 3.66634C18.1667 3.2061 17.7937 2.83301 17.3334 2.83301ZM7.77936 5.33301H7.33341C5.03223 5.33301 3.16675 7.19849 3.16675 9.49967V26.9997C3.16675 29.3009 5.03223 31.1663 7.33341 31.1663H20.6667C22.9679 31.1663 24.8334 29.3009 24.8334 26.9997V9.49967C24.8334 7.19849 22.9679 5.33301 20.6667 5.33301H20.2208C19.6445 6.32934 18.5672 6.99967 17.3334 6.99967H10.6667C9.43294 6.99967 8.3557 6.32935 7.77936 5.33301Z" fill="#E6007E"/>
</svg>
