<svg width="19" height="19" viewBox="0 0 19 19" fill="none" xmlns="http://www.w3.org/2000/svg">
<path d="M4.57805 0.18286C4.20757 -0.00238247 3.75706 0.147786 3.57182 0.51827C3.40875 0.844418 3.50561 1.23258 3.78389 1.44719C3.24557 1.71645 2.64679 2.09598 2.12132 2.62145C1.40676 3.33601 0.962068 4.18617 0.697547 4.83544C0.563813 5.1637 0.472314 5.45009 0.41369 5.65681C0.384313 5.76041 0.363009 5.84464 0.348664 5.90489C0.341487 5.93503 0.336038 5.95923 0.33218 5.97691L0.327565 5.99849L0.326117 6.00549L0.325602 6.00802L0.325396 6.00904C0.325355 6.00924 0.325225 6.00989 1.06066 6.15698L0.325396 6.00904C0.244162 6.41521 0.507403 6.81118 0.913573 6.89242C1.31918 6.97354 1.71377 6.71096 1.79576 6.30575L1.79769 6.29674C1.79961 6.28792 1.80297 6.27293 1.80787 6.25232C1.8177 6.21106 1.83368 6.14752 1.85679 6.06605C1.90312 5.90265 1.97735 5.66976 2.08669 5.40139C2.3083 4.85743 2.65911 4.20498 3.18198 3.68211C3.53386 3.33023 3.94442 3.05628 4.34111 2.84718C4.34642 3.1294 4.5116 3.39673 4.78656 3.51894C5.16508 3.68717 5.6083 3.5167 5.77653 3.13818L6.34221 1.86539C6.50506 1.49898 6.3509 1.06929 5.99226 0.889966L4.57805 0.18286Z" fill="white"/>
<path d="M13.4219 18.8136C13.7924 18.9988 14.2429 18.8487 14.4282 18.4782C14.5913 18.152 14.4944 17.7639 14.2161 17.5492C14.7544 17.28 15.3532 16.9005 15.8787 16.375C16.5932 15.6604 17.0379 14.8103 17.3025 14.161C17.4362 13.8327 17.5277 13.5464 17.5863 13.3396C17.6157 13.236 17.637 13.1518 17.6513 13.0916C17.6585 13.0614 17.664 13.0372 17.6678 13.0195L17.6724 12.998L17.6739 12.991L17.6744 12.9884L17.6746 12.9874C17.6746 12.9872 17.6748 12.9865 16.9393 12.8395L17.6746 12.9874C17.7558 12.5812 17.4926 12.1853 17.0864 12.104C16.6808 12.0229 16.2862 12.2855 16.2042 12.6907L16.204 12.692L16.2023 12.6997L16.1989 12.7152L16.1921 12.7441C16.1823 12.7854 16.1663 12.8489 16.1432 12.9304C16.0969 13.0938 16.0226 13.3267 15.9133 13.5951C15.6917 14.139 15.3409 14.7915 14.818 15.3143C14.4661 15.6662 14.0556 15.9402 13.6589 16.1493C13.6536 15.867 13.4884 15.5997 13.2134 15.4775C12.8349 15.3093 12.3917 15.4797 12.2235 15.8583L11.6578 17.1311C11.4949 17.4975 11.6491 17.9272 12.0077 18.1065L13.4219 18.8136Z" fill="white"/>
<path fill-rule="evenodd" clip-rule="evenodd" d="M6 18.5001C9.31371 18.5001 12 15.8138 12 12.5001C12 9.18642 9.31371 6.50013 6 6.50013C2.68629 6.50013 0 9.18642 0 12.5001C0 15.8138 2.68629 18.5001 6 18.5001ZM6 17.0001C8.48528 17.0001 10.5 14.9854 10.5 12.5001C10.5 10.0148 8.48528 8.00013 6 8.00013C3.51472 8.00013 1.5 10.0148 1.5 12.5001C1.5 14.9854 3.51472 17.0001 6 17.0001Z" fill="white"/>
<path d="M12.9999 11.0001C15.4852 11.0001 17.4999 8.98541 17.4999 6.50013C17.4999 4.01485 15.4852 2.00013 12.9999 2.00013C10.7851 2.00013 8.94394 3.60023 8.56948 5.70751C8.09467 5.57917 7.59651 5.50765 7.08276 5.50069C7.55861 2.6627 10.0267 0.500129 12.9999 0.500129C16.3136 0.500129 18.9999 3.18642 18.9999 6.50013C18.9999 9.81384 16.3136 12.5001 12.9999 12.5001C12.9722 12.5001 12.9446 12.4999 12.917 12.4996C12.9715 12.1745 12.9999 11.8406 12.9999 11.5001C12.9999 11.3317 12.993 11.165 12.9794 11.0001L12.9999 11.0001Z" fill="white"/>
</svg>
