<svg width="25" height="25" viewBox="0 0 25 25" fill="none" xmlns="http://www.w3.org/2000/svg">
<path fill-rule="evenodd" clip-rule="evenodd" d="M13.6097 2.67485C12.875 2.55239 12.125 2.55239 11.3903 2.67485L9.43792 3.00025H8.10554C7.56262 3.00025 7.03185 3.16095 6.58011 3.46211L4.828 4.63018C4.17702 5.06417 3.74171 5.75489 3.63107 6.52941L2.88625 11.7431C2.76675 12.5796 3.13821 13.4104 3.84129 13.8792C4.00108 13.9857 4.1716 14.0692 4.34828 14.1297L4.83952 18.3052C5.12095 20.6974 7.14833 22.5002 9.55699 22.5002H15.943C18.3517 22.5002 20.379 20.6974 20.6605 18.3052L21.1831 13.8626C21.8704 13.3911 22.2318 12.5699 22.1137 11.7431L21.3689 6.52941C21.2583 5.75489 20.823 5.06417 20.172 4.63018L18.4199 3.46211C17.9681 3.16095 17.4374 3.00025 16.8944 3.00025H15.5621L13.6097 2.67485ZM7.41217 4.71018C7.6175 4.57329 7.85876 4.50025 8.10554 4.50025H8.6504L7.80229 11.2851L5.40287 12.6562C5.17456 12.7867 4.89213 12.777 4.67334 12.6311C4.45089 12.4828 4.33336 12.2199 4.37117 11.9553L5.11599 6.74154C5.16628 6.38949 5.36415 6.07553 5.66005 5.87826L7.41217 4.71018ZM6.14708 13.9586L8.52359 12.6006L9.4813 13.0794C11.3816 14.0296 13.6184 14.0296 15.5187 13.0794L16.4764 12.6006L18.8529 13.9586C19.0972 14.0982 19.361 14.187 19.6301 14.2255L19.1707 18.13C18.9782 19.7667 17.591 21.0002 15.943 21.0002H15.25V18.7502C15.25 17.2315 14.0188 16.0002 12.5 16.0002C10.9812 16.0002 9.74999 17.2315 9.74999 18.7502V21.0002H9.55699C7.90896 21.0002 6.52181 19.7667 6.32925 18.13L5.85491 14.0981C5.95468 14.0592 6.05235 14.0127 6.14708 13.9586ZM19.5971 12.6562L17.1977 11.2851L16.3496 4.50025H16.8944C17.1412 4.50025 17.3825 4.57329 17.5878 4.71018L19.3399 5.87826C19.6358 6.07553 19.8337 6.38949 19.884 6.74154L20.6288 11.9553C20.6666 12.2199 20.5491 12.4828 20.3266 12.6311C20.1078 12.777 19.8254 12.7867 19.5971 12.6562ZM13.3631 4.15444L14.8251 4.39812L15.69 11.3167L14.8479 11.7378C13.3698 12.4768 11.6301 12.4768 10.1521 11.7378L9.31001 11.3167L10.1748 4.39812L11.6369 4.15444C12.2083 4.0592 12.7916 4.0592 13.3631 4.15444ZM12.5 17.5002C13.1903 17.5002 13.75 18.0599 13.75 18.7502V21.0002H11.25V18.7502C11.25 18.0599 11.8096 17.5002 12.5 17.5002Z" fill="white"/>
</svg>
