<svg width="41" height="42" viewBox="0 0 41 42" fill="none" xmlns="http://www.w3.org/2000/svg">
<path d="M0.0830078 1.96875C0.0830078 0.877734 0.848031 0 1.79895 0H5.05209C6.62503 0 8.01923 1.05 8.66986 2.625H38.0553C39.9357 2.625 41.3085 4.67578 40.8151 6.75938L37.8837 19.2527C37.276 21.8285 35.2383 23.625 32.9147 23.625H12.2876L12.6737 25.9629C12.831 26.8898 13.5388 27.5625 14.3611 27.5625H34.9738C35.9247 27.5625 36.6897 28.4402 36.6897 29.5312C36.6897 30.6223 35.9247 31.5 34.9738 31.5H14.3611C11.8872 31.5 9.76377 29.482 9.30619 26.7012L5.61692 4.4707C5.56687 4.15898 5.33093 3.9375 5.05209 3.9375H1.79895C0.848031 3.9375 0.0830078 3.05977 0.0830078 1.96875ZM9.23469 38.0625C9.23469 37.5454 9.32346 37.0334 9.49593 36.5557C9.6684 36.078 9.92119 35.6439 10.2399 35.2783C10.5585 34.9126 10.9369 34.6226 11.3532 34.4247C11.7696 34.2268 12.2159 34.125 12.6666 34.125C13.1173 34.125 13.5635 34.2268 13.9799 34.4247C14.3963 34.6226 14.7746 34.9126 15.0933 35.2783C15.412 35.6439 15.6647 36.078 15.8372 36.5557C16.0097 37.0334 16.0985 37.5454 16.0985 38.0625C16.0985 38.5796 16.0097 39.0916 15.8372 39.5693C15.6647 40.047 15.412 40.4811 15.0933 40.8467C14.7746 41.2124 14.3963 41.5024 13.9799 41.7003C13.5635 41.8982 13.1173 42 12.6666 42C12.2159 42 11.7696 41.8982 11.3532 41.7003C10.9369 41.5024 10.5585 41.2124 10.2399 40.8467C9.92119 40.4811 9.6684 40.047 9.49593 39.5693C9.32346 39.0916 9.23469 38.5796 9.23469 38.0625ZM33.2579 34.125C34.168 34.125 35.041 34.5398 35.6846 35.2783C36.3282 36.0167 36.6897 37.0182 36.6897 38.0625C36.6897 39.1068 36.3282 40.1083 35.6846 40.8467C35.041 41.5852 34.168 42 33.2579 42C32.3477 42 31.4748 41.5852 30.8312 40.8467C30.1875 40.1083 29.826 39.1068 29.826 38.0625C29.826 37.0182 30.1875 36.0167 30.8312 35.2783C31.4748 34.5398 32.3477 34.125 33.2579 34.125ZM18.1004 13.125C18.1004 14.0273 18.7439 14.7656 19.5303 14.7656H22.6762V18.375C22.6762 19.2773 23.3197 20.0156 24.1062 20.0156C24.8926 20.0156 25.5361 19.2773 25.5361 18.375V14.7656H28.682C29.4685 14.7656 30.112 14.0273 30.112 13.125C30.112 12.2227 29.4685 11.4844 28.682 11.4844H25.5361V7.875C25.5361 6.97266 24.8926 6.23438 24.1062 6.23438C23.3197 6.23438 22.6762 6.97266 22.6762 7.875V11.4844H19.5303C18.7439 11.4844 18.1004 12.2227 18.1004 13.125Z" fill="white"/>
</svg>
